<?xml version="1.0" standalone="no"?>
<!DOCTYPE svg PUBLIC "-//W3C//DTD SVG 20010904//EN"
 "http://www.w3.org/TR/2001/REC-SVG-20010904/DTD/svg10.dtd">
<svg version="1.0" xmlns="http://www.w3.org/2000/svg"
 width="960.000000pt" height="960.000000pt" viewBox="0 0 960.000000 960.000000"
 preserveAspectRatio="xMidYMid meet">
<metadata>
Created by potrace 1.11, written by Peter Selinger 2001-2013
</metadata>
<g transform="translate(0.000000,960.000000) scale(0.100000,-0.100000)"
fill="#000000" stroke="none">
<path d="M0 4800 l0 -4800 744 0 c517 0 753 3 775 11 22 8 35 8 44 0 9 -7 167
-10 493 -10 299 0 471 4 456 9 -36 15 -30 63 10 83 l32 15 -37 16 c-26 10 -37
21 -37 35 0 12 7 21 15 21 26 0 16 18 -16 29 -26 9 -30 15 -25 34 4 19 0 25
-26 33 -39 11 -49 34 -16 34 13 0 29 4 36 9 9 5 -10 10 -50 13 -36 3 -75 11
-89 18 -22 12 -22 14 -5 20 12 4 -14 11 -68 19 -48 7 -93 20 -101 28 -11 11
-48 15 -157 16 -237 3 -337 -3 -348 -22 -5 -9 -10 -11 -11 -6 -4 23 -6 42 -8
74 -1 34 -1 34 -20 15 -10 -10 -17 -22 -14 -26 10 -19 -10 -76 -31 -88 -13 -6
-31 -25 -40 -42 l-18 -30 -23 69 c-13 37 -25 77 -27 88 -2 11 -10 19 -17 17
-7 -1 -79 -4 -159 -7 -122 -3 -134 -2 -72 5 41 5 108 12 149 15 41 3 77 7 79
10 13 13 -14 17 -105 17 -64 -1 -91 2 -78 8 11 5 53 9 93 9 41 1 72 5 72 11 0
6 -69 11 -182 12 l-183 1 140 8 c77 3 157 7 178 8 20 0 37 6 37 11 0 8 -50 9
-152 6 -103 -3 -135 -1 -98 4 30 5 97 10 149 12 53 2 96 8 98 13 2 7 -81 10
-254 9 -277 -2 -276 -2 144 22 62 4 101 10 97 16 -4 6 -80 7 -202 2 -109 -4
-194 -4 -191 0 3 3 91 11 195 17 104 6 191 13 193 15 3 2 -3 10 -12 17 -13 9
-50 10 -145 5 -186 -9 -341 -8 -317 2 11 5 106 15 210 23 l190 15 -290 -2
c-257 -2 -282 0 -220 10 39 7 124 13 190 14 116 2 306 15 275 19 -8 1 -102 3
-209 3 -107 1 -186 4 -175 8 10 4 105 11 209 15 243 9 235 8 235 20 0 7 -114
9 -327 7 -180 -1 -325 0 -322 2 3 3 104 10 225 16 120 6 244 14 274 17 l55 7
-42 6 c-22 3 -138 6 -257 5 -119 0 -210 3 -203 6 12 7 279 20 419 21 37 1 68
4 68 8 0 11 -318 22 -460 17 -63 -2 -126 0 -140 4 -19 5 -11 7 30 8 134 3 342
14 415 21 59 5 5 8 -205 10 -307 3 -277 10 113 25 103 4 187 9 185 10 -2 2
-89 5 -193 6 -105 1 -307 7 -450 13 l-260 12 145 7 c83 4 179 3 225 -2 88 -11
491 -2 478 10 -4 4 -134 10 -288 13 -154 3 -296 7 -315 7 -32 1 -33 2 -11 10
14 6 140 7 299 5 202 -4 272 -2 264 6 -7 7 -106 13 -284 18 -150 4 -253 8
-228 10 25 2 52 4 60 5 8 1 89 3 180 4 199 2 203 20 5 22 -96 2 -116 4 -75 9
l55 6 -55 5 c-32 3 2 6 83 7 83 1 137 6 137 12 0 6 -67 11 -177 11 l-178 2
119 8 c128 9 162 18 75 21 l-54 1 55 6 c44 5 21 9 -110 16 l-165 10 200 6
c151 5 203 4 213 -6 10 -9 4 -12 -29 -13 -23 -1 -45 -5 -48 -8 -3 -3 21 -4 55
-2 56 2 64 0 112 -36 29 -21 65 -50 81 -65 15 -14 47 -39 70 -55 28 -19 39
-31 31 -36 -7 -4 4 -10 27 -15 21 -4 56 -18 78 -31 l40 -24 -36 0 c-23 0 -39
-6 -42 -14 -4 -10 -1 -13 8 -10 7 3 19 -4 25 -17 11 -20 10 -21 -14 -17 -15 3
-29 1 -32 -3 -3 -5 6 -9 21 -9 14 0 37 -8 52 -17 23 -16 24 -17 7 -24 -13 -5
-15 -8 -4 -8 17 -1 50 -54 50 -81 0 -10 5 -22 10 -25 6 -3 10 -17 10 -29 0
-13 7 -29 15 -36 8 -7 17 -26 20 -44 11 -59 13 -71 14 -78 1 -5 5 -8 10 -8 5
0 12 24 15 52 4 29 11 57 15 63 5 5 14 27 20 48 7 20 17 37 22 37 5 0 9 8 10
18 0 14 2 14 9 -3 5 -11 9 -14 9 -7 2 23 21 2 21 -23 0 -13 5 -27 10 -30 6 -3
10 -31 10 -61 0 -30 4 -54 9 -54 13 0 20 156 9 197 -10 36 -3 88 10 79 4 -2 8
3 8 12 1 18 11 114 19 170 2 18 8 38 12 45 4 6 8 19 8 27 0 8 14 41 30 74 l30
58 50 -6 c28 -3 113 -13 190 -21 260 -28 341 -41 570 -90 72 -15 174 -43 186
-51 5 -3 39 -9 77 -14 171 -21 305 -71 459 -172 74 -48 189 -133 253 -187 101
-84 170 -116 270 -123 45 -4 66 -13 120 -50 69 -48 192 -124 249 -153 26 -13
53 -16 119 -13 l85 3 29 -75 c16 -41 33 -84 38 -95 29 -68 70 -187 70 -204 0
-55 -60 -51 861 -51 675 0 849 3 849 13 0 6 15 26 33 42 17 17 77 82 131 145
54 63 114 129 132 145 19 17 34 35 34 40 0 6 9 17 20 25 11 8 20 22 20 31 0 9
9 24 20 34 11 10 20 22 20 28 0 5 13 29 30 54 16 24 30 46 30 49 0 3 11 20 25
38 14 18 25 38 25 44 0 6 7 15 16 20 9 5 15 12 15 15 -3 17 13 64 27 80 8 9
12 17 7 17 -4 0 4 15 19 34 14 19 26 38 26 43 0 4 9 14 20 21 11 7 20 16 20
21 0 9 68 81 77 81 3 0 25 15 50 33 l45 32 188 6 c157 4 190 8 204 22 9 9 34
21 55 27 21 5 44 17 51 25 7 8 24 15 37 15 14 0 36 9 50 20 14 11 31 20 38 20
7 0 20 11 28 24 15 22 15 25 1 30 -8 3 -13 10 -10 15 3 5 -9 12 -27 16 l-32 8
30 7 c17 4 26 8 20 9 -19 3 160 61 188 61 16 0 26 4 23 9 -19 29 168 41 623
40 230 -1 384 -5 356 -10 -27 -4 -129 -8 -225 -9 -96 -2 -245 -6 -330 -10
-144 -6 -134 -7 145 -10 260 -2 285 -4 186 -11 -172 -12 -156 -16 54 -14 126
2 171 0 135 -5 -30 -4 -170 -12 -310 -16 -140 -4 -245 -10 -235 -14 11 -4 139
-6 285 -4 290 2 236 -7 -145 -25 l-190 -9 295 1 c314 0 336 0 329 -8 -3 -2
-104 -7 -224 -11 -121 -3 -226 -10 -234 -14 -7 -4 119 -6 280 -4 338 3 275 -9
-106 -21 -354 -11 -357 -24 -5 -19 314 3 338 -7 45 -20 -88 -4 -162 -10 -165
-13 -3 -3 109 -3 248 1 138 3 252 2 252 -3 0 -10 -199 -22 -535 -31 -242 -6
-236 -7 205 -10 469 -3 477 -10 35 -26 -328 -12 -205 -26 193 -22 302 3 401
-5 190 -16 -249 -12 -598 -26 -678 -27 -47 -1 -98 -5 -115 -9 -19 -4 3 -7 60
-6 212 2 848 -4 843 -9 -2 -3 -153 -10 -335 -16 -498 -16 -483 -26 37 -25 411
1 452 0 350 -11 -63 -6 -234 -15 -379 -19 -145 -3 -276 -10 -290 -15 -28 -9
744 -4 794 5 l30 6 -30 -10 c-16 -6 -97 -17 -179 -25 -82 -8 -151 -16 -153
-19 -2 -2 68 -3 157 -2 88 1 160 -2 160 -5 0 -4 12 -10 28 -13 15 -2 -29 -3
-98 0 -80 2 -118 0 -105 -5 14 -7 -10 -10 -80 -12 -85 -1 -93 -3 -50 -9 28 -4
53 -5 58 -3 4 2 7 -1 7 -6 0 -7 -35 -11 -92 -12 -51 -1 -133 -4 -183 -8 -65
-4 12 -9 271 -14 199 -5 378 -5 398 -2 29 6 39 15 57 51 12 23 25 42 29 41 3
-1 23 12 43 30 l37 32 0 4209 0 4210 -22 15 -23 16 23 0 c21 1 22 4 22 91 l0
90 -1597 -2 -1597 -3 -6 -25 c-5 -22 -13 -26 -65 -33 -36 -5 -67 -5 -79 1 -52
25 -72 22 -136 -20 -22 -15 -131 -36 -154 -30 -5 2 -6 -3 -4 -10 28 -76 40
-130 31 -139 -15 -15 -67 -2 -88 21 -16 18 -16 20 -1 35 20 20 21 39 2 32 -8
-3 -22 0 -32 7 -14 11 -16 22 -11 66 4 29 9 55 12 58 4 5 40 8 330 31 64 5
-1208 9 -3047 10 l-3158 1 0 -4800z m5751 4728 c13 -21 -3 -48 -30 -49 -56 -3
-104 20 -95 45 10 25 110 27 125 4z m-155 -15 c-7 -7 -26 7 -26 19 0 6 6 6 15
-2 9 -7 13 -15 11 -17z m-41 7 c3 -5 -3 -10 -15 -10 -12 0 -18 5 -15 10 3 6
10 10 15 10 5 0 12 -4 15 -10z m-65 -14 c0 -2 -7 -7 -16 -10 -8 -3 -12 -2 -9
4 6 10 25 14 25 6z m70 -31 c10 -12 10 -15 -1 -15 -8 0 -27 -11 -43 -25 -22
-19 -32 -22 -37 -13 -4 7 -3 18 3 25 7 9 7 13 -2 13 -10 0 -10 3 0 15 7 8 25
15 40 15 15 0 33 -7 40 -15z m35 5 c3 -6 -1 -7 -9 -4 -18 7 -21 14 -7 14 6 0
13 -4 16 -10z m171 -32 c2 -19 -25 -33 -39 -19 -6 6 -4 15 4 25 17 18 31 16
35 -6z m-4183 -15 c28 -14 29 -17 14 -28 -31 -23 -96 -27 -148 -10 -27 9 -49
20 -49 25 0 4 17 15 38 24 42 18 97 14 145 -11z m3999 -15 c-9 -9 -17 -8 -34
0 -22 12 -22 12 -1 7 12 -3 24 -1 28 5 4 6 10 9 13 5 3 -3 0 -11 -6 -17z
m-205 6 c-3 -3 -12 -4 -19 -1 -8 3 -5 6 6 6 11 1 17 -2 13 -5z m732 -93 c29
-25 20 -40 -22 -39 -57 1 -81 34 -37 51 26 10 36 8 59 -12z m-4439 -142 c0
-17 -27 -39 -47 -39 -30 0 -43 13 -27 28 8 7 14 11 14 8 0 -3 10 -1 23 4 30
12 37 12 37 -1z m75 -57 c2 -31 -22 -98 -32 -89 -7 8 -53 -39 -53 -54 0 -5 -7
-9 -16 -9 -11 0 -14 -5 -10 -16 4 -9 0 -27 -8 -39 -14 -21 -14 -23 4 -18 11 3
25 11 31 19 17 21 45 17 74 -10 32 -30 31 -26 16 -54 -7 -13 -18 -21 -26 -19
-7 3 -17 1 -22 -4 -15 -15 -81 11 -87 35 -6 19 -10 17 -50 -27 -33 -37 -45
-45 -49 -33 -4 9 2 21 12 28 10 7 21 25 25 41 3 15 13 27 21 27 21 0 48 42 32
52 -9 6 -9 10 3 18 12 7 12 12 2 22 -22 22 -13 46 28 75 22 15 40 36 40 45 0
15 49 49 59 41 3 -2 5 -15 6 -31z m5743 -21 c27 -17 -15 -30 -163 -51 -82 -12
-157 -26 -166 -30 -8 -5 -51 -10 -93 -11 -75 -2 -95 5 -96 34 0 6 42 12 64 8
5 -1 3 6 -5 15 -13 16 -10 17 39 10 33 -4 60 -3 74 5 11 6 69 14 127 16 58 3
108 7 110 9 8 7 96 4 109 -5z m-580 -59 c2 -14 -2 -22 -12 -22 -19 0 -29 17
-22 36 8 22 30 12 34 -14z m-250 -20 c3 -17 -2 -22 -17 -22 -16 0 -21 6 -21
24 0 31 34 29 38 -2z m0 -141 c3 -8 -1 -12 -9 -9 -7 2 -15 10 -17 17 -3 8 1
12 9 9 7 -2 15 -10 17 -17z m-5158 -95 c0 -2 -7 -9 -15 -16 -13 -11 -14 -10
-9 4 5 14 24 23 24 12z m5240 -8 c0 -4 -4 -8 -10 -8 -5 0 -10 -7 -10 -15 0 -8
-4 -15 -10 -15 -5 0 -7 7 -4 15 4 9 0 15 -10 15 -9 0 -16 4 -16 9 0 5 14 9 30
9 17 -1 30 -5 30 -10z m-5164 -38 c15 -6 24 -13 22 -16 -8 -8 -58 7 -58 17 0
11 3 11 36 -1z m-162 -19 c-11 -10 -64 -23 -64 -16 0 8 64 34 69 29 3 -2 0 -8
-5 -13z m67 -34 c-10 -9 -11 -8 -5 6 3 10 9 15 12 12 3 -3 0 -11 -7 -18z m183
17 c9 -3 16 -14 16 -23 0 -9 7 -26 15 -38 19 -27 10 -51 -20 -59 -41 -10 -60
-1 -63 31 -2 20 -11 34 -25 40 -36 16 -34 43 5 48 18 2 38 5 45 5 6 1 18 -1
27 -4z m-124 -31 c0 -7 -6 -13 -13 -13 -8 0 -14 6 -14 13 0 8 6 14 14 14 7 0
13 -6 13 -14z m-326 -46 c-16 -18 -31 -34 -32 -37 -2 -3 -12 5 -21 17 -12 15
-32 23 -62 26 l-44 4 47 1 c26 1 50 7 53 13 12 18 49 27 69 17 17 -9 16 -12
-10 -41z m116 23 c0 -5 -12 -10 -27 -10 -22 0 -25 2 -13 10 20 13 40 13 40 0z
m6110 -35 c0 -8 -7 -15 -15 -15 -8 0 -15 7 -15 15 0 8 7 15 15 15 8 0 15 -7
15 -15z m-510 -92 c0 -18 -6 -23 -24 -23 -31 0 -37 17 -18 54 14 28 15 29 28
11 8 -10 14 -29 14 -42z m-5265 -9 c17 6 21 -9 5 -19 -10 -6 -78 43 -79 57 -1
3 7 8 17 10 11 2 21 -6 29 -25 9 -20 18 -27 28 -23z m4109 40 c3 -8 2 -12 -4
-9 -6 3 -10 10 -10 16 0 14 7 11 14 -7z m-4346 -6 c5 -7 13 -32 17 -54 5 -32
3 -43 -9 -47 -8 -3 -18 -1 -22 4 -3 6 -12 2 -21 -10 -8 -12 -20 -21 -26 -21
-12 0 -51 80 -42 88 2 2 23 -5 46 -17 51 -27 69 -13 38 30 -10 15 -19 30 -19
33 0 11 27 6 38 -6z m3920 -24 c-4 -3 -12 5 -18 18 -12 22 -12 22 6 6 10 -10
15 -20 12 -24z m-4021 -94 c-2 -26 -4 -25 -22 11 -16 29 -16 30 4 20 11 -6 19
-20 18 -31z m6003 -10 c0 -15 -47 -106 -79 -155 -15 -22 -33 -52 -40 -67 -15
-28 -41 -38 -41 -15 1 6 16 37 35 67 19 30 49 83 67 118 29 55 58 81 58 52z
m-2993 -97 c-3 -10 -5 -4 -5 12 0 17 2 24 5 18 2 -7 2 -21 0 -30z m-30 -10
c-3 -10 -5 -4 -5 12 0 17 2 24 5 18 2 -7 2 -21 0 -30z m-3456 -67 c89 -27 149
-58 149 -76 0 -16 -5 -17 -41 -9 -23 5 -54 16 -70 24 -15 8 -35 15 -44 15 -17
0 -55 34 -55 50 0 13 6 13 61 -4z m4459 -79 c0 -5 -4 -5 -10 -2 -5 3 -10 14
-10 23 0 15 2 15 10 2 5 -8 10 -19 10 -23z m2746 -13 c-8 -21 -26 -8 -26 19 0
18 2 19 10 7 8 -13 10 -12 11 5 1 18 2 18 6 2 3 -10 2 -25 -1 -33z m-2707 -39
c0 -5 -4 -3 -9 5 -5 8 -9 22 -9 30 0 16 17 -16 18 -35z m1819 17 c2 -7 -3 -12
-12 -12 -9 0 -16 7 -16 16 0 17 22 14 28 -4z m-2068 -22 c0 -5 -4 -10 -10 -10
-5 0 -10 5 -10 10 0 6 5 10 10 10 6 0 10 -4 10 -10z m1910 -30 c0 -5 -4 -10
-10 -10 -5 0 -10 5 -10 10 0 6 5 10 10 10 6 0 10 -4 10 -10z m-2293 -62 c-3
-7 -5 -2 -5 12 0 14 2 19 5 13 2 -7 2 -19 0 -25z m513 11 c0 -6 -4 -7 -10 -4
-5 3 -10 11 -10 16 0 6 5 7 10 4 6 -3 10 -11 10 -16z m37 -16 c-3 -10 -5 -4
-5 12 0 17 2 24 5 18 2 -7 2 -21 0 -30z m-127 17 c0 -5 -4 -10 -10 -10 -5 0
-10 5 -10 10 0 6 5 10 10 10 6 0 10 -4 10 -10z m-2130 -12 c-1 -15 -24 -48
-34 -48 -8 0 -8 45 1 53 11 12 33 8 33 -5z m1777 -20 c-3 -8 -6 -5 -6 6 -1 11
2 17 5 13 3 -3 4 -12 1 -19z m517 4 c2 -4 -4 -13 -15 -20 -11 -7 -19 -8 -19
-2 0 5 5 10 11 10 5 0 7 5 4 10 -3 6 -2 10 4 10 5 0 12 -4 15 -8z m-2564 -103
c5 -46 12 -122 16 -169 3 -47 9 -114 13 -150 12 -97 2 -120 -35 -79 -15 17
-19 40 -22 122 -3 107 7 371 14 364 3 -2 9 -42 14 -88z m2068 46 c-3 -3 -9 2
-12 12 -6 14 -5 15 5 6 7 -7 10 -15 7 -18z m111 -35 c0 -10 -3 -8 -9 5 -12 27
-12 43 0 25 5 -8 9 -22 9 -30z m-236 -10 c3 -11 1 -18 -4 -14 -5 3 -9 12 -9
20 0 20 7 17 13 -6z m-525 -15 c-3 -3 -9 2 -12 12 -6 14 -5 15 5 6 7 -7 10
-15 7 -18z m682 -20 c0 -17 -2 -17 -10 -5 -5 8 -10 24 -10 35 0 17 2 17 10 5
5 -8 10 -24 10 -35z m-4137 -46 c9 -23 24 -36 56 -48 25 -9 46 -23 48 -31 3
-10 2 -11 -4 -3 -5 6 -29 14 -55 17 -60 8 -101 23 -93 36 4 6 11 8 16 5 5 -4
9 8 9 24 0 39 7 39 23 0z m-63 -29 c0 -5 -7 -7 -15 -4 -8 4 -15 8 -15 10 0 2
7 4 15 4 8 0 15 -4 15 -10z m2310 -15 c0 -17 -2 -18 -24 -9 -23 9 -20 24 4 24
11 0 20 -7 20 -15z m-2025 -34 c63 -14 148 -38 175 -49 46 -19 -100 -3 -180
19 -41 12 -77 23 -79 24 -9 9 13 25 27 21 10 -3 35 -9 57 -15z m-115 -102 c39
-8 50 -15 50 -30 0 -16 -6 -19 -36 -17 -19 1 -38 6 -40 10 -3 4 -16 8 -28 8
-15 0 -26 7 -29 20 -6 24 8 25 83 9z m6870 -180 c0 -27 -3 -48 -8 -45 -7 4 -4
96 4 96 2 0 4 -23 4 -51z m-8 -129 c-2 -16 -8 -27 -13 -24 -13 8 -11 42 4 47
6 3 12 6 13 6 0 1 -1 -12 -4 -29z m-4879 -85 c14 -14 35 -160 25 -170 -2 -3
-23 2 -45 11 -40 16 -41 18 -45 65 -1 27 0 49 5 49 4 0 7 11 7 24 0 22 10 33
32 35 4 1 13 -6 21 -14z m-1233 -152 c0 -43 -5 -41 -13 5 -4 18 -2 32 3 32 6
0 10 -16 10 -37z m6163 -22 c3 -16 13 -36 22 -45 15 -14 13 -15 -17 -10 -45 9
-48 14 -35 56 13 41 22 41 30 -1z m-6025 -57 l-3 -39 -5 47 c-3 26 -1 43 3 39
5 -5 7 -26 5 -47z m6904 6 c29 -11 61 -31 71 -45 17 -23 17 -24 -5 -37 -13 -7
-25 -13 -28 -13 -3 0 -15 -6 -28 -13 -26 -15 -94 -12 -99 4 -2 6 8 16 22 24
14 7 25 22 25 33 0 18 -5 19 -70 12 -72 -7 -84 -1 -52 27 35 32 93 35 164 8z
m-7665 -12 c-3 -8 -6 -5 -6 6 -1 11 2 17 5 13 3 -3 4 -12 1 -19z m643 18 c0
-11 -19 -15 -25 -6 -3 5 1 10 9 10 9 0 16 -2 16 -4z m6390 -16 c-8 -5 -24 -9
-35 -9 l-20 0 20 9 c11 5 27 9 35 9 13 1 13 0 0 -9z m-210 -24 c0 -2 -7 -6
-15 -10 -8 -3 -15 -1 -15 4 0 6 7 10 15 10 8 0 15 -2 15 -4z m395 -16 c3 -5
16 -10 28 -10 35 0 48 -14 50 -53 2 -38 19 -49 35 -21 9 16 82 30 82 15 0 -5
-8 -12 -17 -15 -10 -3 51 -4 135 -2 142 3 152 2 152 -16 0 -16 -10 -18 -108
-18 -60 0 -162 -3 -228 -6 l-119 -6 -12 28 c-33 81 -43 107 -43 110 0 9 39 3
45 -6z m-395 -30 c-11 -11 -24 -20 -30 -20 -5 0 -10 -7 -10 -15 0 -16 15 -20
24 -7 4 7 31 8 55 3 2 -1 -2 -7 -8 -15 -9 -11 -9 -15 1 -19 7 -3 2 -6 -12 -7
-14 -1 -40 -4 -59 -6 l-33 -4 7 36 c10 53 26 74 57 74 l28 0 -20 -20z m195 10
c3 -5 15 -10 25 -10 16 0 19 -6 17 -31 -2 -30 -5 -31 -47 -33 -54 -3 -82 10
-70 33 5 9 11 24 14 34 6 18 51 24 61 7z m-7735 -42 c0 -18 -2 -20 -9 -8 -6 8
-7 18 -5 22 9 14 14 9 14 -14z m8170 8 c0 -17 -14 -29 -23 -20 -8 8 3 34 14
34 5 0 9 -6 9 -14z m-7410 -101 c47 -235 70 -389 60 -398 -3 -3 -77 -8 -165
-11 -111 -5 -155 -4 -145 3 10 7 11 11 3 11 -20 0 -15 20 5 21 16 1 16 2 0 6
-27 7 -23 81 7 155 14 34 25 72 25 85 0 14 6 23 15 23 8 0 15 9 15 19 0 10 7
21 15 25 8 3 15 12 15 19 0 7 11 20 25 27 14 7 25 17 25 21 0 4 18 10 40 14
36 6 40 10 41 38 1 19 3 24 5 12 2 -11 9 -42 14 -70z m-793 33 l52 -3 11 -60
c6 -33 13 -71 15 -85 3 -14 18 -99 34 -190 17 -91 30 -179 31 -195 l0 -31 -69
-2 -68 -3 -32 168 c-43 221 -70 363 -76 389 -4 18 -1 21 23 18 15 -2 50 -5 79
-6z m2672 -97 c1 -17 -3 -22 -15 -17 -9 3 -19 6 -24 6 -4 0 -6 9 -3 20 3 11 9
20 14 20 5 0 8 3 8 8 -1 4 -1 12 1 17 3 16 19 -28 19 -54z m202 -182 c16 -16
18 -24 9 -32 -8 -9 -14 -8 -21 6 -7 11 -22 17 -46 17 -30 0 -34 2 -23 15 18
21 56 19 81 -6z m-1545 -30 c1 -8 2 -20 3 -26 0 -7 9 -13 18 -13 33 0 3 -12
-41 -16 l-46 -4 0 36 c0 28 3 35 15 31 8 -4 17 -2 21 4 8 14 29 6 30 -12z
m1474 -54 c30 -8 67 -15 83 -15 48 0 29 -17 -25 -23 -36 -3 -60 -1 -75 9 -12
8 -28 14 -35 14 -9 0 -9 -3 2 -10 21 -13 12 -17 -52 -25 -72 -9 -76 5 -10 39
57 30 45 29 112 11z m-430 -15 c0 -5 -5 -10 -11 -10 -5 0 -7 5 -4 10 3 6 8 10
11 10 2 0 4 -4 4 -10z m1280 -745 c0 -26 51 -74 85 -81 44 -8 61 -27 42 -46
-7 -7 -12 -18 -10 -25 2 -6 -5 -18 -17 -26 -14 -10 -18 -20 -14 -33 11 -30 36
-54 48 -47 6 3 8 3 4 -2 -4 -4 -3 -14 3 -22 13 -15 85 -18 94 -3 4 7 13 7 26
0 11 -6 17 -16 13 -21 -3 -6 3 -13 15 -16 39 -10 9 -24 -48 -22 -54 3 -56 2
-52 -22 4 -28 39 -101 53 -110 6 -4 6 -9 1 -12 -14 -9 -61 70 -68 115 -4 21
-13 42 -21 45 -23 9 -24 1 -8 -47 8 -24 17 -71 19 -104 l4 -60 -20 44 c-38 84
-80 214 -74 228 9 25 -33 151 -45 132 -7 -11 -32 60 -45 129 -5 23 -4 31 4 27
6 -4 11 -13 11 -21z m730 0 c10 -12 16 -13 26 -4 11 9 14 8 14 -5 0 -9 -5 -16
-11 -16 -5 0 -7 -5 -3 -11 5 -8 10 -6 16 5 13 23 27 20 50 -9 11 -14 26 -25
34 -25 8 0 14 -7 14 -15 0 -8 11 -17 25 -21 14 -3 25 -11 25 -16 0 -6 -9 -8
-20 -5 -11 3 -18 1 -14 -4 5 -9 -8 -11 -121 -14 -50 -2 -116 10 -135 23 -2 2
2 7 10 13 11 6 12 11 4 17 -6 4 -19 23 -29 42 l-18 35 24 -20 c12 -11 40 -37
61 -58 21 -21 38 -35 38 -32 0 3 9 1 20 -5 16 -9 18 -8 14 5 -4 8 -10 15 -15
15 -5 0 -9 6 -9 13 0 7 -8 17 -19 24 -10 6 -21 21 -24 33 -5 21 -5 21 13 5 18
-16 18 -16 13 4 -3 12 -10 21 -15 21 -5 0 -6 5 -3 10 9 14 21 12 35 -5z m1905
-55 c-3 -5 -11 -10 -16 -10 -6 0 -7 5 -4 10 3 6 11 10 16 10 6 0 7 -4 4 -10z
m-2205 -15 c16 -8 35 -23 42 -33 7 -11 26 -26 42 -34 27 -14 25 -15 -45 -12
-41 2 -105 3 -144 4 -38 1 -64 4 -56 7 15 6 51 40 51 48 0 3 6 12 13 20 16 19
61 19 97 0z m2130 1 c0 -3 -4 -8 -10 -11 -5 -3 -10 -1 -10 4 0 6 5 11 10 11 6
0 10 -2 10 -4z m-367 -13 c-7 -2 -19 -2 -25 0 -7 3 -2 5 12 5 14 0 19 -2 13
-5z m-892 -20 c13 -16 12 -17 -3 -4 -10 7 -18 15 -18 17 0 8 8 3 21 -13z
m1279 -12 c0 -6 -4 -13 -10 -16 -5 -3 -10 1 -10 9 0 9 5 16 10 16 6 0 10 -4
10 -9z m-367 -8 c-7 -2 -19 -2 -25 0 -7 3 -2 5 12 5 14 0 19 -2 13 -5z m-1219
-41 c26 5 35 -5 15 -17 -14 -9 -99 4 -99 15 0 12 44 17 51 6 4 -5 19 -6 33 -4z
m-679 -18 c11 -13 97 -25 89 -12 -3 4 23 5 58 2 l63 -5 -24 20 c-30 27 -17 27
16 1 14 -11 31 -20 38 -20 7 0 23 -11 36 -23 22 -22 30 -23 82 -17 45 5 57 3
53 -7 -3 -7 -1 -13 5 -13 5 0 12 7 15 15 8 19 24 20 24 1 0 -7 9 -16 20 -19
17 -4 20 -2 16 16 -3 12 -3 16 0 10 3 -7 12 -13 19 -13 7 0 15 -5 17 -12 6
-17 28 0 28 22 0 10 5 22 10 25 10 6 134 -9 174 -22 20 -5 20 -6 0 -20 -19
-14 -19 -15 1 -11 16 2 21 -3 23 -29 3 -28 0 -33 -20 -34 -21 -1 -21 -2 -3 -7
l20 -5 -20 -8 c-18 -7 -17 -8 6 -8 15 -1 29 -7 32 -15 6 -15 117 -28 117 -13
0 4 -25 7 -55 7 -30 0 -55 5 -55 10 0 6 15 10 33 10 24 0 28 3 17 10 -11 7 -7
10 18 10 17 0 32 -4 32 -9 0 -23 219 -31 385 -15 l89 9 -26 17 c-19 13 -26 24
-23 40 3 12 -1 26 -8 31 -7 5 3 5 23 1 19 -4 62 -9 95 -11 33 -2 65 -4 70 -5
6 0 29 5 53 11 23 7 47 9 52 6 6 -3 10 -1 10 6 0 6 8 9 20 6 11 -3 20 -2 20 1
0 4 25 8 56 9 31 1 62 7 70 14 7 6 27 9 44 7 28 -4 29 -3 14 13 -25 28 -4 32
61 10 29 -9 29 -9 4 -10 -34 -1 -41 -10 -24 -28 8 -8 15 -19 15 -24 0 -18
-144 -155 -195 -186 -65 -40 -139 -63 -228 -73 -67 -7 -64 -7 48 -8 66 0 146
3 178 7 38 5 57 4 57 -3 0 -6 -22 -33 -48 -61 -26 -27 -59 -66 -72 -85 -55
-81 -142 -180 -152 -174 -7 4 -8 2 -4 -4 4 -7 -11 -24 -36 -42 -24 -17 -58
-43 -77 -58 -18 -15 -40 -26 -48 -25 -9 0 -12 -5 -8 -15 5 -13 4 -14 -6 -5
-13 13 -49 -7 -98 -54 -13 -13 -33 -23 -45 -23 -18 0 -16 4 14 29 84 70 95 81
79 81 -9 0 -34 -13 -55 -28 -43 -31 -158 -93 -217 -116 -34 -14 -44 -14 -100
0 -34 9 -64 20 -67 24 -3 4 -29 13 -58 20 -28 6 -55 16 -58 21 -3 5 -14 9 -25
9 -11 0 -22 7 -25 15 -4 8 -14 15 -24 15 -10 0 -20 5 -22 11 -5 14 -88 25 -88
11 0 -12 89 -102 101 -102 12 0 113 -63 117 -72 2 -4 11 -8 20 -8 30 0 92 -26
85 -35 -5 -4 1 -5 12 0 11 4 43 11 70 15 77 10 132 30 167 62 31 28 52 33 82
22 24 -9 19 -49 -8 -70 -14 -10 -22 -22 -20 -26 3 -5 2 -8 -3 -6 -16 4 -83
-36 -79 -48 2 -6 -1 -11 -7 -11 -34 1 -48 -4 -41 -14 4 -8 -1 -9 -16 -4 -14 4
-20 3 -16 -3 9 -14 -55 -22 -190 -22 -114 0 -125 2 -178 29 -32 16 -52 31 -44
34 7 2 10 8 6 12 -4 4 -15 2 -25 -6 -9 -8 -14 -9 -10 -2 4 7 -4 23 -18 37 -14
14 -25 32 -25 41 0 8 -7 15 -15 15 -15 0 -15 12 2 72 3 13 -4 21 -22 28 -14 5
-23 14 -20 20 3 5 -1 10 -9 10 -9 0 -16 8 -16 19 0 16 -10 21 -46 27 -32 5
-49 3 -54 -6 -6 -9 -9 -9 -15 0 -4 7 -1 16 6 21 11 7 11 9 -2 9 -32 0 -127
136 -131 188 -1 15 -9 33 -16 41 -12 13 -12 16 2 27 13 9 14 17 6 38 -5 14
-14 26 -20 26 -6 0 -9 4 -6 9 3 5 -4 11 -15 14 -12 3 -18 10 -14 16 3 6 1 11
-4 11 -6 0 -11 5 -11 10 0 7 24 8 65 5 65 -6 84 4 47 24 -32 17 -132 114 -132
127 0 8 -5 14 -11 14 -5 0 -8 4 -5 9 3 4 -3 16 -14 26 -15 13 -17 22 -10 41 7
19 6 24 -5 24 -20 0 -19 39 0 46 19 8 20 34 1 34 -8 0 -16 -3 -19 -7 -2 -5 -2
-2 0 5 2 9 -3 11 -17 7 -10 -3 -36 -3 -56 1 -29 5 -33 9 -20 16 9 5 14 14 10
19 -9 15 69 -1 81 -17z m2195 6 c0 -5 -4 -10 -10 -10 -5 0 -10 5 -10 10 0 6 5
10 10 10 6 0 10 -4 10 -10z m-1440 -10 c8 -5 11 -10 5 -10 -5 0 -17 5 -25 10
-8 5 -10 10 -5 10 6 0 17 -5 25 -10z m1357 4 c-3 -3 -12 -4 -19 -1 -8 3 -5 6
6 6 11 1 17 -2 13 -5z m109 -32 c-15 -15 -15 -15 -4 10 7 15 15 23 17 17 2 -6
-4 -18 -13 -27z m-1176 13 l25 -15 -30 6 c-33 7 -58 24 -34 24 7 -1 25 -7 39
-15z m65 -15 c8 -13 -5 -13 -25 0 -13 8 -13 10 2 10 9 0 20 -4 23 -10z m202 4
c-3 -3 -12 -4 -19 -1 -8 3 -5 6 6 6 11 1 17 -2 13 -5z m588 -13 c3 -5 1 -12
-4 -15 -5 -3 -11 1 -15 9 -6 16 9 21 19 6z m-1975 -11 c0 -5 -7 -10 -16 -10
-8 0 -12 5 -9 10 3 6 10 10 16 10 5 0 9 -4 9 -10z m2245 0 c-3 -5 -14 -10 -23
-9 -14 0 -13 2 3 9 27 11 27 11 20 0z m-1095 -14 c26 -3 35 -8 35 -22 0 -10
11 -24 25 -31 22 -11 23 -13 5 -14 l-20 0 20 -9 c11 -5 14 -9 7 -9 -7 -1 -10
-5 -7 -11 7 -11 -147 -14 -158 -3 -4 3 -22 7 -39 8 -62 4 -129 45 -73 45 14 0
28 -7 31 -15 4 -8 10 -12 15 -9 6 3 17 0 25 -7 21 -17 26 -6 8 19 -10 15 -30
23 -64 28 -79 10 -70 30 12 26 43 -2 68 0 64 6 -5 9 9 8 114 -2z m1161 0 c-7
-8 -28 -17 -49 -20 -85 -15 -95 -18 -82 -26 7 -5 19 -6 26 -3 6 2 14 0 18 -5
3 -5 -9 -8 -27 -7 -24 2 -37 -4 -54 -24 -11 -14 -24 -23 -27 -20 -4 3 11 25
31 48 33 36 45 43 91 48 28 3 52 10 52 14 0 5 7 9 16 9 13 0 14 -3 5 -14z
m-1073 -26 c-7 -11 -18 -20 -25 -20 -7 0 -13 9 -13 20 0 15 7 20 25 20 23 0
24 -2 13 -20z m-5038 -36 c0 -2 -9 -4 -21 -4 -11 0 -18 4 -14 10 5 8 35 3 35
-6z m5127 -3 c10 -17 8 -20 -15 -24 -15 -3 -31 -1 -37 4 -7 7 -4 8 8 4 13 -6
17 -2 17 14 0 26 11 27 27 2z m-444 -14 c3 -7 -6 -13 -22 -13 -14 -1 -21 1
-14 3 7 2 9 11 6 19 -3 10 0 12 10 8 9 -3 17 -11 20 -17z m-4643 4 c0 -5 -7
-12 -16 -15 -14 -5 -15 -4 -4 9 14 17 20 19 20 6z m950 -22 c0 -5 -19 -9 -42
-9 -44 0 -43 15 2 22 29 5 40 1 40 -13z m5009 -6 c-41 -52 -44 -53 -89 -52
l-45 1 51 16 c28 10 59 25 68 35 22 22 33 22 15 0z m-121 -12 c-45 -36 -238
-100 -238 -80 0 5 7 9 15 9 8 0 45 14 82 31 37 17 82 38 98 45 17 7 38 14 49
14 16 0 15 -3 -6 -19z m-5964 3 c13 -5 14 -9 5 -20 -14 -17 -43 -18 -72 -2
-21 11 -21 11 -2 19 25 10 49 11 69 3z m66 -14 c0 -21 -15 -27 -25 -10 -7 12
2 30 16 30 5 0 9 -9 9 -20z m25 10 c3 -5 1 -10 -4 -10 -6 0 -11 5 -11 10 0 6
2 10 4 10 3 0 8 -4 11 -10z m409 -11 c-11 -3 -75 -12 -144 -18 -69 -6 -140
-14 -157 -17 -27 -4 -33 -2 -33 14 0 10 2 21 4 23 2 2 82 4 176 5 95 0 164 -3
154 -7z m99 4 c-7 -2 -21 -2 -30 0 -10 3 -4 5 12 5 17 0 24 -2 18 -5z m5292
-58 c-69 -29 -68 -28 -59 -14 9 16 65 38 94 38 17 0 6 -7 -35 -24z m1881 5 c9
0 12 -5 8 -12 -5 -8 0 -9 15 -5 17 4 20 3 11 -7 -8 -10 -5 -12 14 -9 15 3 38
-4 62 -21 27 -18 45 -24 63 -19 31 7 26 0 -14 -21 -27 -14 -26 -15 41 -11 41
3 63 1 55 -4 -11 -7 -10 -11 6 -20 24 -12 36 -48 19 -55 -6 -2 -3 -5 7 -5 10
-1 36 -16 57 -33 36 -30 40 -38 40 -80 0 -44 2 -48 25 -48 20 0 25 5 25 25 0
14 4 25 10 25 20 0 30 -41 30 -122 0 -72 -3 -86 -20 -98 -11 -8 -20 -20 -20
-26 0 -6 -18 -14 -40 -18 -22 -3 -40 -11 -40 -16 0 -6 -18 -10 -40 -10 -45 0
-52 -16 -20 -45 11 -10 20 -22 20 -27 0 -13 -38 -9 -43 5 -3 6 -6 2 -6 -10 -1
-12 15 -39 34 -60 29 -31 37 -35 45 -23 8 12 10 11 10 -7 0 -13 8 -24 20 -28
11 -3 23 -18 26 -33 10 -39 15 -46 25 -31 7 11 9 10 9 -3 0 -10 4 -18 8 -18
15 0 9 -34 -8 -52 -16 -18 -18 -17 -38 1 -12 10 -22 23 -22 29 0 6 -3 12 -7
14 -18 8 -113 131 -113 146 0 15 2 15 10 2 8 -13 10 -13 10 2 0 9 -7 24 -15
32 -12 12 -13 20 -5 35 5 11 9 32 9 48 -2 23 -2 24 -6 6 -5 -28 -23 -30 -23
-3 0 11 -5 20 -10 20 -6 0 -8 -10 -6 -22 14 -68 16 -92 6 -78 -5 8 -10 24 -10
36 0 11 -4 24 -9 30 -5 5 -19 36 -31 69 -43 117 -47 125 -51 121 -3 -3 -18 30
-33 72 -27 73 -42 108 -122 280 -36 77 -41 93 -22 74 18 -18 32 -14 17 5 -12
15 -12 16 4 10 10 -4 25 -7 33 -7z m-3949 -52 c-3 -8 -6 -5 -6 6 -1 11 2 17 5
13 3 -3 4 -12 1 -19z m116 5 c-5 -12 -3 -14 7 -8 8 5 11 4 7 -3 -8 -11 -47 -5
-47 8 0 8 16 17 32 19 4 1 4 -6 1 -16z m4388 -200 c13 -16 12 -17 -3 -4 -10 7
-18 15 -18 17 0 8 8 3 21 -13z m-84 -9 c-3 -3 -12 -4 -19 -1 -8 3 -5 6 6 6 11
1 17 -2 13 -5z m63 -84 c0 -5 -5 -10 -11 -10 -5 0 -7 5 -4 10 3 6 8 10 11 10
2 0 4 -4 4 -10z m-3140 -310 c0 -5 -8 -10 -17 -10 -15 0 -16 2 -3 10 19 12 20
12 20 0z m0 -30 c0 -5 -2 -10 -4 -10 -3 0 -8 5 -11 10 -3 6 -1 10 4 10 6 0 11
-4 11 -10z m-3536 -129 c-37 -70 -84 -129 -68 -85 13 33 96 165 101 160 3 -2
-12 -36 -33 -75z m-189 -1096 l50 -14 -65 7 c-138 15 -368 6 -555 -22 -99 -15
-207 -34 -240 -42 -119 -30 -291 -87 -347 -115 -32 -16 -58 -25 -58 -21 0 12
148 75 260 111 142 47 466 102 665 115 96 6 236 -3 290 -19z m5327 3 c-7 -7
-12 -8 -12 -2 0 14 12 26 19 19 2 -3 -1 -11 -7 -17z m49 -30 c8 -15 8 -18 0
-14 -6 4 -16 16 -22 28 -8 15 -8 18 0 14 6 -4 16 -16 22 -28z m-64 -25 c-3
-10 -5 -4 -5 12 0 17 2 24 5 18 2 -7 2 -21 0 -30z m-5887 -13 c0 -5 -7 -10
-15 -10 -8 0 -15 5 -15 10 0 6 7 10 15 10 8 0 15 -4 15 -10z m5932 -22 c-7 -7
-12 -8 -12 -2 0 14 12 26 19 19 2 -3 -1 -11 -7 -17z m-50 -23 c3 -13 1 -22 -3
-19 -9 5 -13 44 -5 44 2 0 6 -11 8 -25z m-27 -71 c-4 -43 -15 -58 -15 -21 0
24 9 57 15 57 2 0 2 -16 0 -36z m-3818 -65 c7 -16 8 -31 2 -40 -6 -10 -9 -7
-9 12 0 14 -5 30 -12 37 -6 6 -13 22 -15 34 -3 22 -3 22 10 3 7 -11 18 -32 24
-46z m3840 9 c-3 -7 -5 -2 -5 12 0 14 2 19 5 13 2 -7 2 -19 0 -25z m-5317 -15
c0 -14 -271 -112 -310 -112 -14 0 20 15 75 33 55 19 125 45 155 59 58 27 80
32 80 20z m1294 -29 c9 -3 16 -12 16 -20 0 -7 8 -18 18 -23 37 -20 181 -291
147 -278 -8 4 -15 2 -15 -3 0 -5 8 -11 18 -14 10 -4 19 -12 20 -19 1 -6 4 -24
8 -39 4 -18 1 -36 -10 -53 -9 -13 -16 -27 -16 -30 0 -11 29 -4 33 8 2 6 7 -8
12 -32 6 -36 4 -47 -9 -56 -21 -16 -22 -75 -1 -75 12 0 15 -15 15 -76 l0 -76
-22 16 c-13 9 -34 21 -47 26 -22 10 -22 11 -7 35 9 13 16 36 16 51 0 24 -2 25
-37 21 -52 -7 -92 27 -96 81 -1 21 -12 51 -23 67 -20 27 -23 28 -38 13 -9 -9
-20 -27 -24 -39 -8 -21 -10 -20 -30 15 -12 20 -28 39 -37 42 -11 5 -12 11 -4
25 5 11 7 24 4 29 -3 6 5 10 19 10 32 0 33 13 2 37 -19 15 -22 25 -18 53 5 33
4 34 -13 20 -16 -13 -19 -12 -33 8 -30 46 -58 11 -31 -40 9 -17 9 -20 -3 -16
-7 3 -24 -3 -37 -13 -23 -19 -23 -20 -5 -34 10 -8 29 -15 41 -15 14 0 24 -9
32 -30 9 -27 8 -30 -10 -30 -15 0 -19 -7 -19 -35 0 -46 16 -78 48 -98 17 -10
21 -17 12 -17 -9 0 -26 8 -40 17 -14 10 -42 16 -69 16 -25 -1 -37 1 -25 4 33
7 47 43 39 102 -6 47 -9 51 -28 45 -36 -10 -67 -33 -67 -49 0 -8 -7 -15 -16
-15 -13 0 -15 7 -10 34 4 20 2 37 -4 41 -6 4 -10 -6 -10 -25 0 -34 -16 -37
-34 -7 -8 13 -7 20 4 27 10 7 11 10 2 10 -10 0 -9 5 2 23 34 52 27 147 -10
147 -14 0 -14 3 -4 16 12 13 10 14 -16 3 -16 -7 -33 -17 -39 -22 -7 -7 -6 -7
3 -3 6 4 12 3 12 -2 0 -5 -13 -12 -30 -14 -38 -6 -38 3 -1 25 16 9 52 35 81
56 30 22 57 38 62 35 5 -3 21 5 36 18 15 13 54 34 87 48 33 14 85 37 115 52
62 30 63 30 84 22z m-1634 -94 c0 -5 -5 -10 -11 -10 -5 0 -7 5 -4 10 3 6 8 10
11 10 2 0 4 -4 4 -10z m-45 -10 c-46 -18 -135 -40 -186 -45 l-54 -5 55 19 c31
11 69 20 85 20 17 0 44 4 60 9 37 12 68 14 40 2z m-95 -55 c0 -13 -65 -36 -93
-33 -31 3 -30 4 18 20 53 17 75 21 75 13z m-667 -12 c-7 -2 -19 -2 -25 0 -7 3
-2 5 12 5 14 0 19 -2 13 -5z m222 -14 c27 -8 26 -8 -10 -4 -22 3 -73 5 -112 5
-40 0 -73 4 -73 8 0 11 154 3 195 -9z m455 -15 c0 -8 -5 -12 -10 -9 -6 4 -8
11 -5 16 9 14 15 11 15 -7z m7690 -24 c-13 -8 -13 -10 0 -10 10 0 9 -4 -5 -14
-26 -18 -102 -25 -137 -13 -42 14 -35 31 10 24 23 -4 32 -3 23 3 -15 9 15 15
89 18 26 1 31 -1 20 -8z m-7890 -10 c0 -5 -5 -10 -11 -10 -5 0 -7 5 -4 10 3 6
8 10 11 10 2 0 4 -4 4 -10z m200 6 c0 -11 -19 -15 -25 -6 -3 5 1 10 9 10 9 0
16 -2 16 -4z m1384 -33 c3 -10 9 -24 12 -30 3 -7 2 -13 -4 -13 -7 0 -32 42
-32 55 0 13 18 3 24 -12z m-1737 -8 c23 -4 52 -15 64 -26 12 -10 28 -19 36
-19 7 0 13 -9 13 -21 0 -16 4 -19 20 -14 15 5 20 2 20 -14 0 -11 7 -26 15 -35
8 -8 15 -22 15 -30 0 -9 5 -16 10 -16 7 0 7 -6 0 -20 -9 -16 -8 -20 5 -20 19
0 19 -5 -1 -35 -16 -25 -16 -25 17 -25 19 0 51 4 71 9 29 7 43 5 68 -10 17
-11 36 -19 43 -19 7 0 32 -9 55 -20 22 -11 59 -20 82 -20 54 0 122 -22 116
-37 -3 -7 1 -10 10 -6 7 3 14 9 14 14 0 9 40 -9 50 -23 3 -4 29 -8 58 -9 43
-2 55 2 71 20 11 13 17 29 14 37 -6 16 12 19 22 4 3 -5 20 -10 36 -10 20 0 29
-4 26 -12 -2 -7 3 -18 12 -25 14 -11 13 -12 -6 -13 -39 0 -25 -16 24 -27 36
-9 50 -8 55 0 5 8 8 6 8 -6 0 -10 3 -16 8 -13 4 2 16 -3 27 -11 19 -14 18 -15
-15 -9 l-35 7 35 -21 35 -21 -40 6 c-94 14 -164 13 -170 -3 -4 -12 -8 -13 -17
-4 -16 16 -28 15 -28 -3 0 -21 -30 -19 -31 3 0 9 -3 12 -5 5 -8 -18 16 -55 31
-49 16 6 24 -26 19 -74 -9 -87 -17 -126 -25 -134 -5 -6 -9 -19 -9 -30 0 -17
-2 -18 -10 -6 -8 13 -10 13 -10 -2 0 -26 -22 -68 -35 -68 -7 0 -15 -9 -18 -21
-3 -12 -10 -18 -16 -14 -6 3 -11 2 -11 -3 0 -11 -47 -27 -67 -23 -7 1 -13 -3
-13 -9 0 -18 -37 -11 -43 9 -2 11 -21 24 -43 31 -21 7 -45 19 -52 27 -8 7 -18
11 -23 8 -5 -4 -9 5 -9 19 0 30 -31 66 -57 67 -13 0 -11 3 7 11 25 11 25 11 3
15 -33 6 -28 23 7 23 28 0 100 51 100 71 0 14 -27 10 -33 -5 -8 -21 -81 -28
-119 -12 l-33 14 36 1 c73 2 99 12 99 38 0 20 -3 22 -19 13 -26 -13 -74 -13
-106 2 -33 15 -32 27 3 27 79 1 79 2 22 29 -57 27 -98 32 -139 18 -15 -5 -21
-5 -17 2 3 6 25 13 49 17 23 4 51 14 62 21 18 13 16 14 -21 14 -22 0 -64 -6
-94 -14 -30 -8 -57 -13 -61 -11 -3 2 -24 -3 -48 -11 -43 -14 -67 -11 -55 8 4
6 -9 9 -36 6 l-42 -3 -25 68 c-15 38 -31 67 -39 67 -8 0 -14 6 -14 13 0 7 -9
20 -20 30 -24 20 -25 40 -4 72 15 23 15 29 -1 79 -14 45 -15 57 -4 77 7 13 14
32 16 41 4 26 36 57 53 53 8 -2 34 -6 57 -10z m1604 -18 c-10 -9 -11 -8 -5 6
3 10 9 15 12 12 3 -3 0 -11 -7 -18z m6147 -23 c32 -4 52 -12 52 -19 0 -15 27
-28 41 -20 5 4 19 -3 31 -14 12 -12 28 -21 35 -21 16 0 16 0 -3 -39 -9 -18
-13 -42 -10 -56 3 -13 2 -27 -4 -30 -5 -3 -10 1 -10 9 0 9 -4 16 -10 16 -5 0
-10 -4 -10 -9 0 -6 5 -13 10 -16 14 -9 13 -48 -2 -63 -7 -7 -24 -12 -38 -12
-30 0 -71 -26 -69 -43 3 -26 -2 -36 -20 -42 -32 -10 -62 -41 -55 -59 5 -12 0
-16 -19 -16 -16 0 -35 -11 -50 -30 -14 -16 -31 -30 -37 -30 -6 0 -18 -6 -25
-12 -8 -7 -20 -18 -27 -23 -21 -17 -103 -46 -124 -44 -10 1 -34 1 -51 1 -28
-2 -33 -6 -33 -26 0 -20 -7 -24 -42 -31 -24 -4 -58 -8 -77 -9 -27 -1 -38 -8
-51 -31 -11 -19 -24 -29 -34 -27 -11 2 -20 -5 -23 -17 -4 -16 -13 -21 -39 -21
-36 0 -85 -16 -95 -31 -3 -5 -33 -15 -67 -21 -34 -6 -62 -15 -62 -20 0 -11
-38 -10 -45 2 -3 6 -19 10 -35 10 -22 0 -29 6 -35 28 -17 71 -134 207 -223
259 -37 22 -42 28 -27 31 11 2 29 7 40 11 11 5 58 20 105 34 192 58 252 78
283 97 37 23 60 27 31 5 -29 -22 -6 -18 33 6 26 16 37 19 46 10 6 -6 18 -11
26 -11 10 0 5 7 -12 19 l-28 18 25 17 c14 9 30 16 36 16 5 0 10 5 10 11 0 7
10 9 28 5 17 -4 22 -3 14 2 -18 12 111 74 135 65 11 -4 14 -3 9 5 -4 7 -1 12
8 12 9 0 16 -5 16 -10 0 -6 6 -5 14 2 8 7 12 16 9 20 -7 12 104 59 122 52 10
-4 15 -2 13 6 -2 7 3 15 11 18 8 3 11 0 7 -7 -9 -15 17 -14 32 1 6 6 25 11 42
10 32 -1 62 32 37 41 -12 5 83 11 133 9 23 -1 23 -1 5 8 -11 5 -36 7 -55 4
-30 -3 -32 -2 -10 5 14 5 34 8 45 5 11 -2 44 -7 73 -10z m-6018 -34 c-6 -11
-13 -20 -15 -20 -3 0 -5 9 -5 20 0 11 7 20 15 20 13 0 14 -4 5 -20z m-250 -95
c-7 -9 -15 -13 -17 -11 -7 7 7 26 19 26 6 0 6 -6 -2 -15z m35 -19 c0 -18 -3
-22 -12 -14 -6 5 -9 16 -6 24 8 22 18 17 18 -10z m5005 10 c0 -3 -4 -8 -10
-11 -5 -3 -10 -1 -10 4 0 6 5 11 10 11 6 0 10 -2 10 -4z m-78 -38 c-7 -7 -12
-8 -12 -2 0 14 12 26 19 19 2 -3 -1 -11 -7 -17z m-6147 2 c-3 -5 -12 -10 -18
-10 -7 0 -6 4 3 10 19 12 23 12 15 0z m1355 -10 c0 -7 13 -8 35 -4 38 7 52
-14 15 -23 -11 -3 -18 -8 -16 -12 2 -3 -16 -4 -40 -3 l-43 4 17 24 c18 25 32
31 32 14z m4887 -37 c1 -33 -1 -35 -9 -16 -9 19 -6 53 5 53 2 0 3 -17 4 -37z
m-4794 -23 c9 -11 13 -20 8 -20 -4 0 -16 9 -26 20 -10 11 -14 20 -9 20 5 0 17
-9 27 -20z m862 -30 c3 -5 1 -10 -4 -10 -6 0 -11 5 -11 10 0 6 2 10 4 10 3 0
8 -4 11 -10z m-25 -21 c0 -7 11 -9 30 -6 16 4 32 2 35 -2 5 -9 -54 -20 -74
-13 -14 5 -15 32 -1 32 6 0 10 -5 10 -11z m-1109 -55 c5 -15 8 -29 5 -31 -2
-2 -8 10 -14 26 -13 38 -5 41 9 5z m281 -36 c4 -26 -1 -33 -34 -55 -21 -14
-40 -24 -43 -21 -4 3 7 53 19 93 2 6 15 11 29 11 21 2 26 -3 29 -28z m108 22
c0 -5 -5 -10 -11 -10 -5 0 -7 5 -4 10 3 6 8 10 11 10 2 0 4 -4 4 -10z m770
-34 c0 5 4 4 8 -3 5 -8 16 -8 45 2 34 11 51 5 27 -10 -6 -4 -8 -11 -4 -16 3
-6 -3 -13 -15 -16 -12 -3 -21 -10 -21 -16 0 -18 -90 -98 -102 -91 -9 6 -9 9 0
12 7 2 10 8 6 13 -3 5 2 9 10 9 10 0 16 9 16 25 0 14 -5 24 -12 23 -17 -4 -21
32 -8 66 10 28 11 28 30 11 11 -10 20 -14 20 -9z m-1126 -28 c6 -5 1 -8 -11
-8 -25 0 -26 1 -16 26 5 14 8 15 11 3 3 -7 10 -17 16 -21z m-299 -17 c-3 -12
-11 -21 -16 -21 -5 0 -9 -5 -9 -11 0 -5 5 -7 10 -4 6 3 10 0 9 -7 -1 -18 -17
-56 -18 -42 -1 6 -12 27 -26 47 -13 20 -20 39 -15 42 6 4 10 1 10 -4 0 -18 29
-12 42 9 15 24 22 19 13 -9z m245 4 c-7 -9 -15 -13 -17 -11 -7 7 7 26 19 26 6
0 6 -6 -2 -15z m-43 -17 c-3 -8 -6 -5 -6 6 -1 11 2 17 5 13 3 -3 4 -12 1 -19z
m580 -28 c4 0 15 5 23 10 13 8 12 10 -2 10 -10 0 -18 5 -18 11 0 8 13 9 42 5
53 -9 61 -14 55 -37 -3 -11 -1 -17 4 -13 5 3 9 1 9 -4 0 -16 -13 -22 -26 -11
-16 13 -48 4 -39 -11 3 -5 15 -10 27 -10 14 0 18 -5 14 -16 -3 -9 -6 -18 -6
-20 0 -2 -9 -4 -20 -4 -11 0 -20 7 -20 15 0 8 -7 15 -16 15 -14 0 -14 3 -4 15
7 9 10 19 6 23 -8 7 -13 8 -41 11 -8 0 -15 9 -15 18 0 14 -3 14 -20 -5 -14
-15 -20 -35 -20 -68 l0 -47 -23 21 c-13 12 -31 22 -40 22 -22 0 -25 10 -15 48
9 33 10 33 51 28 23 -3 36 -3 30 0 -22 10 -14 23 15 26 18 2 29 -3 34 -14 4
-10 11 -18 15 -18z m146 -4 c4 -10 1 -13 -8 -9 -8 3 -12 9 -9 14 7 12 11 11
17 -5z m-1936 -2 c-3 -3 -12 -4 -19 -1 -8 3 -5 6 6 6 11 1 17 -2 13 -5z m2616
0 c4 -4 -3 -20 -15 -36 -25 -36 -45 -24 -27 15 12 26 29 34 42 21z m2817 -40
c34 -12 74 -15 160 -12 63 1 187 2 276 2 153 -1 162 -3 200 -26 51 -33 90 -78
124 -143 39 -75 47 -128 24 -171 -10 -19 -21 -34 -25 -34 -4 0 -25 -18 -47
-41 -35 -35 -44 -39 -61 -29 -16 8 -21 8 -21 -2 0 -8 -9 -20 -20 -28 -11 -8
-20 -20 -20 -27 0 -6 -9 -19 -21 -27 -12 -8 -19 -18 -16 -23 3 -5 -4 -18 -15
-28 -24 -20 -88 -38 -88 -24 0 5 -9 9 -21 9 -15 0 -19 5 -15 16 3 8 2 12 -4 9
-6 -3 -10 -14 -10 -24 0 -10 -7 -24 -15 -31 -8 -7 -15 -21 -15 -31 0 -12 -7
-19 -20 -19 -11 0 -20 -4 -20 -9 0 -5 -13 -12 -30 -16 -38 -8 -96 -94 -220
-325 -51 -96 -112 -206 -135 -245 -23 -38 -52 -88 -63 -110 -29 -58 -56 -85
-99 -100 -31 -10 -53 -33 -115 -116 -121 -164 -137 -179 -193 -179 -25 0 -85
11 -133 24 -91 25 -185 42 -165 29 6 -5 -7 -9 -30 -10 -23 -1 -55 -4 -72 -5
-20 -2 -29 1 -27 10 1 6 -5 12 -14 12 -8 0 -12 -4 -9 -10 3 -5 0 -10 -7 -11
-10 0 -10 -2 0 -6 21 -8 13 -25 -9 -18 -30 10 -168 26 -219 26 -27 0 -38 3
-28 7 10 4 -18 7 -62 8 -43 0 -85 5 -92 11 -7 6 -24 14 -38 18 -62 19 -140 59
-128 66 17 11 -18 38 -52 40 -34 2 -73 7 -145 17 l-60 9 55 2 c30 1 115 6 189
10 123 7 135 7 152 -10 12 -12 35 -19 62 -20 73 -2 115 -7 136 -18 11 -6 29
-11 40 -11 12 0 21 -7 21 -15 0 -9 9 -15 24 -15 22 0 23 2 13 25 -13 27 -27
35 -106 62 -52 17 -53 18 -25 24 43 10 382 9 359 0 -23 -10 86 -20 253 -24 70
-2 106 -7 111 -16 5 -8 27 -11 64 -10 59 2 57 2 86 72 6 17 7 27 1 27 -23 0
-9 38 16 44 18 5 24 12 20 22 -3 8 -1 12 4 9 5 -3 12 6 16 21 8 29 -18 89 -42
98 -8 3 -43 29 -79 57 -56 45 -65 57 -65 85 0 46 23 94 65 134 54 52 108 128
99 141 -5 8 -3 9 6 4 10 -6 12 -4 7 8 -4 11 -1 17 8 17 9 0 12 6 8 17 -4 10
-2 14 4 10 12 -8 23 14 23 46 0 18 2 20 11 7 9 -12 10 -11 6 8 -3 12 -1 22 3
22 5 0 15 14 24 30 8 17 10 27 4 24 -6 -4 -6 2 1 15 7 11 14 21 17 21 3 0 2
-6 -2 -12 -5 -7 8 3 27 22 18 20 51 50 73 68 59 51 34 50 -36 -2 -39 -28 -92
-83 -139 -143 -41 -54 -98 -115 -126 -136 -39 -29 -57 -52 -78 -100 -15 -34
-39 -87 -53 -117 -15 -30 -25 -58 -24 -62 2 -9 -91 55 -124 84 -21 18 -25 19
-75 4 -48 -15 -58 -15 -99 -1 -29 10 -54 28 -70 49 -14 19 -28 30 -31 25 -6
-10 -10 28 -11 91 0 32 -6 40 -56 73 l-56 38 61 -3 c50 -2 60 -5 55 -17 -3 -9
26 20 65 64 86 97 174 183 268 260 82 68 83 70 101 147 8 32 22 75 33 96 23
44 123 142 171 167 118 62 258 81 350 49z m-3618 -42 c-7 -2 -10 -8 -6 -13 3
-5 0 -9 -5 -9 -13 0 -13 3 -5 24 3 9 11 13 17 9 8 -5 7 -8 -1 -11z m257 -27
c13 -25 20 -53 17 -61 -5 -14 5 -15 85 -9 88 7 133 16 249 50 46 13 91 15 272
11 236 -5 226 -3 338 -76 51 -33 197 -109 250 -130 61 -25 118 -72 156 -129
21 -31 59 -77 85 -103 25 -26 59 -63 73 -81 27 -34 28 -34 133 -40 58 -3 108
-9 112 -14 18 -27 45 -30 89 -11 59 26 132 21 167 -12 31 -29 31 -37 3 -46
-13 -4 -29 -15 -36 -25 -7 -11 -21 -19 -30 -19 -10 0 -13 3 -6 8 6 4 13 15 17
25 6 15 4 16 -16 6 -12 -7 -32 -23 -44 -36 -20 -21 -30 -23 -130 -24 -118 -1
-191 -10 -268 -32 -40 -12 -62 -12 -105 -4 -67 13 -255 11 -327 -4 -63 -13
-102 -51 -81 -79 7 -9 27 -36 44 -58 20 -26 34 -60 39 -89 4 -27 17 -73 30
-103 12 -30 28 -81 35 -112 11 -55 29 -74 45 -48 12 20 25 9 65 -52 43 -69 54
-107 20 -70 -16 17 -33 22 -78 24 -53 1 -54 1 -17 7 l40 6 -29 28 c-26 25 -28
26 -23 7 4 -16 -1 -24 -19 -32 -39 -18 -28 -33 24 -34 66 -1 92 -7 92 -19 0
-7 -6 -12 -12 -12 -7 0 -49 -8 -93 -17 -100 -22 -136 -15 -196 35 -37 30 -47
46 -46 66 1 14 -4 27 -11 29 -7 1 -8 0 -2 -3 12 -6 13 -33 1 -33 -11 0 -81 69
-81 81 0 4 -16 21 -35 36 -19 15 -35 31 -35 35 0 14 -66 93 -81 96 -20 5 -39
22 -39 36 0 15 -48 36 -83 36 -24 0 -28 -3 -22 -17 3 -10 9 -31 12 -48 3 -16
18 -41 33 -55 15 -14 37 -46 48 -73 15 -34 26 -47 41 -47 12 0 21 -4 21 -10 0
-16 -153 -12 -176 5 -19 14 -19 14 1 15 17 0 16 3 -9 24 -24 19 -30 31 -30 62
0 37 -3 45 -33 79 -7 7 -13 18 -13 23 0 5 -14 20 -31 32 -23 18 -29 29 -24 47
3 13 2 23 -2 22 -24 -4 -33 5 -44 41 -7 22 -18 40 -24 40 -7 0 -16 8 -19 18
-13 34 -31 62 -40 62 -5 0 -15 -8 -22 -17 -12 -16 -13 -14 -14 16 0 28 -3 32
-17 26 -10 -4 -27 -7 -38 -7 -11 1 -23 -4 -28 -11 -5 -8 -7 -7 -5 4 4 20 -53
69 -80 69 -11 0 -39 9 -62 19 -34 15 -48 17 -67 8 -12 -5 -23 -14 -23 -19 0
-4 -9 -8 -21 -8 -11 0 -29 -5 -40 -10 -14 -8 -19 -7 -19 1 0 9 -3 9 -14 0 -11
-9 -15 -7 -19 9 -3 11 -17 24 -32 30 -14 6 -33 17 -41 25 -9 8 -24 15 -35 15
-11 0 -23 8 -26 18 -13 34 -48 72 -63 70 -19 -3 -90 32 -90 44 0 5 -8 8 -17 8
-9 0 -24 6 -32 14 -20 18 -69 28 -76 15 -7 -11 -36 -12 -34 -1 4 22 -3 30 -21
25 -11 -3 -20 -9 -20 -12 0 -13 -45 -6 -56 8 -6 8 -18 11 -28 8 -9 -4 -16 -3
-16 1 0 5 -37 13 -82 19 -93 13 -123 19 -138 28 -6 4 -18 1 -27 -7 -15 -11
-16 -11 -10 4 3 10 2 20 -3 23 -6 4 -10 1 -10 -6 0 -7 -2 -10 -5 -8 -2 3 4 45
14 94 10 50 25 130 32 178 7 53 18 91 25 94 12 4 115 -12 234 -38 25 -5 56 -9
70 -9 14 0 42 -3 63 -6 30 -5 37 -3 37 10 0 9 5 16 11 16 6 0 8 -9 4 -20 -6
-18 -2 -20 39 -20 25 0 46 5 46 10 0 6 -9 10 -20 10 -11 0 -20 4 -20 9 0 5
-10 11 -22 13 -18 2 -24 11 -26 36 -3 27 0 32 19 32 22 0 22 0 3 -15 -18 -13
-17 -14 14 -21 17 -3 32 -13 32 -20 0 -16 35 -54 50 -54 6 0 10 5 10 10 0 6 8
10 18 10 14 0 15 2 2 10 -8 5 -11 12 -8 15 11 11 28 -5 28 -26 0 -15 5 -18 23
-14 29 8 245 11 326 6 l64 -5 3 35 c1 19 0 27 -4 18 -6 -12 -11 -13 -30 -3
-20 10 -21 13 -7 24 8 7 15 19 15 26 0 27 17 13 39 -31z m481 20 c-7 -8 -16
-15 -21 -15 -5 0 -6 7 -3 15 4 8 13 15 21 15 13 0 13 -3 3 -15z m-1180 -45 c0
-5 -4 -10 -10 -10 -5 0 -10 5 -10 10 0 6 5 10 10 10 6 0 10 -4 10 -10z m137
-36 c-3 -3 -12 -4 -19 -1 -8 3 -5 6 6 6 11 1 17 -2 13 -5z m-1132 -243 c-6 -5
-25 10 -25 20 0 5 6 4 14 -3 8 -7 12 -15 11 -17z m-247 -98 c-10 -2 -28 -2
-40 0 -13 2 -5 4 17 4 22 1 32 -1 23 -4z m-145 -10 c-7 -2 -21 -2 -30 0 -10 3
-4 5 12 5 17 0 24 -2 18 -5z m6077 -33 c0 -5 -5 -10 -11 -10 -5 0 -7 5 -4 10
3 6 8 10 11 10 2 0 4 -4 4 -10z m1825 -10 c-11 -5 -36 -8 -55 -8 l-35 1 40 7
c57 10 74 10 50 0z m-1645 -8 c0 -13 -12 -22 -22 -16 -10 6 -1 24 13 24 5 0 9
-4 9 -8z m1639 -36 c-2 -2 -51 -6 -109 -9 -62 -3 -89 -2 -65 2 43 9 181 14
174 7z m-1655 -25 c3 -5 -1 -11 -9 -14 -9 -4 -12 -1 -8 9 6 16 10 17 17 5z
m1426 -71 c-41 -4 -104 -7 -140 -7 -57 0 -60 1 -25 7 22 4 85 7 140 7 l100 0
-75 -7z m40 -30 c-193 -17 -335 -22 -325 -11 10 10 113 16 305 18 l105 0 -85
-7z m4 -30 c-12 -5 -82 -11 -155 -15 -74 -3 -167 -8 -206 -10 -42 -2 -73 0
-73 6 0 5 3 10 8 10 6 1 281 12 412 17 29 1 31 -1 14 -8z m104 3 c-16 -2 -40
-2 -55 0 -16 2 -3 4 27 4 30 0 43 -2 28 -4z m-3579 -19 c33 -4 61 -10 61 -15
0 -4 -43 -9 -95 -11 -64 -2 -95 1 -95 8 0 26 21 29 129 18z m-4986 -11 c-7 -2
-19 -2 -25 0 -7 3 -2 5 12 5 14 0 19 -2 13 -5z m8644 1 c-3 -3 -12 -4 -19 -1
-8 3 -5 6 6 6 11 1 17 -2 13 -5z m-126 -14 c-80 -12 -608 -24 -598 -14 10 11
176 19 447 20 137 1 187 -1 151 -6z m-8130 -19 c-8 -5 -37 -9 -65 -9 -43 1
-46 2 -21 8 45 11 103 12 86 1z m-144 -7 c-3 -3 -12 -4 -19 -1 -8 3 -5 6 6 6
11 1 17 -2 13 -5z m4510 -10 c-3 -3 -12 -4 -19 -1 -8 3 -5 6 6 6 11 1 17 -2
13 -5z m3843 -4 c-30 -4 -192 -11 -360 -14 -168 -4 -338 -9 -377 -13 -50 -3
-73 -2 -73 6 0 6 1 12 3 12 1 1 70 4 152 8 219 9 720 10 655 1z m-8307 -17
c-24 -2 -62 -2 -85 0 -24 2 -5 4 42 4 47 0 66 -2 43 -4z m165 0 c-21 -2 -57
-2 -80 0 -24 2 -7 4 37 4 44 0 63 -2 43 -4z m4362 -13 c11 -7 3 -10 -30 -9
-34 0 -40 2 -25 9 27 12 37 12 55 0z m-4413 -16 c-3 -3 -12 -4 -19 -1 -8 3 -5
6 6 6 11 1 17 -2 13 -5z m100 -12 c-10 -13 -9 -15 5 -9 11 4 28 -3 45 -18 16
-13 22 -25 16 -25 -7 0 -13 4 -13 10 0 5 -15 9 -32 8 -82 -2 -231 3 -226 8 3
3 37 7 74 8 38 2 80 4 94 5 32 1 15 18 -25 24 -16 2 -6 4 22 4 46 0 51 -2 40
-15z m643 -22 c0 -5 -7 -10 -16 -10 -8 0 -12 5 -9 10 3 6 10 10 16 10 5 0 9
-4 9 -10z m3513 -17 c-18 -2 -48 -2 -65 0 -18 2 -4 4 32 4 36 0 50 -2 33 -4z
m78 -10 c13 -16 12 -17 -3 -4 -17 13 -22 21 -14 21 2 0 10 -8 17 -17z m-4628
-10 c-7 -2 -21 -2 -30 0 -10 3 -4 5 12 5 17 0 24 -2 18 -5z m137 -3 c0 -13
-11 -13 -30 0 -12 8 -11 10 8 10 12 0 22 -4 22 -10z m360 -14 c10 -16 9 -18
-4 -13 -9 4 -91 10 -181 13 -91 4 -165 10 -165 13 0 3 76 6 169 6 155 0 170
-2 181 -19z m3761 -38 c43 -15 64 -34 46 -41 -6 -3 -2 -6 10 -6 17 -1 21 -6
18 -28 -1 -15 -7 -29 -13 -31 -6 -2 -9 -9 -6 -17 3 -7 -19 -38 -48 -68 -29
-30 -63 -67 -75 -81 -13 -14 -31 -26 -41 -26 -24 0 -56 35 -46 51 4 7 3 10 -4
5 -6 -4 -28 18 -52 54 -22 33 -36 60 -31 60 5 0 16 -9 24 -21 11 -15 17 -17
23 -8 4 7 2 15 -4 17 -7 2 -12 8 -12 13 0 6 5 7 10 4 6 -3 10 -1 10 6 0 8 -13
10 -40 6 -33 -4 -41 -1 -55 19 -17 26 -19 35 -7 33 14 -2 52 13 52 21 0 4 10
10 23 13 12 3 40 12 62 21 48 18 110 20 156 4z m-4218 -5 c-13 -2 -33 -2 -45
0 -13 2 -3 4 22 4 25 0 35 -2 23 -4z m8515 0 c-10 -2 -28 -2 -40 0 -13 2 -5 4
17 4 22 1 32 -1 23 -4z m59 -69 c-3 -3 -12 -4 -19 -1 -8 3 -5 6 6 6 11 1 17
-2 13 -5z m76 -1 c-7 -2 -19 -2 -25 0 -7 3 -2 5 12 5 14 0 19 -2 13 -5z
m-3473 -13 c0 -5 -5 -10 -11 -10 -5 0 -7 5 -4 10 3 6 8 10 11 10 2 0 4 -4 4
-10z m3353 3 c-7 -2 -19 -2 -25 0 -7 3 -2 5 12 5 14 0 19 -2 13 -5z m-7798
-23 c19 -8 19 -9 -2 -9 -12 -1 -25 4 -28 9 -7 12 2 12 30 0z m4268 -7 c-7 -2
-21 -2 -30 0 -10 3 -4 5 12 5 17 0 24 -2 18 -5z m3625 0 c-10 -2 -26 -2 -35 0
-10 3 -2 5 17 5 19 0 27 -2 18 -5z m-3793 -13 c19 -8 19 -9 -2 -9 -12 -1 -25
4 -28 9 -7 12 2 12 30 0z m-981 -16 c5 -14 4 -15 -9 -4 -17 14 -19 20 -6 20 5
0 12 -7 15 -16z m929 9 c-7 -2 -19 -2 -25 0 -7 3 -2 5 12 5 14 0 19 -2 13 -5z
m432 2 c-23 -8 -125 -11 -113 -4 7 5 38 8 68 8 30 0 51 -2 45 -4z m-3965 -15
c0 -5 -4 -10 -10 -10 -5 0 -10 5 -10 10 0 6 5 10 10 10 6 0 10 -4 10 -10z
m2590 -26 c0 -7 14 -34 31 -59 17 -25 29 -49 26 -51 -3 -3 -14 7 -24 23 -10
15 -24 34 -31 42 -28 29 -43 93 -17 71 8 -7 15 -18 15 -26z m585 26 c-3 -5
-16 -10 -28 -9 -20 1 -20 2 3 9 14 4 26 8 28 9 2 1 0 -3 -3 -9z m98 -17 c-7
-2 -21 -2 -30 0 -10 3 -4 5 12 5 17 0 24 -2 18 -5z m100 0 c-13 -2 -33 -2 -45
0 -13 2 -3 4 22 4 25 0 35 -2 23 -4z m334 -9 c-3 -3 -12 -4 -19 -1 -8 3 -5 6
6 6 11 1 17 -2 13 -5z m56 -1 c-7 -2 -19 -2 -25 0 -7 3 -2 5 12 5 14 0 19 -2
13 -5z m-210 -10 c-7 -2 -19 -2 -25 0 -7 3 -2 5 12 5 14 0 19 -2 13 -5z m90 0
c-7 -2 -21 -2 -30 0 -10 3 -4 5 12 5 17 0 24 -2 18 -5z m-533 -36 c13 -5 13
-6 -1 -6 -8 -1 -24 6 -35 15 -19 15 -19 15 1 6 11 -5 27 -12 35 -15z m4493 16
c-7 -2 -19 -2 -25 0 -7 3 -2 5 12 5 14 0 19 -2 13 -5z m-7683 -12 c0 -5 -7
-11 -15 -15 -15 -5 -20 5 -8 17 9 10 23 9 23 -2z m3145 -11 c3 -6 -1 -7 -9 -4
-18 7 -21 14 -7 14 6 0 13 -4 16 -10z m750 0 c-3 -5 -32 -9 -63 -8 l-57 1 60
7 c33 4 61 7 63 8 2 1 0 -2 -3 -8z m178 3 c-13 -2 -33 -2 -45 0 -13 2 -3 4 22
4 25 0 35 -2 23 -4z m-453 -13 c0 -5 -7 -10 -16 -10 -8 0 -12 5 -9 10 3 6 10
10 16 10 5 0 9 -4 9 -10z m55 0 c-27 -12 -43 -12 -25 0 8 5 22 9 30 9 10 0 8
-3 -5 -9z m-181 -12 c-3 -4 -11 -5 -19 -1 -21 7 -19 12 4 10 11 0 18 -5 15 -9z
m-3449 -8 c-3 -5 -10 -10 -16 -10 -5 0 -9 5 -9 10 0 6 7 10 16 10 8 0 12 -4 9
-10z m3370 0 c3 -5 1 -10 -4 -10 -6 0 -11 5 -11 10 0 6 2 10 4 10 3 0 8 -4 11
-10z m-160 -10 c-3 -5 -25 -9 -48 -9 l-42 2 40 7 c22 4 44 8 48 9 5 0 5 -3 2
-9z m88 3 c-7 -2 -19 -2 -25 0 -7 3 -2 5 12 5 14 0 19 -2 13 -5z m4295 0 c-10
-2 -28 -2 -40 0 -13 2 -5 4 17 4 22 1 32 -1 23 -4z m160 0 c-10 -2 -28 -2 -40
0 -13 2 -5 4 17 4 22 1 32 -1 23 -4z m-7918 -13 c0 -5 -5 -10 -11 -10 -5 0 -7
5 -4 10 3 6 8 10 11 10 2 0 4 -4 4 -10z m3153 -7 c-7 -2 -19 -2 -25 0 -7 3 -2
5 12 5 14 0 19 -2 13 -5z m1017 -52 c20 -6 11 -10 -42 -16 -36 -4 -72 -5 -80
-2 -7 3 -2 6 12 6 14 1 32 6 40 11 17 11 34 11 70 1z m87 -7 c-3 -3 -12 -4
-19 -1 -8 3 -5 6 6 6 11 1 17 -2 13 -5z m3706 -11 c-7 -2 -19 -2 -25 0 -7 3
-2 5 12 5 14 0 19 -2 13 -5z m124 1 c-3 -3 -12 -4 -19 -1 -8 3 -5 6 6 6 11 1
17 -2 13 -5z m45 -6 c-9 -9 -15 -9 -24 0 -9 9 -7 12 12 12 19 0 21 -3 12 -12z
m-8205 -14 c-3 -3 -12 -4 -19 -1 -8 3 -5 6 6 6 11 1 17 -2 13 -5z m4653 -15
c0 -5 -7 -9 -15 -9 -15 0 -20 12 -9 23 8 8 24 -1 24 -14z m-262 -6 c-10 -2
-26 -2 -35 0 -10 3 -2 5 17 5 19 0 27 -2 18 -5z m-108 -9 c-15 -3 -261 -20
-445 -30 -49 -3 -182 -12 -294 -20 -112 -7 -210 -14 -218 -14 -8 0 -11 -4 -8
-10 8 -13 -12 -13 -75 1 -31 7 -49 15 -47 22 3 7 10 11 17 9 7 -2 21 5 31 14
15 14 23 15 46 5 32 -12 292 -8 568 9 94 6 193 12 220 13 71 5 223 5 205 1z
m-5000 -44 c0 -5 -2 -10 -4 -10 -3 0 -8 5 -11 10 -3 6 -1 10 4 10 6 0 11 -4
11 -10z m8638 -7 c-16 -2 -40 -2 -55 0 -16 2 -3 4 27 4 30 0 43 -2 28 -4z
m-3403 -13 c-11 -5 -38 -8 -60 -8 l-40 1 35 7 c19 4 46 8 60 8 23 1 23 0 5 -8z
m72 4 c-3 -3 -12 -4 -19 -1 -8 3 -5 6 6 6 11 1 17 -2 13 -5z m3161 -1 c-10 -2
-26 -2 -35 0 -10 3 -2 5 17 5 19 0 27 -2 18 -5z m-3348 -13 c0 -13 -11 -13
-30 0 -12 8 -11 10 8 10 12 0 22 -4 22 -10z m-125 -10 c-27 -5 -90 -9 -140 -9
-96 -1 -144 -9 -126 -21 7 -3 -3 -7 -21 -7 -18 -1 -89 -6 -158 -11 -69 -6
-199 -16 -290 -22 -91 -6 -201 -13 -244 -17 -59 -4 -77 -3 -72 5 4 7 28 13 54
14 l47 1 -45 6 -45 7 40 6 c90 16 296 21 320 8 17 -9 40 -10 96 -2 l74 11 -85
-4 c-61 -3 -75 -2 -50 4 19 5 94 12 165 16 262 15 411 22 470 22 l60 0 -50 -7z
m-4847 -97 c-10 -2 -26 -2 -35 0 -10 3 -2 5 17 5 19 0 27 -2 18 -5z m65 0 c-7
-2 -21 -2 -30 0 -10 3 -4 5 12 5 17 0 24 -2 18 -5z m85 -50 c-16 -2 -40 -2
-55 0 -16 2 -3 4 27 4 30 0 43 -2 28 -4z m3902 -3 c0 -5 -9 -10 -19 -10 -11 0
-23 5 -26 10 -4 6 5 10 19 10 14 0 26 -4 26 -10z m-3827 -77 c-18 -2 -48 -2
-65 0 -18 2 -4 4 32 4 36 0 50 -2 33 -4z m4192 -74 c5 -5 -5 -4 -23 2 -17 6
-32 13 -32 16 0 7 43 -8 55 -18z m-4032 4 c-18 -2 -48 -2 -65 0 -18 2 -4 4 32
4 36 0 50 -2 33 -4z m247 -87 c0 -6 -22 -11 -50 -13 -49 -3 -72 13 -27 19 42
6 77 3 77 -6z m-20 -45 c34 -6 37 -9 15 -9 -16 -1 -48 3 -70 7 -53 11 -5 12
55 2z m-127 -8 c-7 -2 -19 -2 -25 0 -7 3 -2 5 12 5 14 0 19 -2 13 -5z m442
-233 c-3 -5 -11 -10 -16 -10 -6 0 -7 5 -4 10 3 6 11 10 16 10 6 0 7 -4 4 -10z
m33 -99 c-2 -21 -9 -27 -38 -31 -46 -7 -110 0 -110 11 0 4 6 6 13 3 15 -5 100
30 92 38 -3 3 6 6 20 6 22 0 26 -4 23 -27z"/>
<path d="M1478 6533 c7 -3 16 -2 19 1 4 3 -2 6 -13 5 -11 0 -14 -3 -6 -6z"/>
<path d="M5315 5350 c-28 -7 -27 -8 15 -10 25 -2 52 -2 60 -1 8 2 38 6 65 10
47 8 44 8 -30 8 -44 1 -93 -3 -110 -7z"/>
<path d="M5380 5297 c0 -17 48 -87 60 -87 16 0 20 18 5 24 -8 3 -23 21 -32 41
-17 35 -33 46 -33 22z"/>
<path d="M5488 5213 c6 -2 18 -2 25 0 6 3 1 5 -13 5 -14 0 -19 -2 -12 -5z"/>
<path d="M4888 5203 c6 -2 18 -2 25 0 6 3 1 5 -13 5 -14 0 -19 -2 -12 -5z"/>
<path d="M4775 5189 c-5 -7 5 -8 32 -3 51 9 54 14 10 14 -20 0 -39 -5 -42 -11z"/>
<path d="M4463 5173 c26 -2 67 -2 90 0 23 2 2 3 -48 3 -49 0 -68 -1 -42 -3z"/>
<path d="M4616 5170 c8 -8 27 -8 60 -2 l49 10 -59 1 c-42 1 -57 -2 -50 -9z"/>
<path d="M5409 5162 c-16 -11 -24 -12 -27 -4 -6 19 -19 14 -26 -10 -5 -21 20
-197 30 -207 2 -2 14 8 27 22 27 32 34 33 40 10 3 -10 5 30 6 88 1 117 -6 132
-50 101z"/>
<path d="M4800 5125 c0 -8 -7 -15 -15 -15 -35 0 -2 -134 39 -160 15 -9 21 -10
24 -1 2 6 10 11 18 11 8 0 14 5 14 11 0 11 28 5 74 -17 26 -12 30 -12 41 3 7
9 13 39 13 67 0 40 -5 54 -26 73 -14 12 -39 24 -56 25 -49 2 -54 3 -62 11 -14
14 -64 8 -64 -8z"/>
<path d="M4605 4770 c-3 -5 3 -10 14 -10 12 0 21 5 21 10 0 6 -6 10 -14 10 -8
0 -18 -4 -21 -10z"/>
<path d="M5015 4480 l-30 -8 30 -2 c21 -2 13 -5 -25 -10 l-55 -7 50 -1 c48 -1
116 16 72 17 -10 1 -15 6 -12 11 3 6 5 9 3 9 -2 -1 -16 -5 -33 -9z"/>
<path d="M4818 4453 c12 -2 30 -2 40 0 9 3 -1 5 -23 4 -22 0 -30 -2 -17 -4z"/>
<path d="M4893 4453 c9 -2 23 -2 30 0 6 3 -1 5 -18 5 -16 0 -22 -2 -12 -5z"/>
<path d="M2890 3109 c0 -18 20 -49 32 -49 6 0 3 9 -6 19 -10 11 -15 25 -11 30
3 6 1 11 -4 11 -6 0 -11 -5 -11 -11z"/>
<path d="M2824 3082 c-19 -12 -25 -47 -11 -66 16 -22 67 -15 67 8 0 8 6 17 13
19 6 3 2 6 -10 6 -12 1 -25 5 -28 11 -3 6 1 7 9 4 9 -3 16 -2 16 4 0 18 -37
27 -56 14z"/>
<path d="M2768 3053 c7 -3 16 -2 19 1 4 3 -2 6 -13 5 -11 0 -14 -3 -6 -6z"/>
<path d="M2765 3030 c3 -5 8 -10 11 -10 2 0 4 5 4 10 0 6 -5 10 -11 10 -5 0
-7 -4 -4 -10z"/>
<path d="M2695 3020 c-3 -5 -18 -11 -33 -11 -18 -1 -21 -3 -9 -6 24 -6 67 5
67 17 0 13 -17 13 -25 0z"/>
<path d="M2977 2986 c-4 -10 -1 -13 9 -9 15 6 19 23 5 23 -5 0 -11 -7 -14 -14z"/>
<path d="M2648 2973 c6 -2 18 -2 25 0 6 3 1 5 -13 5 -14 0 -19 -2 -12 -5z"/>
<path d="M2971 2954 c-18 -8 -35 -24 -38 -34 -6 -21 -23 -28 -23 -10 0 12 -61
41 -72 34 -9 -6 2 -65 15 -82 7 -9 7 -16 -1 -24 -7 -7 -12 -17 -12 -23 0 -14
55 -47 64 -38 3 3 6 -3 6 -14 0 -11 11 -30 25 -43 l25 -23 6 32 c5 21 11 30
20 27 17 -7 74 13 74 25 0 14 -32 45 -55 53 -15 6 -17 9 -6 16 13 8 16 39 9
98 -1 12 -2 22 -3 21 0 0 -15 -7 -34 -15z"/>
<path d="M2546 2944 c-4 -9 -4 -19 -1 -22 2 -3 7 3 11 12 4 9 4 19 1 22 -2 3
-7 -3 -11 -12z"/>
<path d="M2890 2949 c0 -5 5 -7 10 -4 6 3 10 8 10 11 0 2 -4 4 -10 4 -5 0 -10
-5 -10 -11z"/>
<path d="M2591 2850 c-1 -53 4 -60 25 -32 17 22 18 49 2 55 -10 4 -10 6 0 6
17 1 5 21 -12 21 -8 0 -13 -17 -15 -50z"/>
<path d="M2578 2773 c-38 -10 -18 -28 29 -27 34 1 48 6 48 15 0 14 -45 21 -77
12z"/>
<path d="M940 2580 c0 -5 5 -10 10 -10 6 0 10 5 10 10 0 6 -4 10 -10 10 -5 0
-10 -4 -10 -10z"/>
<path d="M1365 2500 c3 -5 10 -10 16 -10 5 0 9 5 9 10 0 6 -7 10 -16 10 -8 0
-12 -4 -9 -10z"/>
<path d="M1545 2430 c-4 -6 7 -10 24 -10 17 0 31 5 31 10 0 6 -11 10 -24 10
-14 0 -28 -4 -31 -10z"/>
<path d="M1321 2421 c-54 -4 -86 -10 -89 -18 -5 -16 19 -16 113 -2 39 6 95 14
125 18 l55 8 -60 0 c-33 -1 -98 -3 -144 -6z"/>
<path d="M1721 2416 c10 -10 89 -23 94 -16 3 4 -5 10 -18 14 -26 7 -82 8 -76
2z"/>
<path d="M1325 2380 c-3 -5 -15 -10 -26 -10 -19 0 -19 -1 -5 -22 9 -12 16 -30
16 -40 0 -16 11 -23 33 -19 4 0 7 -4 7 -10 0 -5 15 1 33 14 17 14 37 23 42 21
6 -3 11 5 12 16 1 16 -9 26 -43 41 -52 22 -60 23 -69 9z"/>
<path d="M1230 2319 c0 -5 5 -7 10 -4 6 3 10 8 10 11 0 2 -4 4 -10 4 -5 0 -10
-5 -10 -11z"/>
<path d="M1333 2258 c3 -9 1 -19 -6 -22 -9 -3 -9 -5 0 -5 18 -1 27 19 13 32
-10 9 -12 8 -7 -5z"/>
<path d="M8134 2686 c-10 -8 -16 -18 -12 -21 4 -4 15 0 24 9 21 22 13 30 -12
12z"/>
<path d="M7950 2600 c-13 -9 -12 -12 4 -25 11 -8 25 -15 30 -15 6 1 0 7 -13
14 -23 13 -23 14 -5 24 10 6 15 11 9 12 -5 0 -17 -5 -25 -10z"/>
<path d="M7825 2530 c-3 -5 -1 -10 4 -10 6 0 11 5 11 10 0 6 -2 10 -4 10 -3 0
-8 -4 -11 -10z"/>
<path d="M2490 2390 c0 -5 7 -10 16 -10 8 0 12 5 9 10 -3 6 -10 10 -16 10 -5
0 -9 -4 -9 -10z"/>
<path d="M2673 2315 c0 -8 6 -15 13 -15 20 0 26 17 8 24 -21 8 -21 8 -21 -9z"/>
<path d="M6830 1775 c0 -9 9 -15 25 -15 28 0 34 15 9 24 -25 10 -34 7 -34 -9z"/>
<path d="M6778 1683 c7 -3 16 -2 19 1 4 3 -2 6 -13 5 -11 0 -14 -3 -6 -6z"/>
<path d="M5840 1350 c-9 -6 -10 -10 -3 -10 6 0 15 5 18 10 8 12 4 12 -15 0z"/>
<path d="M5368 743 c7 -3 16 -2 19 1 4 3 -2 6 -13 5 -11 0 -14 -3 -6 -6z"/>
<path d="M4748 703 c7 -3 16 -2 19 1 4 3 -2 6 -13 5 -11 0 -14 -3 -6 -6z"/>
<path d="M4915 630 c27 -12 43 -12 25 0 -8 5 -22 9 -30 9 -10 0 -8 -3 5 -9z"/>
<path d="M5404 586 c30 -17 104 -23 76 -7 -8 5 -35 12 -60 16 l-45 6 29 -15z"/>
<path d="M5515 560 c-3 -6 1 -7 9 -4 18 7 21 14 7 14 -6 0 -13 -4 -16 -10z"/>
<path d="M3813 1892 c-13 -2 -23 -10 -23 -18 0 -18 86 -102 114 -110 26 -8 66
-44 66 -59 0 -15 -35 -47 -43 -39 -3 3 -3 -3 0 -15 8 -32 17 -26 48 32 15 28
29 53 30 55 6 7 67 -34 115 -78 73 -69 110 -90 135 -80 11 5 15 9 9 9 -7 1
-11 14 -10 31 0 16 -1 28 -4 27 -3 -1 -21 8 -40 19 -55 34 -80 39 -81 17 0
-14 -2 -15 -6 -3 -3 8 -11 21 -17 29 -6 7 -11 21 -11 29 0 8 -7 16 -17 17 -19
3 -78 46 -78 57 0 4 -9 8 -20 8 -11 0 -20 4 -20 8 0 9 -58 32 -80 32 -7 0 -20
8 -29 18 -9 9 -26 16 -38 14z"/>
<path d="M2990 1590 c0 -5 5 -10 10 -10 6 0 10 5 10 10 0 6 -4 10 -10 10 -5 0
-10 -4 -10 -10z"/>
<path d="M3520 1367 c0 -14 20 -37 32 -37 16 0 8 25 -12 38 -16 10 -20 10 -20
-1z"/>
<path d="M4036 872 c-5 -9 4 -21 30 -35 7 -4 11 2 10 16 -1 22 -29 36 -40 19z
m34 -12 c0 -5 -4 -10 -10 -10 -5 0 -10 5 -10 10 0 6 5 10 10 10 6 0 10 -4 10
-10z"/>
<path d="M4248 833 c7 -3 16 -2 19 1 4 3 -2 6 -13 5 -11 0 -14 -3 -6 -6z"/>
<path d="M4490 1199 c11 -7 6 -9 -20 -7 -26 2 -35 -1 -35 -12 0 -9 8 -14 20
-13 43 6 111 12 130 13 20 1 20 1 1 15 -11 8 -40 15 -65 15 -35 0 -42 -3 -31
-11z"/>
<path d="M4480 1054 c0 -9 -5 -12 -12 -8 -7 4 -10 3 -5 -1 4 -5 16 -9 27 -10
15 -1 17 2 9 17 -12 22 -19 23 -19 2z"/>
<path d="M5240 790 l-35 -7 38 -2 c20 0 37 4 37 9 0 6 -1 9 -2 9 -2 -1 -19 -5
-38 -9z"/>
<path d="M4755 760 c-34 -6 -36 -7 -10 -8 17 0 48 3 70 7 33 7 35 9 10 8 -16
0 -48 -3 -70 -7z"/>
<path d="M4903 763 c9 -2 23 -2 30 0 6 3 -1 5 -18 5 -16 0 -22 -2 -12 -5z"/>
<path d="M8000 1340 l-165 -6 160 -1 c88 0 174 3 190 7 26 7 26 7 5 7 -14 -1
-99 -4 -190 -7z"/>
<path d="M8113 1293 c9 -2 23 -2 30 0 6 3 -1 5 -18 5 -16 0 -22 -2 -12 -5z"/>
<path d="M8258 1263 c12 -2 32 -2 45 0 12 2 2 4 -23 4 -25 0 -35 -2 -22 -4z"/>
<path d="M920 1230 c0 -6 11 -9 25 -7 37 5 42 17 7 17 -18 0 -32 -5 -32 -10z"/>
<path d="M788 1203 c17 -2 47 -2 65 0 17 2 3 4 -33 4 -36 0 -50 -2 -32 -4z"/>
<path d="M8363 1193 c9 -2 23 -2 30 0 6 3 -1 5 -18 5 -16 0 -22 -2 -12 -5z"/>
<path d="M1163 1043 c9 -2 23 -2 30 0 6 3 -1 5 -18 5 -16 0 -22 -2 -12 -5z"/>
<path d="M8043 1043 c9 -2 23 -2 30 0 6 3 -1 5 -18 5 -16 0 -22 -2 -12 -5z"/>
<path d="M8123 1043 c9 -2 23 -2 30 0 6 3 -1 5 -18 5 -16 0 -22 -2 -12 -5z"/>
<path d="M1220 906 c0 -10 28 -13 41 -5 10 6 7 9 -13 9 -16 0 -28 -2 -28 -4z"/>
<path d="M1302 814 c-14 -16 -5 -18 17 -5 7 5 9 11 5 14 -5 3 -15 -1 -22 -9z"/>
<path d="M8498 823 c12 -2 30 -2 40 0 9 3 -1 5 -23 4 -22 0 -30 -2 -17 -4z"/>
<path d="M9238 791 c-113 -3 -210 -9 -214 -13 -4 -5 90 -8 209 -8 186 0 217 2
217 15 0 8 -1 14 -2 13 -2 -1 -96 -4 -210 -7z"/>
<path d="M1308 763 c7 -3 16 -2 19 1 4 3 -2 6 -13 5 -11 0 -14 -3 -6 -6z"/>
<path d="M8935 730 c-16 -4 90 -8 238 -9 172 -1 267 3 267 9 0 12 -459 12
-505 0z"/>
<path d="M1626 721 c-5 -8 264 -4 289 4 6 2 -56 4 -137 4 -81 1 -149 -3 -152
-8z"/>
<path d="M9270 689 l-105 -5 124 -2 c68 -1 121 1 117 5 -9 9 -12 9 -136 2z"/>
<path d="M1658 633 c23 -2 61 -2 85 0 23 2 4 4 -43 4 -47 0 -66 -2 -42 -4z"/>
<path d="M8578 603 c12 -2 32 -2 45 0 12 2 2 4 -23 4 -25 0 -35 -2 -22 -4z"/>
<path d="M9350 600 c-21 -7 -18 -8 18 -9 26 -1 41 3 37 9 -7 11 -19 11 -55 0z"/>
<path d="M1591 558 c-1 -16 4 -28 9 -28 12 0 12 8 0 35 -8 18 -9 17 -9 -7z"/>
<path d="M1913 523 c9 -2 23 -2 30 0 6 3 -1 5 -18 5 -16 0 -22 -2 -12 -5z"/>
<path d="M1688 513 c7 -3 16 -2 19 1 4 3 -2 6 -13 5 -11 0 -14 -3 -6 -6z"/>
<path d="M1662 466 c12 -9 32 -11 63 -6 25 4 79 5 120 2 52 -3 75 -1 75 7 0 8
-42 11 -137 11 -116 -1 -135 -3 -121 -14z"/>
</g>
</svg>
