<svg version="1" xmlns="http://www.w3.org/2000/svg" width="1280" height="1280" viewBox="0 0 960.000000 960.000000"><path d="M0 480v480h74.4c51.7 0 75.3-.3 77.5-1.1 2.2-.8 3.5-.8 4.4 0 .9.7 16.7 1 49.3 1 29.9 0 47.1-.4 45.6-.9-3.6-1.5-3-6.3 1-8.3l3.2-1.5-3.7-1.6c-2.6-1-3.7-2.1-3.7-3.5 0-1.2.7-2.1 1.5-2.1 2.6 0 1.6-1.8-1.6-2.9-2.6-.9-3-1.5-2.5-3.4.4-1.9 0-2.5-2.6-3.3-3.9-1.1-4.9-3.4-1.6-3.4 1.3 0 2.9-.4 3.6-.9.9-.5-1-1-5-1.3-3.6-.3-7.5-1.1-8.9-1.8-2.2-1.2-2.2-1.4-.5-2 1.2-.4-1.4-1.1-6.8-1.9-4.8-.7-9.3-2-10.1-2.8-1.1-1.1-4.8-1.5-15.7-1.6-23.7-.3-33.7.3-34.8 2.2-.5.9-1 1.1-1.1.6-.4-2.3-.6-4.2-.8-7.4-.1-3.4-.1-3.4-2-1.5-1 1-1.7 2.2-1.4 2.6 1 1.9-1 7.6-3.1 8.8-1.3.6-3.1 2.5-4 4.2l-1.8 3-2.3-6.9c-1.3-3.7-2.5-7.7-2.7-8.8-.2-1.1-1-1.9-1.7-1.7-.7.1-7.9.4-15.9.7-12.2.3-13.4.2-7.2-.5 4.1-.5 10.8-1.2 14.9-1.5 4.1-.3 7.7-.7 7.9-1 1.3-1.3-1.4-1.7-10.5-1.7-6.4.1-9.1-.2-7.8-.8 1.1-.5 5.3-.9 9.3-.9 4.1-.1 7.2-.5 7.2-1.1 0-.6-6.9-1.1-18.2-1.2l-18.3-.1 14-.8c7.7-.3 15.7-.7 17.8-.8 2 0 3.7-.6 3.7-1.1 0-.8-5-.9-15.2-.6-10.3.3-13.5.1-9.8-.4 3-.5 9.7-1 14.9-1.2 5.3-.2 9.6-.8 9.8-1.3.2-.7-8.1-1-25.4-.9-27.7.2-27.6.2 14.4-2.2 6.2-.4 10.1-1 9.7-1.6-.4-.6-8-.7-20.2-.2-10.9.4-19.4.4-19.1 0 .3-.3 9.1-1.1 19.5-1.7 10.4-.6 19.1-1.3 19.3-1.5.3-.2-.3-1-1.2-1.7-1.3-.9-5-1-14.5-.5-18.6.9-34.1.8-31.7-.2 1.1-.5 10.6-1.5 21-2.3l19-1.5-29 .2c-25.7.2-28.2 0-22-1 3.9-.7 12.4-1.3 19-1.4 11.6-.2 30.6-1.5 27.5-1.9-.8-.1-10.2-.3-20.9-.3-10.7-.1-18.6-.4-17.5-.8 1-.4 10.5-1.1 20.9-1.5 24.3-.9 23.5-.8 23.5-2 0-.7-11.4-.9-32.7-.7-18 .1-32.5 0-32.2-.2.3-.3 10.4-1 22.5-1.6 12-.6 24.4-1.4 27.4-1.7l5.5-.7-4.2-.6c-2.2-.3-13.8-.6-25.7-.5-11.9 0-21-.3-20.3-.6 1.2-.7 27.9-2 41.9-2.1 3.7-.1 6.8-.4 6.8-.8 0-1.1-31.8-2.2-46-1.7-6.3.2-12.6 0-14-.4-1.9-.5-1.1-.7 3-.8 13.4-.3 34.2-1.4 41.5-2.1 5.9-.5.5-.8-20.5-1-30.7-.3-27.7-1 11.3-2.5 10.3-.4 18.7-.9 18.5-1-.2-.2-8.9-.5-19.3-.6-10.5-.1-30.7-.7-45-1.3l-26-1.2 14.5-.7c8.3-.4 17.9-.3 22.5.2 8.8 1.1 49.1.2 47.8-1-.4-.4-13.4-1-28.8-1.3-15.4-.3-29.6-.7-31.5-.7-3.2-.1-3.3-.2-1.1-1 1.4-.6 14-.7 29.9-.5 20.2.4 27.2.2 26.4-.6-.7-.7-10.6-1.3-28.4-1.8-15-.4-25.3-.8-22.8-1 2.5-.2 5.2-.4 6-.5.8-.1 8.9-.3 18-.4 19.9-.2 20.3-2 .5-2.2-9.6-.2-11.6-.4-7.5-.9l5.5-.6-5.5-.5c-3.2-.3.2-.6 8.3-.7 8.3-.1 13.7-.6 13.7-1.2s-6.7-1.1-17.7-1.1l-17.8-.2 11.9-.8c12.8-.9 16.2-1.8 7.5-2.1l-5.4-.1 5.5-.6c4.4-.5 2.1-.9-11-1.6l-16.5-1 20-.6c15.1-.5 20.3-.4 21.3.6 1 .9.4 1.2-2.9 1.3-2.3.1-4.5.5-4.8.8-.3.3 2.1.4 5.5.2 5.6-.2 6.4 0 11.2 3.6 2.9 2.1 6.5 5 8.1 6.5 1.5 1.4 4.7 3.9 7 5.5 2.8 1.9 3.9 3.1 3.1 3.6-.7.4.4 1 2.7 1.5 2.1.4 5.6 1.8 7.8 3.1l4 2.4h-3.6c-2.3 0-3.9.6-4.2 1.4-.4 1-.1 1.3.8 1 .7-.3 1.9.4 2.5 1.7 1.1 2 1 2.1-1.4 1.7-1.5-.3-2.9-.1-3.2.3-.3.5.6.9 2.1.9 1.4 0 3.7.8 5.2 1.7 2.3 1.6 2.4 1.7.7 2.4-1.3.5-1.5.8-.4.8 1.7.1 5 5.4 5 8.1 0 1 .5 2.2 1 2.5.6.3 1 1.7 1 2.9 0 1.3.7 2.9 1.5 3.6.8.7 1.7 2.6 2 4.4 1.1 5.9 1.3 7.1 1.4 7.8.1.5.5.8 1 .8s1.2-2.4 1.5-5.2c.4-2.9 1.1-5.7 1.5-6.3.5-.5 1.4-2.7 2-4.8.7-2 1.7-3.7 2.2-3.7.5 0 .9-.8 1-1.8 0-1.4.2-1.4.9.3.5 1.1.9 1.4.9.7.2-2.3 2.1-.2 2.1 2.3 0 1.3.5 2.7 1 3 .6.3 1 3.1 1 6.1 0 3 .4 5.4.9 5.4 1.3 0 2-15.6.9-19.7-1-3.6-.3-8.8 1-7.9.4.2.8-.3.8-1.2.1-1.8 1.1-11.4 1.9-17 .2-1.8.8-3.8 1.2-4.5.4-.6.8-1.9.8-2.7 0-.8 1.4-4.1 3-7.4l3-5.8 5 .6c2.8.3 11.3 1.3 19 2.1 26 2.8 34.1 4.1 57 9 7.2 1.5 17.4 4.3 18.6 5.1.5.3 3.9.9 7.7 1.4 17.1 2.1 30.5 7.1 45.9 17.2 7.4 4.8 18.9 13.3 25.3 18.7 10.1 8.4 17 11.6 27 12.3 4.5.4 6.6 1.3 12 5 6.9 4.8 19.2 12.4 24.9 15.3 2.6 1.3 5.3 1.6 11.9 1.3l8.5-.3 2.9 7.5c1.6 4.1 3.3 8.4 3.8 9.5 2.9 6.8 7 18.7 7 20.4 0 5.5-6 5.1 86.1 5.1 67.5 0 84.9-.3 84.9-1.3 0-.6 1.5-2.6 3.3-4.2 1.7-1.7 7.7-8.2 13.1-14.5 5.4-6.3 11.4-12.9 13.2-14.5 1.9-1.7 3.4-3.5 3.4-4 0-.6.9-1.7 2-2.5s2-2.2 2-3.1c0-.9.9-2.4 2-3.4s2-2.2 2-2.8c0-.5 1.3-2.9 3-5.4 1.6-2.4 3-4.6 3-4.9 0-.3 1.1-2 2.5-3.8 1.4-1.8 2.5-3.8 2.5-4.4 0-.6.7-1.5 1.6-2 .9-.5 1.5-1.2 1.5-1.5-.3-1.7 1.3-6.4 2.7-8 .8-.9 1.2-1.7.7-1.7-.4 0 .4-1.5 1.9-3.4 1.4-1.9 2.6-3.8 2.6-4.3 0-.4.9-1.4 2-2.1 1.1-.7 2-1.6 2-2.1 0-.9 6.8-8.1 7.7-8.1.3 0 2.5-1.5 5-3.3l4.5-3.2 18.8-.6c15.7-.4 19-.8 20.4-2.2.9-.9 3.4-2.1 5.5-2.7 2.1-.5 4.4-1.7 5.1-2.5.7-.8 2.4-1.5 3.7-1.5 1.4 0 3.6-.9 5-2s3.1-2 3.8-2c.7 0 2-1.1 2.8-2.4 1.5-2.2 1.5-2.5.1-3-.8-.3-1.3-1-1-1.5.3-.5-.9-1.2-2.7-1.6l-3.2-.8 3-.7c1.7-.4 2.6-.8 2-.9-1.9-.3 16-6.1 18.8-6.1 1.6 0 2.6-.4 2.3-.9-1.9-2.9 16.8-4.1 62.3-4 23 .1 38.4.5 35.6 1-2.7.4-12.9.8-22.5.9-9.6.2-24.5.6-33 1-14.4.6-13.4.7 14.5 1 26 .2 28.5.4 18.6 1.1-17.2 1.2-15.6 1.6 5.4 1.4 12.6-.2 17.1 0 13.5.5-3 .4-17 1.2-31 1.6-14 .4-24.5 1-23.5 1.4 1.1.4 13.9.6 28.5.4 29-.2 23.6.7-14.5 2.5l-19 .9 29.5-.1c31.4 0 33.6 0 32.9.8-.3.2-10.4.7-22.4 1.1-12.1.3-22.6 1-23.4 1.4-.7.4 11.9.6 28 .4 33.8-.3 27.5.9-10.6 2.1-35.4 1.1-35.7 2.4-.5 1.9 31.4-.3 33.8.7 4.5 2-8.8.4-16.2 1-16.5 1.3-.3.3 10.9.3 24.8-.1 13.8-.3 25.2-.2 25.2.3 0 1-19.9 2.2-53.5 3.1-24.2.6-23.6.7 20.5 1 46.9.3 47.7 1 3.5 2.6-32.8 1.2-20.5 2.6 19.3 2.2 30.2-.3 40.1.5 19 1.6-24.9 1.2-59.8 2.6-67.8 2.7-4.7.1-9.8.5-11.5.9-1.9.4.3.7 6 .6 21.2-.2 84.8.4 84.3.9-.2.3-15.3 1-33.5 1.6-49.8 1.6-48.3 2.6 3.7 2.5 41.1-.1 45.2 0 35 1.1-6.3.6-23.4 1.5-37.9 1.9-14.5.3-27.6 1-29 1.5-2.8.9 74.4.4 79.4-.5l3-.6-3 1c-1.6.6-9.7 1.7-17.9 2.5s-15.1 1.6-15.3 1.9c-.2.2 6.8.3 15.7.2 8.8-.1 16 .2 16 .5 0 .4 1.2 1 2.8 1.3 1.5.2-2.9.3-9.8 0-8-.2-11.8 0-10.5.5 1.4.7-1 1-8 1.2-8.5.1-9.3.3-5 .9 2.8.4 5.3.5 5.8.3.4-.2.7.1.7.6 0 .7-3.5 1.1-9.2 1.2-5.1.1-13.3.4-18.3.8-6.5.4 1.2.9 27.1 1.4 19.9.5 37.8.5 39.8.2 2.9-.6 3.9-1.5 5.7-5.1 1.2-2.3 2.5-4.2 2.9-4.1.3.1 2.3-1.2 4.3-3l3.7-3.2V21.2l-2.2-1.5-2.3-1.6h2.3c2.1-.1 2.2-.4 2.2-9.1V0L800.3.2 640.6.5 640 3c-.5 2.2-1.3 2.6-6.5 3.3-3.6.5-6.7.5-7.9-.1-5.2-2.5-7.2-2.2-13.6 2-2.2 1.5-13.1 3.6-15.4 3-.5-.2-.6.3-.4 1 2.8 7.6 4 13 3.1 13.9-1.5 1.5-6.7.2-8.8-2.1-1.6-1.8-1.6-2-.1-3.5 2-2 2.1-3.9.2-3.2-.8.3-2.2 0-3.2-.7-1.4-1.1-1.6-2.2-1.1-6.6.4-2.9.9-5.5 1.2-5.8.4-.5 4-.8 33-3.1 6.4-.5-120.8-.9-304.7-1L0 0v480zM575.1 7.2c1.3 2.1-.3 4.8-3 4.9-5.6.3-10.4-2-9.5-4.5 1-2.5 11-2.7 12.5-.4zm-15.5 1.5c-.7.7-2.6-.7-2.6-1.9 0-.6.6-.6 1.5.2.9.7 1.3 1.5 1.1 1.7zm-4.1-.7c.3.5-.3 1-1.5 1s-1.8-.5-1.5-1c.3-.6 1-1 1.5-1s1.2.4 1.5 1zM549 9.4c0 .2-.7.7-1.6 1-.8.3-1.2.2-.9-.4.6-1 2.5-1.4 2.5-.6zm7 3.1c1 1.2 1 1.5-.1 1.5-.8 0-2.7 1.1-4.3 2.5-2.2 1.9-3.2 2.2-3.7 1.3-.4-.7-.3-1.8.3-2.5.7-.9.7-1.3-.2-1.3-1 0-1-.3 0-1.5.7-.8 2.5-1.5 4-1.5s3.3.7 4 1.5zm3.5-.5c.3.6-.1.7-.9.4-1.8-.7-2.1-1.4-.7-1.4.6 0 1.3.4 1.6 1zm17.1 3.2c.2 1.9-2.5 3.3-3.9 1.9-.6-.6-.4-1.5.4-2.5 1.7-1.8 3.1-1.6 3.5.6zm-418.3 1.5c2.8 1.4 2.9 1.7 1.4 2.8-3.1 2.3-9.6 2.7-14.8 1-2.7-.9-4.9-2-4.9-2.5 0-.4 1.7-1.5 3.8-2.4 4.2-1.8 9.7-1.4 14.5 1.1zm399.9 1.5c-.9.9-1.7.8-3.4 0-2.2-1.2-2.2-1.2-.1-.7 1.2.3 2.4.1 2.8-.5.4-.6 1-.9 1.3-.5.3.3 0 1.1-.6 1.7zm-20.5-.6c-.3.3-1.2.4-1.9.1-.8-.3-.5-.6.6-.6 1.1-.1 1.7.2 1.3.5zm73.2 9.3c2.9 2.5 2 4-2.2 3.9-5.7-.1-8.1-3.4-3.7-5.1 2.6-1 3.6-.8 5.9 1.2zM167 41.1c0 1.7-2.7 3.9-4.7 3.9-3 0-4.3-1.3-2.7-2.8.8-.7 1.4-1.1 1.4-.8 0 .3 1 .1 2.3-.4 3-1.2 3.7-1.2 3.7.1zm7.5 5.7c.2 3.1-2.2 9.8-3.2 8.9-.7-.8-5.3 3.9-5.3 5.4 0 .5-.7.9-1.6.9-1.1 0-1.4.5-1 1.6.4.9 0 2.7-.8 3.9-1.4 2.1-1.4 2.3.4 1.8 1.1-.3 2.5-1.1 3.1-1.9 1.7-2.1 4.5-1.7 7.4 1 3.2 3 3.1 2.6 1.6 5.4-.7 1.3-1.8 2.1-2.6 1.9-.7-.3-1.7-.1-2.2.4-1.5 1.5-8.1-1.1-8.7-3.5-.6-1.9-1-1.7-5 2.7-3.3 3.7-4.5 4.5-4.9 3.3-.4-.9.2-2.1 1.2-2.8 1-.7 2.1-2.5 2.5-4.1.3-1.5 1.3-2.7 2.1-2.7 2.1 0 4.8-4.2 3.2-5.2-.9-.6-.9-1 .3-1.8 1.2-.7 1.2-1.2.2-2.2-2.2-2.2-1.3-4.6 2.8-7.5 2.2-1.5 4-3.6 4-4.5 0-1.5 4.9-4.9 5.9-4.1.3.2.5 1.5.6 3.1zm574.3 2.1c2.7 1.7-1.5 3-16.3 5.1-8.2 1.2-15.7 2.6-16.6 3-.8.5-5.1 1-9.3 1.1-7.5.2-9.5-.5-9.6-3.4 0-.6 4.2-1.2 6.4-.8.5.1.3-.6-.5-1.5-1.3-1.6-1-1.7 3.9-1 3.3.4 6 .3 7.4-.5 1.1-.6 6.9-1.4 12.7-1.6 5.8-.3 10.8-.7 11-.9.8-.7 9.6-.4 10.9.5zm-58 5.9c.2 1.4-.2 2.2-1.2 2.2-1.9 0-2.9-1.7-2.2-3.6.8-2.2 3-1.2 3.4 1.4zm-25 2c.3 1.7-.2 2.2-1.7 2.2-1.6 0-2.1-.6-2.1-2.4 0-3.1 3.4-2.9 3.8.2zm0 14.1c.3.8-.1 1.2-.9.9-.7-.2-1.5-1-1.7-1.7-.3-.8.1-1.2.9-.9.7.2 1.5 1 1.7 1.7zM150 80.4c0 .2-.7.9-1.5 1.6-1.3 1.1-1.4 1-.9-.4.5-1.4 2.4-2.3 2.4-1.2zm524 .8c0 .4-.4.8-1 .8-.5 0-1 .7-1 1.5s-.4 1.5-1 1.5c-.5 0-.7-.7-.4-1.5.4-.9 0-1.5-1-1.5-.9 0-1.6-.4-1.6-.9s1.4-.9 3-.9c1.7.1 3 .5 3 1zM157.6 85c1.5.6 2.4 1.3 2.2 1.6-.8.8-5.8-.7-5.8-1.7 0-1.1.3-1.1 3.6.1zm-16.2 1.9c-1.1 1-6.4 2.3-6.4 1.6 0-.8 6.4-3.4 6.9-2.9.3.2 0 .8-.5 1.3zm6.7 3.4c-1 .9-1.1.8-.5-.6.3-1 .9-1.5 1.2-1.2.3.3 0 1.1-.7 1.8zm18.3-1.7c.9.3 1.6 1.4 1.6 2.3 0 .9.7 2.6 1.5 3.8 1.9 2.7 1 5.1-2 5.9-4.1 1-6 .1-6.3-3.1-.2-2-1.1-3.4-2.5-4-3.6-1.6-3.4-4.3.5-4.8 1.8-.2 3.8-.5 4.5-.5.6-.1 1.8.1 2.7.4zM154 91.7c0 .7-.6 1.3-1.3 1.3-.8 0-1.4-.6-1.4-1.3 0-.8.6-1.4 1.4-1.4.7 0 1.3.6 1.3 1.4zm-32.6 4.6c-1.6 1.8-3.1 3.4-3.2 3.7-.2.3-1.2-.5-2.1-1.7-1.2-1.5-3.2-2.3-6.2-2.6l-4.4-.4 4.7-.1c2.6-.1 5-.7 5.3-1.3 1.2-1.8 4.9-2.7 6.9-1.7 1.7.9 1.6 1.2-1 4.1zM133 94c0 .5-1.2 1-2.7 1-2.2 0-2.5-.2-1.3-1 2-1.3 4-1.3 4 0zm611 3.5c0 .8-.7 1.5-1.5 1.5s-1.5-.7-1.5-1.5.7-1.5 1.5-1.5 1.5.7 1.5 1.5zm-51 9.2c0 1.8-.6 2.3-2.4 2.3-3.1 0-3.7-1.7-1.8-5.4 1.4-2.8 1.5-2.9 2.8-1.1.8 1 1.4 2.9 1.4 4.2zm-526.5.9c1.7-.6 2.1.9.5 1.9-1 .6-7.8-4.3-7.9-5.7-.1-.3.7-.8 1.7-1 1.1-.2 2.1.6 2.9 2.5.9 2 1.8 2.7 2.8 2.3zm410.9-4c.3.8.2 1.2-.4.9-.6-.3-1-1-1-1.6 0-1.4.7-1.1 1.4.7zm-434.6.6c.5.7 1.3 3.2 1.7 5.4.5 3.2.3 4.3-.9 4.7-.8.3-1.8.1-2.2-.4-.3-.6-1.2-.2-2.1 1-.8 1.2-2 2.1-2.6 2.1-1.2 0-5.1-8-4.2-8.8.2-.2 2.3.5 4.6 1.7 5.1 2.7 6.9 1.3 3.8-3-1-1.5-1.9-3-1.9-3.3 0-1.1 2.7-.6 3.8.6zm392 2.4c-.4.3-1.2-.5-1.8-1.8-1.2-2.2-1.2-2.2.6-.6 1 1 1.5 2 1.2 2.4zM132.7 116c-.2 2.6-.4 2.5-2.2-1.1-1.6-2.9-1.6-3 .4-2 1.1.6 1.9 2 1.8 3.1zm600.3 1c0 1.5-4.7 10.6-7.9 15.5-1.5 2.2-3.3 5.2-4 6.7-1.5 2.8-4.1 3.8-4.1 1.5.1-.6 1.6-3.7 3.5-6.7s4.9-8.3 6.7-11.8c2.9-5.5 5.8-8.1 5.8-5.2zm-299.3 9.7c-.3 1-.5.4-.5-1.2 0-1.7.2-2.4.5-1.8.2.7.2 2.1 0 3zm-3 1c-.3 1-.5.4-.5-1.2 0-1.7.2-2.4.5-1.8.2.7.2 2.1 0 3zm-345.6 6.7c8.9 2.7 14.9 5.8 14.9 7.6 0 1.6-.5 1.7-4.1.9-2.3-.5-5.4-1.6-7-2.4-1.5-.8-3.5-1.5-4.4-1.5-1.7 0-5.5-3.4-5.5-5 0-1.3.6-1.3 6.1.4zm445.9 7.9c0 .5-.4.5-1 .2-.5-.3-1-1.4-1-2.3 0-1.5.2-1.5 1-.2.5.8 1 1.9 1 2.3zm274.6 1.3c-.8 2.1-2.6.8-2.6-1.9 0-1.8.2-1.9 1-.7.8 1.3 1 1.2 1.1-.5.1-1.8.2-1.8.6-.2.3 1 .2 2.5-.1 3.3zm-270.7 3.9c0 .5-.4.3-.9-.5s-.9-2.2-.9-3c0-1.6 1.7 1.6 1.8 3.5zm181.9-1.7c.2.7-.3 1.2-1.2 1.2-.9 0-1.6-.7-1.6-1.6 0-1.7 2.2-1.4 2.8.4zM510 148c0 .5-.4 1-1 1-.5 0-1-.5-1-1 0-.6.5-1 1-1 .6 0 1 .4 1 1zm191 3c0 .5-.4 1-1 1-.5 0-1-.5-1-1 0-.6.5-1 1-1 .6 0 1 .4 1 1zm-229.3 6.2c-.3.7-.5.2-.5-1.2s.2-1.9.5-1.3c.2.7.2 1.9 0 2.5zm51.3-1.1c0 .6-.4.7-1 .4-.5-.3-1-1.1-1-1.6 0-.6.5-.7 1-.4.6.3 1 1.1 1 1.6zm3.7 1.6c-.3 1-.5.4-.5-1.2 0-1.7.2-2.4.5-1.8.2.7.2 2.1 0 3zM514 156c0 .5-.4 1-1 1-.5 0-1-.5-1-1 0-.6.5-1 1-1 .6 0 1 .4 1 1zm-213 1.2c-.1 1.5-2.4 4.8-3.4 4.8-.8 0-.8-4.5.1-5.3 1.1-1.2 3.3-.8 3.3.5zm177.7 2c-.3.8-.6.5-.6-.6-.1-1.1.2-1.7.5-1.3.3.3.4 1.2.1 1.9zm51.7-.4c.2.4-.4 1.3-1.5 2s-1.9.8-1.9.2c0-.5.5-1 1.1-1 .5 0 .7-.5.4-1-.3-.6-.2-1 .4-1 .5 0 1.2.4 1.5.8zM274 169.1c.5 4.6 1.2 12.2 1.6 16.9.3 4.7.9 11.4 1.3 15 1.2 9.7.2 12-3.5 7.9-1.5-1.7-1.9-4-2.2-12.2-.3-10.7.7-37.1 1.4-36.4.3.2.9 4.2 1.4 8.8zm206.8-4.6c-.3.3-.9-.2-1.2-1.2-.6-1.4-.5-1.5.5-.6.7.7 1 1.5.7 1.8zm11.1 3.5c0 1-.3.8-.9-.5-1.2-2.7-1.2-4.3 0-2.5.5.8.9 2.2.9 3zm-23.6 1c.3 1.1.1 1.8-.4 1.4-.5-.3-.9-1.2-.9-2 0-2 .7-1.7 1.3.6zm-52.5 1.5c-.3.3-.9-.2-1.2-1.2-.6-1.4-.5-1.5.5-.6.7.7 1 1.5.7 1.8zm68.2 2c0 1.7-.2 1.7-1 .5-.5-.8-1-2.4-1-3.5 0-1.7.2-1.7 1-.5.5.8 1 2.4 1 3.5zm-413.7 4.6c.9 2.3 2.4 3.6 5.6 4.8 2.5.9 4.6 2.3 4.8 3.1.3 1 .2 1.1-.4.3-.5-.6-2.9-1.4-5.5-1.7-6-.8-10.1-2.3-9.3-3.6.4-.6 1.1-.8 1.6-.5.5.4.9-.8.9-2.4 0-3.9.7-3.9 2.3 0zM64 180c0 .5-.7.7-1.5.4-.8-.4-1.5-.8-1.5-1 0-.2.7-.4 1.5-.4s1.5.4 1.5 1zm231 1.5c0 1.7-.2 1.8-2.4.9-2.3-.9-2-2.4.4-2.4 1.1 0 2 .7 2 1.5zm-202.5 3.4c6.3 1.4 14.8 3.8 17.5 4.9 4.6 1.9-10 .3-18-1.9-4.1-1.2-7.7-2.3-7.9-2.4-.9-.9 1.3-2.5 2.7-2.1 1 .3 3.5.9 5.7 1.5zM81 195.1c3.9.8 5 1.5 5 3 0 1.6-.6 1.9-3.6 1.7-1.9-.1-3.8-.6-4-1-.3-.4-1.6-.8-2.8-.8-1.5 0-2.6-.7-2.9-2-.6-2.4.8-2.5 8.3-.9zm687 18c0 2.7-.3 4.8-.8 4.5-.7-.4-.4-9.6.4-9.6.2 0 .4 2.3.4 5.1zm-.8 12.9c-.2 1.6-.8 2.7-1.3 2.4-1.3-.8-1.1-4.2.4-4.7.6-.3 1.2-.6 1.3-.6 0-.1-.1 1.2-.4 2.9zm-487.9 8.5c1.4 1.4 3.5 16 2.5 17-.2.3-2.3-.2-4.5-1.1-4-1.6-4.1-1.8-4.5-6.5-.1-2.7 0-4.9.5-4.9.4 0 .7-1.1.7-2.4 0-2.2 1-3.3 3.2-3.5.4-.1 1.3.6 2.1 1.4zM156 249.7c0 4.3-.5 4.1-1.3-.5-.4-1.8-.2-3.2.3-3.2.6 0 1 1.6 1 3.7zm616.3 2.2c.3 1.6 1.3 3.6 2.2 4.5 1.5 1.4 1.3 1.5-1.7 1-4.5-.9-4.8-1.4-3.5-5.6 1.3-4.1 2.2-4.1 3 .1zm-602.5 5.7l-.3 3.9-.5-4.7c-.3-2.6-.1-4.3.3-3.9.5.5.7 2.6.5 4.7zm690.4-.6c2.9 1.1 6.1 3.1 7.1 4.5 1.7 2.3 1.7 2.4-.5 3.7-1.3.7-2.5 1.3-2.8 1.3-.3 0-1.5.6-2.8 1.3-2.6 1.5-9.4 1.2-9.9-.4-.2-.6.8-1.6 2.2-2.4 1.4-.7 2.5-2.2 2.5-3.3 0-1.8-.5-1.9-7-1.2-7.2.7-8.4.1-5.2-2.7 3.5-3.2 9.3-3.5 16.4-.8zm-766.5 1.2c-.3.8-.6.5-.6-.6-.1-1.1.2-1.7.5-1.3.3.3.4 1.2.1 1.9zm64.3-1.8c0 1.1-1.9 1.5-2.5.6-.3-.5.1-1 .9-1 .9 0 1.6.2 1.6.4zm639 1.6c-.8.5-2.4.9-3.5.9h-2l2-.9c1.1-.5 2.7-.9 3.5-.9 1.3-.1 1.3 0 0 .9zm-21 2.4c0 .2-.7.6-1.5 1-.8.3-1.5.1-1.5-.4 0-.6.7-1 1.5-1s1.5.2 1.5.4zm39.5 1.6c.3.5 1.6 1 2.8 1 3.5 0 4.8 1.4 5 5.3.2 3.8 1.9 4.9 3.5 2.1.9-1.6 8.2-3 8.2-1.5 0 .5-.8 1.2-1.7 1.5-1 .3 5.1.4 13.5.2 14.2-.3 15.2-.2 15.2 1.6 0 1.6-1 1.8-10.8 1.8-6 0-16.2.3-22.8.6l-11.9.6-1.2-2.8c-3.3-8.1-4.3-10.7-4.3-11 0-.9 3.9-.3 4.5.6zm-39.5 3c-1.1 1.1-2.4 2-3 2-.5 0-1 .7-1 1.5 0 1.6 1.5 2 2.4.7.4-.7 3.1-.8 5.5-.3.2.1-.2.7-.8 1.5-.9 1.1-.9 1.5.1 1.9.7.3.2.6-1.2.7-1.4.1-4 .4-5.9.6l-3.3.4.7-3.6c1-5.3 2.6-7.4 5.7-7.4h2.8l-2 2zm19.5-1c.3.5 1.5 1 2.5 1 1.6 0 1.9.6 1.7 3.1-.2 3-.5 3.1-4.7 3.3-5.4.3-8.2-1-7-3.3.5-.9 1.1-2.4 1.4-3.4.6-1.8 5.1-2.4 6.1-.7zM22 268.2c0 1.8-.2 2-.9.8-.6-.8-.7-1.8-.5-2.2.9-1.4 1.4-.9 1.4 1.4zm817-.8c0 1.7-1.4 2.9-2.3 2-.8-.8.3-3.4 1.4-3.4.5 0 .9.6.9 1.4zM98 277.5c4.7 23.5 7 38.9 6 39.8-.3.3-7.7.8-16.5 1.1-11.1.5-15.5.4-14.5-.3s1.1-1.1.3-1.1c-2 0-1.5-2 .5-2.1 1.6-.1 1.6-.2 0-.6-2.7-.7-2.3-8.1.7-15.5 1.4-3.4 2.5-7.2 2.5-8.5 0-1.4.6-2.3 1.5-2.3.8 0 1.5-.9 1.5-1.9 0-1 .7-2.1 1.5-2.5.8-.3 1.5-1.2 1.5-1.9s1.1-2 2.5-2.7c1.4-.7 2.5-1.7 2.5-2.1 0-.4 1.8-1 4-1.4 3.6-.6 4-1 4.1-3.8.1-1.9.3-2.4.5-1.2.2 1.1.9 4.2 1.4 7zm-79.3-3.3l5.2.3 1.1 6c.6 3.3 1.3 7.1 1.5 8.5.3 1.4 1.8 9.9 3.4 19 1.7 9.1 3 17.9 3.1 19.5v3.1l-6.9.2-6.8.3-3.2-16.8c-4.3-22.1-7-36.3-7.6-38.9-.4-1.8-.1-2.1 2.3-1.8 1.5.2 5 .5 7.9.6zm267.2 9.7c.1 1.7-.3 2.2-1.5 1.7-.9-.3-1.9-.6-2.4-.6-.4 0-.6-.9-.3-2s.9-2 1.4-2c.5 0 .8-.3.8-.8-.1-.4-.1-1.2.1-1.7.3-1.6 1.9 2.8 1.9 5.4zm20.2 18.2c1.6 1.6 1.8 2.4.9 3.2-.8.9-1.4.8-2.1-.6-.7-1.1-2.2-1.7-4.6-1.7-3 0-3.4-.2-2.3-1.5 1.8-2.1 5.6-1.9 8.1.6zm-154.5 3c.1.8.2 2 .3 2.6 0 .7.9 1.3 1.8 1.3 3.3 0 .3 1.2-4.1 1.6l-4.6.4v-3.6c0-2.8.3-3.5 1.5-3.1.8.4 1.7.2 2.1-.4.8-1.4 2.9-.6 3 1.2zm147.4 5.4c3 .8 6.7 1.5 8.3 1.5 4.8 0 2.9 1.7-2.5 2.3-3.6.3-6 .1-7.5-.9-1.2-.8-2.8-1.4-3.5-1.4-.9 0-.9.3.2 1 2.1 1.3 1.2 1.7-5.2 2.5-7.2.9-7.6-.5-1-3.9 5.7-3 4.5-2.9 11.2-1.1zm-43 1.5c0 .5-.5 1-1.1 1-.5 0-.7-.5-.4-1 .3-.6.8-1 1.1-1 .2 0 .4.4.4 1zm128 74.5c0 2.6 5.1 7.4 8.5 8.1 4.4.8 6.1 2.7 4.2 4.6-.7.7-1.2 1.8-1 2.5.2.6-.5 1.8-1.7 2.6-1.4 1-1.8 2-1.4 3.3 1.1 3 3.6 5.4 4.8 4.7.6-.3.8-.3.4.2-.4.4-.3 1.4.3 2.2 1.3 1.5 8.5 1.8 9.4.3.4-.7 1.3-.7 2.6 0 1.1.6 1.7 1.6 1.3 2.1-.3.6.3 1.3 1.5 1.6 3.9 1 .9 2.4-4.8 2.2-5.4-.3-5.6-.2-5.2 2.2.4 2.8 3.9 10.1 5.3 11 .6.4.6.9.1 1.2-1.4.9-6.1-7-6.8-11.5-.4-2.1-1.3-4.2-2.1-4.5-2.3-.9-2.4-.1-.8 4.7.8 2.4 1.7 7.1 1.9 10.4l.4 6-2-4.4c-3.8-8.4-8-21.4-7.4-22.8.9-2.5-3.3-15.1-4.5-13.2-.7 1.1-3.2-6-4.5-12.9-.5-2.3-.4-3.1.4-2.7.6.4 1.1 1.3 1.1 2.1zm73 0c1 1.2 1.6 1.3 2.6.4 1.1-.9 1.4-.8 1.4.5 0 .9-.5 1.6-1.1 1.6-.5 0-.7.5-.3 1.1.5.8 1 .6 1.6-.5 1.3-2.3 2.7-2 5 .9 1.1 1.4 2.6 2.5 3.4 2.5.8 0 1.4.7 1.4 1.5s1.1 1.7 2.5 2.1c1.4.3 2.5 1.1 2.5 1.6 0 .6-.9.8-2 .5-1.1-.3-1.8-.1-1.4.4.5.9-.8 1.1-12.1 1.4-5 .2-11.6-1-13.5-2.3-.2-.2.2-.7 1-1.3 1.1-.6 1.2-1.1.4-1.7-.6-.4-1.9-2.3-2.9-4.2l-1.8-3.5 2.4 2c1.2 1.1 4 3.7 6.1 5.8 2.1 2.1 3.8 3.5 3.8 3.2 0-.3.9-.1 2 .5 1.6.9 1.8.8 1.4-.5-.4-.8-1-1.5-1.5-1.5s-.9-.6-.9-1.3c0-.7-.8-1.7-1.9-2.4-1-.6-2.1-2.1-2.4-3.3-.5-2.1-.5-2.1 1.3-.5s1.8 1.6 1.3-.4c-.3-1.2-1-2.1-1.5-2.1s-.6-.5-.3-1c.9-1.4 2.1-1.2 3.5.5zm190.5 5.5c-.3.5-1.1 1-1.6 1-.6 0-.7-.5-.4-1 .3-.6 1.1-1 1.6-1 .6 0 .7.4.4 1zM427 393.5c1.6.8 3.5 2.3 4.2 3.3.7 1.1 2.6 2.6 4.2 3.4 2.7 1.4 2.5 1.5-4.5 1.2-4.1-.2-10.5-.3-14.4-.4-3.8-.1-6.4-.4-5.6-.7 1.5-.6 5.1-4 5.1-4.8 0-.3.6-1.2 1.3-2 1.6-1.9 6.1-1.9 9.7 0zm213-.1c0 .3-.4.8-1 1.1-.5.3-1 .1-1-.4 0-.6.5-1.1 1-1.1.6 0 1 .2 1 .4zm-36.7 1.3c-.7.2-1.9.2-2.5 0-.7-.3-.2-.5 1.2-.5s1.9.2 1.3.5zm-89.2 2c1.3 1.6 1.2 1.7-.3.4-1-.7-1.8-1.5-1.8-1.7 0-.8.8-.3 2.1 1.3zm127.9 1.2c0 .6-.4 1.3-1 1.6-.5.3-1-.1-1-.9 0-.9.5-1.6 1-1.6.6 0 1 .4 1 .9zm-36.7.8c-.7.2-1.9.2-2.5 0-.7-.3-.2-.5 1.2-.5s1.9.2 1.3.5zm-121.9 4.1c2.6-.5 3.5.5 1.5 1.7-1.4.9-9.9-.4-9.9-1.5 0-1.2 4.4-1.7 5.1-.6.4.5 1.9.6 3.3.4zm-67.9 1.8c1.1 1.3 9.7 2.5 8.9 1.2-.3-.4 2.3-.5 5.8-.2l6.3.5-2.4-2c-3-2.7-1.7-2.7 1.6-.1 1.4 1.1 3.1 2 3.8 2 .7 0 2.3 1.1 3.6 2.3 2.2 2.2 3 2.3 8.2 1.7 4.5-.5 5.7-.3 5.3.7-.3.7-.1 1.3.5 1.3.5 0 1.2-.7 1.5-1.5.8-1.9 2.4-2 2.4-.1 0 .7.9 1.6 2 1.9 1.7.4 2 .2 1.6-1.6-.3-1.2-.3-1.6 0-1 .3.7 1.2 1.3 1.9 1.3s1.5.5 1.7 1.2c.6 1.7 2.8 0 2.8-2.2 0-1 .5-2.2 1-2.5 1-.6 13.4.9 17.4 2.2 2 .5 2 .6 0 2-1.9 1.4-1.9 1.5.1 1.1 1.6-.2 2.1.3 2.3 2.9.3 2.8 0 3.3-2 3.4-2.1.1-2.1.2-.3.7l2 .5-2 .8c-1.8.7-1.7.8.6.8 1.5.1 2.9.7 3.2 1.5.6 1.5 11.7 2.8 11.7 1.3 0-.4-2.5-.7-5.5-.7s-5.5-.5-5.5-1c0-.6 1.5-1 3.3-1 2.4 0 2.8-.3 1.7-1-1.1-.7-.7-1 1.8-1 1.7 0 3.2.4 3.2.9 0 2.3 21.9 3.1 38.5 1.5l8.9-.9-2.6-1.7c-1.9-1.3-2.6-2.4-2.3-4 .3-1.2-.1-2.6-.8-3.1-.7-.5.3-.5 2.3-.1 1.9.4 6.2.9 9.5 1.1 3.3.2 6.5.4 7 .5.6 0 2.9-.5 5.3-1.1 2.3-.7 4.7-.9 5.2-.6.6.3 1 .1 1-.6 0-.6.8-.9 2-.6 1.1.3 2 .2 2-.1 0-.4 2.5-.8 5.6-.9 3.1-.1 6.2-.7 7-1.4.7-.6 2.7-.9 4.4-.7 2.8.4 2.9.3 1.4-1.3-2.5-2.8-.4-3.2 6.1-1 2.9.9 2.9.9.4 1-3.4.1-4.1 1-2.4 2.8.8.8 1.5 1.9 1.5 2.4 0 1.8-14.4 15.5-19.5 18.6-6.5 4-13.9 6.3-22.8 7.3-6.7.7-6.4.7 4.8.8 6.6 0 14.6-.3 17.8-.7 3.8-.5 5.7-.4 5.7.3 0 .6-2.2 3.3-4.8 6.1-2.6 2.7-5.9 6.6-7.2 8.5-5.5 8.1-14.2 18-15.2 17.4-.7-.4-.8-.2-.4.4.4.7-1.1 2.4-3.6 4.2-2.4 1.7-5.8 4.3-7.7 5.8-1.8 1.5-4 2.6-4.8 2.5-.9 0-1.2.5-.8 1.5.5 1.3.4 1.4-.6.5-1.3-1.3-4.9.7-9.8 5.4-1.3 1.3-3.3 2.3-4.5 2.3-1.8 0-1.6-.4 1.4-2.9 8.4-7 9.5-8.1 7.9-8.1-.9 0-3.4 1.3-5.5 2.8-4.3 3.1-15.8 9.3-21.7 11.6-3.4 1.4-4.4 1.4-10 0-3.4-.9-6.4-2-6.7-2.4-.3-.4-2.9-1.3-5.8-2-2.8-.6-5.5-1.6-5.8-2.1-.3-.5-1.4-.9-2.5-.9s-2.2-.7-2.5-1.5c-.4-.8-1.4-1.5-2.4-1.5s-2-.5-2.2-1.1c-.5-1.4-8.8-2.5-8.8-1.1 0 1.2 8.9 10.2 10.1 10.2 1.2 0 11.3 6.3 11.7 7.2.2.4 1.1.8 2 .8 3 0 9.2 2.6 8.5 3.5-.5.4.1.5 1.2 0 1.1-.4 4.3-1.1 7-1.5 7.7-1 13.2-3 16.7-6.2 3.1-2.8 5.2-3.3 8.2-2.2 2.4.9 1.9 4.9-.8 7-1.4 1-2.2 2.2-2 2.6.3.5.2.8-.3.6-1.6-.4-8.3 3.6-7.9 4.8.2.6-.1 1.1-.7 1.1-3.4-.1-4.8.4-4.1 1.4.4.8-.1.9-1.6.4-1.4-.4-2-.3-1.6.3.9 1.4-5.5 2.2-19 2.2-11.4 0-12.5-.2-17.8-2.9-3.2-1.6-5.2-3.1-4.4-3.4.7-.2 1-.8.6-1.2-.4-.4-1.5-.2-2.5.6-.9.8-1.4.9-1 .2.4-.7-.4-2.3-1.8-3.7-1.4-1.4-2.5-3.2-2.5-4.1 0-.8-.7-1.5-1.5-1.5-1.5 0-1.5-1.2.2-7.2.3-1.3-.4-2.1-2.2-2.8-1.4-.5-2.3-1.4-2-2 .3-.5-.1-1-.9-1-.9 0-1.6-.8-1.6-1.9 0-1.6-1-2.1-4.6-2.7-3.2-.5-4.9-.3-5.4.6-.6.9-.9.9-1.5 0-.4-.7-.1-1.6.6-2.1 1.1-.7 1.1-.9-.2-.9-3.2 0-12.7-13.6-13.1-18.8-.1-1.5-.9-3.3-1.6-4.1-1.2-1.3-1.2-1.6.2-2.7 1.3-.9 1.4-1.7.6-3.8-.5-1.4-1.4-2.6-2-2.6-.6 0-.9-.4-.6-.9.3-.5-.4-1.1-1.5-1.4-1.2-.3-1.8-1-1.4-1.6.3-.6.1-1.1-.4-1.1-.6 0-1.1-.5-1.1-1 0-.7 2.4-.8 6.5-.5 6.5.6 8.4-.4 4.7-2.4-3.2-1.7-13.2-11.4-13.2-12.7 0-.8-.5-1.4-1.1-1.4-.5 0-.8-.4-.5-.9.3-.4-.3-1.6-1.4-2.6-1.5-1.3-1.7-2.2-1-4.1.7-1.9.6-2.4-.5-2.4-2 0-1.9-3.9 0-4.6 1.9-.8 2-3.4.1-3.4-.8 0-1.6.3-1.9.7-.2.5-.2.2 0-.5.2-.9-.3-1.1-1.7-.7-1 .3-3.6.3-5.6-.1-2.9-.5-3.3-.9-2-1.6.9-.5 1.4-1.4 1-1.9-.9-1.5 6.9.1 8.1 1.7zM635 404c0 .5-.4 1-1 1-.5 0-1-.5-1-1 0-.6.5-1 1-1 .6 0 1 .4 1 1zm-144 1c.8.5 1.1 1 .5 1-.5 0-1.7-.5-2.5-1s-1-1-.5-1c.6 0 1.7.5 2.5 1zm135.7-.4c-.3.3-1.2.4-1.9.1-.8-.3-.5-.6.6-.6 1.1-.1 1.7.2 1.3.5zm10.9 3.2c-1.5 1.5-1.5 1.5-.4-1 .7-1.5 1.5-2.3 1.7-1.7.2.6-.4 1.8-1.3 2.7zM520 406.5l2.5 1.5-3-.6c-3.3-.7-5.8-2.4-3.4-2.4.7.1 2.5.7 3.9 1.5zm6.5 1.5c.8 1.3-.5 1.3-2.5 0-1.3-.8-1.3-1 .2-1 .9 0 2 .4 2.3 1zm20.2-.4c-.3.3-1.2.4-1.9.1-.8-.3-.5-.6.6-.6 1.1-.1 1.7.2 1.3.5zm58.8 1.3c.3.5.1 1.2-.4 1.5-.5.3-1.1-.1-1.5-.9-.6-1.6.9-2.1 1.9-.6zM408 410c0 .5-.7 1-1.6 1-.8 0-1.2-.5-.9-1 .3-.6 1-1 1.6-1 .5 0 .9.4.9 1zm224.5 0c-.3.5-1.4 1-2.3.9-1.4 0-1.3-.2.3-.9 2.7-1.1 2.7-1.1 2 0zM523 411.4c2.6.3 3.5.8 3.5 2.2 0 1 1.1 2.4 2.5 3.1 2.2 1.1 2.3 1.3.5 1.4h-2l2 .9c1.1.5 1.4.9.7.9-.7.1-1 .5-.7 1.1.7 1.1-14.7 1.4-15.8.3-.4-.3-2.2-.7-3.9-.8-6.2-.4-12.9-4.5-7.3-4.5 1.4 0 2.8.7 3.1 1.5.4.8 1 1.2 1.5.9.6-.3 1.7 0 2.5.7 2.1 1.7 2.6.6.8-1.9-1-1.5-3-2.3-6.4-2.8-7.9-1-7-3 1.2-2.6 4.3.2 6.8 0 6.4-.6-.5-.9.9-.8 11.4.2zm116.1 0c-.7.8-2.8 1.7-4.9 2-8.5 1.5-9.5 1.8-8.2 2.6.7.5 1.9.6 2.6.3.6-.2 1.4 0 1.8.5.3.5-.9.8-2.7.7-2.4-.2-3.7.4-5.4 2.4-1.1 1.4-2.4 2.3-2.7 2-.4-.3 1.1-2.5 3.1-4.8 3.3-3.6 4.5-4.3 9.1-4.8 2.8-.3 5.2-1 5.2-1.4 0-.5.7-.9 1.6-.9 1.3 0 1.4.3.5 1.4zM531.8 414c-.7 1.1-1.8 2-2.5 2s-1.3-.9-1.3-2c0-1.5.7-2 2.5-2 2.3 0 2.4.2 1.3 2zM28 417.6c0 .2-.9.4-2.1.4-1.1 0-1.8-.4-1.4-1 .5-.8 3.5-.3 3.5.6zm512.7.3c1 1.7.8 2-1.5 2.4-1.5.3-3.1.1-3.7-.4-.7-.7-.4-.8.8-.4 1.3.6 1.7.2 1.7-1.4 0-2.6 1.1-2.7 2.7-.2zm-44.4 1.4c.3.7-.6 1.3-2.2 1.3-1.4.1-2.1-.1-1.4-.3.7-.2.9-1.1.6-1.9-.3-1 0-1.2 1-.8.9.3 1.7 1.1 2 1.7zM32 418.9c0 .5-.7 1.2-1.6 1.5-1.4.5-1.5.4-.4-.9 1.4-1.7 2-1.9 2-.6zm95 2.2c0 .5-1.9.9-4.2.9-4.4 0-4.3-1.5.2-2.2 2.9-.5 4-.1 4 1.3zm500.9.6c-4.1 5.2-4.4 5.3-8.9 5.2l-4.5-.1 5.1-1.6c2.8-1 5.9-2.5 6.8-3.5 2.2-2.2 3.3-2.2 1.5 0zm-12.1 1.2c-4.5 3.6-23.8 10-23.8 8 0-.5.7-.9 1.5-.9s4.5-1.4 8.2-3.1c3.7-1.7 8.2-3.8 9.8-4.5 1.7-.7 3.8-1.4 4.9-1.4 1.6 0 1.5.3-.6 1.9zm-596.4-.3c1.3.5 1.4.9.5 2-1.4 1.7-4.3 1.8-7.2.2-2.1-1.1-2.1-1.1-.2-1.9 2.5-1 4.9-1.1 6.9-.3zM26 424c0 2.1-1.5 2.7-2.5 1-.7-1.2.2-3 1.6-3 .5 0 .9.9.9 2zm2.5-1c.3.5.1 1-.4 1-.6 0-1.1-.5-1.1-1 0-.6.2-1 .4-1 .3 0 .8.4 1.1 1zm40.9 1.1c-1.1.3-7.5 1.2-14.4 1.8-6.9.6-14 1.4-15.7 1.7-2.7.4-3.3.2-3.3-1.4 0-1 .2-2.1.4-2.3.2-.2 8.2-.4 17.6-.5 9.5 0 16.4.3 15.4.7zm9.9-.4c-.7.2-2.1.2-3 0-1-.3-.4-.5 1.2-.5 1.7 0 2.4.2 1.8.5zm529.2 5.8c-6.9 2.9-6.8 2.8-5.9 1.4.9-1.6 6.5-3.8 9.4-3.8 1.7 0 .6.7-3.5 2.4zm188.1-.5c.9 0 1.2.5.8 1.2-.5.8 0 .9 1.5.5 1.7-.4 2-.3 1.1.7-.8 1-.5 1.2 1.4.9 1.5-.3 3.8.4 6.2 2.1 2.7 1.8 4.5 2.4 6.3 1.9 3.1-.7 2.6 0-1.4 2.1-2.7 1.4-2.6 1.5 4.1 1.1 4.1-.3 6.3-.1 5.5.4-1.1.7-1 1.1.6 2 2.4 1.2 3.6 4.8 1.9 5.5-.6.2-.3.5.7.5 1 .1 3.6 1.6 5.7 3.3 3.6 3 4 3.8 4 8 0 4.4.2 4.8 2.5 4.8 2 0 2.5-.5 2.5-2.5 0-1.4.4-2.5 1-2.5 2 0 3 4.1 3 12.2 0 7.2-.3 8.6-2 9.8-1.1.8-2 2-2 2.6 0 .6-1.8 1.4-4 1.8-2.2.3-4 1.1-4 1.6 0 .6-1.8 1-4 1-4.5 0-5.2 1.6-2 4.5 1.1 1 2 2.2 2 2.7 0 1.3-3.8.9-4.3-.5-.3-.6-.6-.2-.6 1-.1 1.2 1.5 3.9 3.4 6 2.9 3.1 3.7 3.5 4.5 2.3.8-1.2 1-1.1 1 .7 0 1.3.8 2.4 2 2.8 1.1.3 2.3 1.8 2.6 3.3 1 3.9 1.5 4.6 2.5 3.1.7-1.1.9-1 .9.3 0 1 .4 1.8.8 1.8 1.5 0 .9 3.4-.8 5.2-1.6 1.8-1.8 1.7-3.8-.1-1.2-1-2.2-2.3-2.2-2.9 0-.6-.3-1.2-.7-1.4-1.8-.8-11.3-13.1-11.3-14.6s.2-1.5 1-.2 1 1.3 1-.2c0-.9-.7-2.4-1.5-3.2-1.2-1.2-1.3-2-.5-3.5.5-1.1.9-3.2.9-4.8-.2-2.3-.2-2.4-.6-.6-.5 2.8-2.3 3-2.3.3 0-1.1-.5-2-1-2-.6 0-.8 1-.6 2.2 1.4 6.8 1.6 9.2.6 7.8-.5-.8-1-2.4-1-3.6 0-1.1-.4-2.4-.9-3-.5-.5-1.9-3.6-3.1-6.9-4.3-11.7-4.7-12.5-5.1-12.1-.3.3-1.8-3-3.3-7.2-2.7-7.3-4.2-10.8-12.2-28-3.6-7.7-4.1-9.3-2.2-7.4 1.8 1.8 3.2 1.4 1.7-.5-1.2-1.5-1.2-1.6.4-1 1 .4 2.5.7 3.3.7zm-394.9 5.2c-.3.8-.6.5-.6-.6-.1-1.1.2-1.7.5-1.3.3.3.4 1.2.1 1.9zm11.6-.5c-.5 1.2-.3 1.4.7.8.8-.5 1.1-.4.7.3-.8 1.1-4.7.5-4.7-.8 0-.8 1.6-1.7 3.2-1.9.4-.1.4.6.1 1.6zm438.8 20c1.3 1.6 1.2 1.7-.3.4-1-.7-1.8-1.5-1.8-1.7 0-.8.8-.3 2.1 1.3zm-8.4.9c-.3.3-1.2.4-1.9.1-.8-.3-.5-.6.6-.6 1.1-.1 1.7.2 1.3.5zm6.3 8.4c0 .5-.5 1-1.1 1-.5 0-.7-.5-.4-1 .3-.6.8-1 1.1-1 .2 0 .4.4.4 1zm-314 31c0 .5-.8 1-1.7 1-1.5 0-1.6-.2-.3-1 1.9-1.2 2-1.2 2 0zm0 3c0 .5-.2 1-.4 1-.3 0-.8-.5-1.1-1-.3-.6-.1-1 .4-1 .6 0 1.1.4 1.1 1zm-353.6 12.9c-3.7 7-8.4 12.9-6.8 8.5 1.3-3.3 9.6-16.5 10.1-16 .3.2-1.2 3.6-3.3 7.5zm-18.9 109.6l5 1.4-6.5-.7c-13.8-1.5-36.8-.6-55.5 2.2-9.9 1.5-20.7 3.4-24 4.2-11.9 3-29.1 8.7-34.7 11.5-3.2 1.6-5.8 2.5-5.8 2.1 0-1.2 14.8-7.5 26-11.1 14.2-4.7 46.6-10.2 66.5-11.5 9.6-.6 23.6.3 29 1.9zm532.7-.3c-.7.7-1.2.8-1.2.2 0-1.4 1.2-2.6 1.9-1.9.2.3-.1 1.1-.7 1.7zm4.9 3c.8 1.5.8 1.8 0 1.4-.6-.4-1.6-1.6-2.2-2.8-.8-1.5-.8-1.8 0-1.4.6.4 1.6 1.6 2.2 2.8zm-6.4 2.5c-.3 1-.5.4-.5-1.2 0-1.7.2-2.4.5-1.8.2.7.2 2.1 0 3zM106 626c0 .5-.7 1-1.5 1s-1.5-.5-1.5-1c0-.6.7-1 1.5-1s1.5.4 1.5 1zm593.2 2.2c-.7.7-1.2.8-1.2.2 0-1.4 1.2-2.6 1.9-1.9.2.3-.1 1.1-.7 1.7zm-5 2.3c.3 1.3.1 2.2-.3 1.9-.9-.5-1.3-4.4-.5-4.4.2 0 .6 1.1.8 2.5zm-2.7 7.1c-.4 4.3-1.5 5.8-1.5 2.1 0-2.4.9-5.7 1.5-5.7.2 0 .2 1.6 0 3.6zm-381.8 6.5c.7 1.6.8 3.1.2 4-.6 1-.9.7-.9-1.2 0-1.4-.5-3-1.2-3.7-.6-.6-1.3-2.2-1.5-3.4-.3-2.2-.3-2.2 1-.3.7 1.1 1.8 3.2 2.4 4.6zm384-.9c-.3.7-.5.2-.5-1.2s.2-1.9.5-1.3c.2.7.2 1.9 0 2.5zM162 644.7c0 1.4-27.1 11.2-31 11.2-1.4 0 2-1.5 7.5-3.3 5.5-1.9 12.5-4.5 15.5-5.9 5.8-2.7 8-3.2 8-2zm129.4 2.9c.9.3 1.6 1.2 1.6 2 0 .7.8 1.8 1.8 2.3 3.7 2 18.1 29.1 14.7 27.8-.8-.4-1.5-.2-1.5.3s.8 1.1 1.8 1.4c1 .4 1.9 1.2 2 1.9.1.6.4 2.4.8 3.9.4 1.8.1 3.6-1 5.3-.9 1.3-1.6 2.7-1.6 3 0 1.1 2.9.4 3.3-.8.2-.6.7.8 1.2 3.2.6 3.6.4 4.7-.9 5.6-2.1 1.6-2.2 7.5-.1 7.5 1.2 0 1.5 1.5 1.5 7.6v7.6l-2.2-1.6c-1.3-.9-3.4-2.1-4.7-2.6-2.2-1-2.2-1.1-.7-3.5.9-1.3 1.6-3.6 1.6-5.1 0-2.4-.2-2.5-3.7-2.1-5.2.7-9.2-2.7-9.6-8.1-.1-2.1-1.2-5.1-2.3-6.7-2-2.7-2.3-2.8-3.8-1.3-.9.9-2 2.7-2.4 3.9-.8 2.1-1 2-3-1.5-1.2-2-2.8-3.9-3.7-4.2-1.1-.5-1.2-1.1-.4-2.5.5-1.1.7-2.4.4-2.9-.3-.6.5-1 1.9-1 3.2 0 3.3-1.3.2-3.7-1.9-1.5-2.2-2.5-1.8-5.3.5-3.3.4-3.4-1.3-2-1.6 1.3-1.9 1.2-3.3-.8-3-4.6-5.8-1.1-3.1 4 .9 1.7.9 2-.3 1.6-.7-.3-2.4.3-3.7 1.3-2.3 1.9-2.3 2-.5 3.4 1 .8 2.9 1.5 4.1 1.5 1.4 0 2.4.9 3.2 3 .9 2.7.8 3-1 3-1.5 0-1.9.7-1.9 3.5 0 4.6 1.6 7.8 4.8 9.8 1.7 1 2.1 1.7 1.2 1.7-.9 0-2.6-.8-4-1.7-1.4-1-4.2-1.6-6.9-1.6-2.5.1-3.7-.1-2.5-.4 3.3-.7 4.7-4.3 3.9-10.2-.6-4.7-.9-5.1-2.8-4.5-3.6 1-6.7 3.3-6.7 4.9 0 .8-.7 1.5-1.6 1.5-1.3 0-1.5-.7-1-3.4.4-2 .2-3.7-.4-4.1-.6-.4-1 .6-1 2.5 0 3.4-1.6 3.7-3.4.7-.8-1.3-.7-2 .4-2.7 1-.7 1.1-1 .2-1-1 0-.9-.5.2-2.3 3.4-5.2 2.7-14.7-1-14.7-1.4 0-1.4-.3-.4-1.6 1.2-1.3 1-1.4-1.6-.3-1.6.7-3.3 1.7-3.9 2.2-.7.7-.6.7.3.3.6-.4 1.2-.3 1.2.2s-1.3 1.2-3 1.4c-3.8.6-3.8-.3-.1-2.5 1.6-.9 5.2-3.5 8.1-5.6 3-2.2 5.7-3.8 6.2-3.5.5.3 2.1-.5 3.6-1.8s5.4-3.4 8.7-4.8c3.3-1.4 8.5-3.7 11.5-5.2 6.2-3 6.3-3 8.4-2.2zM128 657c0 .5-.5 1-1.1 1-.5 0-.7-.5-.4-1 .3-.6.8-1 1.1-1 .2 0 .4.4.4 1zm-4.5 1c-4.6 1.8-13.5 4-18.6 4.5l-5.4.5 5.5-1.9c3.1-1.1 6.9-2 8.5-2 1.7 0 4.4-.4 6-.9 3.7-1.2 6.8-1.4 4-.2zm-9.5 5.5c0 1.3-6.5 3.6-9.3 3.3-3.1-.3-3-.4 1.8-2 5.3-1.7 7.5-2.1 7.5-1.3zm-66.7 1.2c-.7.2-1.9.2-2.5 0-.7-.3-.2-.5 1.2-.5s1.9.2 1.3.5zm22.2 1.4c2.7.8 2.6.8-1 .4-2.2-.3-7.3-.5-11.2-.5-4 0-7.3-.4-7.3-.8 0-1.1 15.4-.3 19.5.9zm45.5 1.5c0 .8-.5 1.2-1 .9-.6-.4-.8-1.1-.5-1.6.9-1.4 1.5-1.1 1.5.7zm769 2.4c-1.3.8-1.3 1 0 1 1 0 .9.4-.5 1.4-2.6 1.8-10.2 2.5-13.7 1.3-4.2-1.4-3.5-3.1 1-2.4 2.3.4 3.2.3 2.3-.3-1.5-.9 1.5-1.5 8.9-1.8 2.6-.1 3.1.1 2 .8zm-789 1c0 .5-.5 1-1.1 1-.5 0-.7-.5-.4-1 .3-.6.8-1 1.1-1 .2 0 .4.4.4 1zm20-.6c0 1.1-1.9 1.5-2.5.6-.3-.5.1-1 .9-1 .9 0 1.6.2 1.6.4zm138.4 3.3c.3 1 .9 2.4 1.2 3 .3.7.2 1.3-.4 1.3-.7 0-3.2-4.2-3.2-5.5 0-1.3 1.8-.3 2.4 1.2zm-173.7.8c2.3.4 5.2 1.5 6.4 2.6 1.2 1 2.8 1.9 3.6 1.9.7 0 1.3.9 1.3 2.1 0 1.6.4 1.9 2 1.4 1.5-.5 2-.2 2 1.4 0 1.1.7 2.6 1.5 3.5.8.8 1.5 2.2 1.5 3 0 .9.5 1.6 1 1.6.7 0 .7.6 0 2-.9 1.6-.8 2 .5 2 1.9 0 1.9.5-.1 3.5-1.6 2.5-1.6 2.5 1.7 2.5 1.9 0 5.1-.4 7.1-.9 2.9-.7 4.3-.5 6.8 1 1.7 1.1 3.6 1.9 4.3 1.9.7 0 3.2.9 5.5 2 2.2 1.1 5.9 2 8.2 2 5.4 0 12.2 2.2 11.6 3.7-.3.7.1 1 1 .6.7-.3 1.4-.9 1.4-1.4 0-.9 4 .9 5 2.3.3.4 2.9.8 5.8.9 4.3.2 5.5-.2 7.1-2 1.1-1.3 1.7-2.9 1.4-3.7-.6-1.6 1.2-1.9 2.2-.4.3.5 2 1 3.6 1 2 0 2.9.4 2.6 1.2-.2.7.3 1.8 1.2 2.5 1.4 1.1 1.3 1.2-.6 1.3-3.9 0-2.5 1.6 2.4 2.7 3.6.9 5 .8 5.5 0s.8-.6.8.6c0 1 .3 1.6.8 1.3.4-.2 1.6.3 2.7 1.1 1.9 1.4 1.8 1.5-1.5.9l-3.5-.7 3.5 2.1 3.5 2.1-4-.6c-9.4-1.4-16.4-1.3-17 .3-.4 1.2-.8 1.3-1.7.4-1.6-1.6-2.8-1.5-2.8.3 0 2.1-3 1.9-3.1-.3 0-.9-.3-1.2-.5-.5-.8 1.8 1.6 5.5 3.1 4.9 1.6-.6 2.4 2.6 1.9 7.4-.9 8.7-1.7 12.6-2.5 13.4-.5.6-.9 1.9-.9 3 0 1.7-.2 1.8-1 .6-.8-1.3-1-1.3-1 .2 0 2.6-2.2 6.8-3.5 6.8-.7 0-1.5.9-1.8 2.1-.3 1.2-1 1.8-1.6 1.4-.6-.3-1.1-.2-1.1.3 0 1.1-4.7 2.7-6.7 2.3-.7-.1-1.3.3-1.3.9 0 1.8-3.7 1.1-4.3-.9-.2-1.1-2.1-2.4-4.3-3.1-2.1-.7-4.5-1.9-5.2-2.7-.8-.7-1.8-1.1-2.3-.8-.5.4-.9-.5-.9-1.9 0-3-3.1-6.6-5.7-6.7-1.3 0-1.1-.3.7-1.1 2.5-1.1 2.5-1.1.3-1.5-3.3-.6-2.8-2.3.7-2.3 2.8 0 10-5.1 10-7.1 0-1.4-2.7-1-3.3.5-.8 2.1-8.1 2.8-11.9 1.2l-3.3-1.4 3.6-.1c7.3-.2 9.9-1.2 9.9-3.8 0-2-.3-2.2-1.9-1.3-2.6 1.3-7.4 1.3-10.6-.2-3.3-1.5-3.2-2.7.3-2.7 7.9-.1 7.9-.2 2.2-2.9-5.7-2.7-9.8-3.2-13.9-1.8-1.5.5-2.1.5-1.7-.2.3-.6 2.5-1.3 4.9-1.7 2.3-.4 5.1-1.4 6.2-2.1 1.8-1.3 1.6-1.4-2.1-1.4-2.2 0-6.4.6-9.4 1.4-3 .8-5.7 1.3-6.1 1.1-.3-.2-2.4.3-4.8 1.1-4.3 1.4-6.7 1.1-5.5-.8.4-.6-.9-.9-3.6-.6l-4.2.3-2.5-6.8c-1.5-3.8-3.1-6.7-3.9-6.7-.8 0-1.4-.6-1.4-1.3 0-.7-.9-2-2-3-2.4-2-2.5-4-.4-7.2 1.5-2.3 1.5-2.9-.1-7.9-1.4-4.5-1.5-5.7-.4-7.7.7-1.3 1.4-3.2 1.6-4.1.4-2.6 3.6-5.7 5.3-5.3.8.2 3.4.6 5.7 1zm160.4 1.8c-1 .9-1.1.8-.5-.6.3-1 .9-1.5 1.2-1.2.3.3 0 1.1-.7 1.8zm614.7 2.3c3.2.4 5.2 1.2 5.2 1.9 0 1.5 2.7 2.8 4.1 2 .5-.4 1.9.3 3.1 1.4 1.2 1.2 2.8 2.1 3.5 2.1 1.6 0 1.6 0-.3 3.9-.9 1.8-1.3 4.2-1 5.6.3 1.3.2 2.7-.4 3-.5.3-1-.1-1-.9 0-.9-.4-1.6-1-1.6-.5 0-1 .4-1 .9 0 .6.5 1.3 1 1.6 1.4.9 1.3 4.8-.2 6.3-.7.7-2.4 1.2-3.8 1.2-3 0-7.1 2.6-6.9 4.3.3 2.6-.2 3.6-2 4.2-3.2 1-6.2 4.1-5.5 5.9.5 1.2 0 1.6-1.9 1.6-1.6 0-3.5 1.1-5 3-1.4 1.6-3.1 3-3.7 3-.6 0-1.8.6-2.5 1.2-.8.7-2 1.8-2.7 2.3-2.1 1.7-10.3 4.6-12.4 4.4-1-.1-3.4-.1-5.1-.1-2.8.2-3.3.6-3.3 2.6s-.7 2.4-4.2 3.1c-2.4.4-5.8.8-7.7.9-2.7.1-3.8.8-5.1 3.1-1.1 1.9-2.4 2.9-3.4 2.7-1.1-.2-2 .5-2.3 1.7-.4 1.6-1.3 2.1-3.9 2.1-3.6 0-8.5 1.6-9.5 3.1-.3.5-3.3 1.5-6.7 2.1-3.4.6-6.2 1.5-6.2 2 0 1.1-3.8 1-4.5-.2-.3-.6-1.9-1-3.5-1-2.2 0-2.9-.6-3.5-2.8-1.7-7.1-13.4-20.7-22.3-25.9-3.7-2.2-4.2-2.8-2.7-3.1 1.1-.2 2.9-.7 4-1.1 1.1-.5 5.8-2 10.5-3.4 19.2-5.8 25.2-7.8 28.3-9.7 3.7-2.3 6-2.7 3.1-.5s-.6 1.8 3.3-.6c2.6-1.6 3.7-1.9 4.6-1 .6.6 1.8 1.1 2.6 1.1 1 0 .5-.7-1.2-1.9l-2.8-1.8 2.5-1.7c1.4-.9 3-1.6 3.6-1.6.5 0 1-.5 1-1.1 0-.7 1-.9 2.8-.5 1.7.4 2.2.3 1.4-.2-1.8-1.2 11.1-7.4 13.5-6.5 1.1.4 1.4.3.9-.5-.4-.7-.1-1.2.8-1.2s1.6.5 1.6 1c0 .6.6.5 1.4-.2.8-.7 1.2-1.6.9-2-.7-1.2 10.4-5.9 12.2-5.2 1 .4 1.5.2 1.3-.6-.2-.7.3-1.5 1.1-1.8.8-.3 1.1 0 .7.7-.9 1.5 1.7 1.4 3.2-.1.6-.6 2.5-1.1 4.2-1 3.2.1 6.2-3.2 3.7-4.1-1.2-.5 8.3-1.1 13.3-.9 2.3.1 2.3.1.5-.8-1.1-.5-3.6-.7-5.5-.4-3 .3-3.2.2-1-.5 1.4-.5 3.4-.8 4.5-.5 1.1.2 4.4.7 7.3 1zM253 682c-.6 1.1-1.3 2-1.5 2-.3 0-.5-.9-.5-2s.7-2 1.5-2c1.3 0 1.4.4.5 2zm-25 9.5c-.7.9-1.5 1.3-1.7 1.1-.7-.7.7-2.6 1.9-2.6.6 0 .6.6-.2 1.5zm3.5 1.9c0 1.8-.3 2.2-1.2 1.4-.6-.5-.9-1.6-.6-2.4.8-2.2 1.8-1.7 1.8 1zm500.5-1c0 .3-.4.8-1 1.1-.5.3-1 .1-1-.4 0-.6.5-1.1 1-1.1.6 0 1 .2 1 .4zm-7.8 3.8c-.7.7-1.2.8-1.2.2 0-1.4 1.2-2.6 1.9-1.9.2.3-.1 1.1-.7 1.7zm-614.7-.2c-.3.5-1.2 1-1.8 1-.7 0-.6-.4.3-1 1.9-1.2 2.3-1.2 1.5 0zm135.5 1c0 .7 1.3.8 3.5.4 3.8-.7 5.2 1.4 1.5 2.3-1.1.3-1.8.8-1.6 1.2.2.3-1.6.4-4 .3l-4.3-.4 1.7-2.4c1.8-2.5 3.2-3.1 3.2-1.4zm488.7 3.7c.1 3.3-.1 3.5-.9 1.6-.9-1.9-.6-5.3.5-5.3.2 0 .3 1.7.4 3.7zM254.3 703c.9 1.1 1.3 2 .8 2-.4 0-1.6-.9-2.6-2s-1.4-2-.9-2c.5 0 1.7.9 2.7 2zm86.2 3c.3.5.1 1-.4 1-.6 0-1.1-.5-1.1-1 0-.6.2-1 .4-1 .3 0 .8.4 1.1 1zm-2.5 2.1c0 .7 1.1.9 3 .6 1.6-.4 3.2-.2 3.5.2.5.9-5.4 2-7.4 1.3-1.4-.5-1.5-3.2-.1-3.2.6 0 1 .5 1 1.1zm-110.9 5.5c.5 1.5.8 2.9.5 3.1-.2.2-.8-1-1.4-2.6-1.3-3.8-.5-4.1.9-.5zm28.1 3.6c.4 2.6-.1 3.3-3.4 5.5-2.1 1.4-4 2.4-4.3 2.1-.4-.3.7-5.3 1.9-9.3.2-.6 1.5-1.1 2.9-1.1 2.1-.2 2.6.3 2.9 2.8zM266 715c0 .5-.5 1-1.1 1-.5 0-.7-.5-.4-1 .3-.6.8-1 1.1-1 .2 0 .4.4.4 1zm77 3.4c0-.5.4-.4.8.3.5.8 1.6.8 4.5-.2 3.4-1.1 5.1-.5 2.7 1-.6.4-.8 1.1-.4 1.6.3.6-.3 1.3-1.5 1.6-1.2.3-2.1 1-2.1 1.6 0 1.8-9 9.8-10.2 9.1-.9-.6-.9-.9 0-1.2.7-.2 1-.8.6-1.3-.3-.5.2-.9 1-.9 1 0 1.6-.9 1.6-2.5 0-1.4-.5-2.4-1.2-2.3-1.7.4-2.1-3.2-.8-6.6 1-2.8 1.1-2.8 3-1.1 1.1 1 2 1.4 2 .9zm-112.6 2.8c.6.5.1.8-1.1.8-2.5 0-2.6-.1-1.6-2.6.5-1.4.8-1.5 1.1-.3.3.7 1 1.7 1.6 2.1zm-29.9 1.7c-.3 1.2-1.1 2.1-1.6 2.1s-.9.5-.9 1.1c0 .5.5.7 1 .4.6-.3 1 0 .9.7-.1 1.8-1.7 5.6-1.8 4.2-.1-.6-1.2-2.7-2.6-4.7-1.3-2-2-3.9-1.5-4.2.6-.4 1-.1 1 .4 0 1.8 2.9 1.2 4.2-.9 1.5-2.4 2.2-1.9 1.3.9zm24.5-.4c-.7.9-1.5 1.3-1.7 1.1-.7-.7.7-2.6 1.9-2.6.6 0 .6.6-.2 1.5zm-4.3 1.7c-.3.8-.6.5-.6-.6-.1-1.1.2-1.7.5-1.3.3.3.4 1.2.1 1.9zm58 2.8c.4 0 1.5-.5 2.3-1 1.3-.8 1.2-1-.2-1-1 0-1.8-.5-1.8-1.1 0-.8 1.3-.9 4.2-.5 5.3.9 6.1 1.4 5.5 3.7-.3 1.1-.1 1.7.4 1.3.5-.3.9-.1.9.4 0 1.6-1.3 2.2-2.6 1.1-1.6-1.3-4.8-.4-3.9 1.1.3.5 1.5 1 2.7 1 1.4 0 1.8.5 1.4 1.6-.3.9-.6 1.8-.6 2 0 .2-.9.4-2 .4s-2-.7-2-1.5-.7-1.5-1.6-1.5c-1.4 0-1.4-.3-.4-1.5.7-.9 1-1.9.6-2.3-.8-.7-1.3-.8-4.1-1.1-.8 0-1.5-.9-1.5-1.8 0-1.4-.3-1.4-2 .5-1.4 1.5-2 3.5-2 6.8v4.7l-2.3-2.1c-1.3-1.2-3.1-2.2-4-2.2-2.2 0-2.5-1-1.5-4.8.9-3.3 1-3.3 5.1-2.8 2.3.3 3.6.3 3 0-2.2-1-1.4-2.3 1.5-2.6 1.8-.2 2.9.3 3.4 1.4.4 1 1.1 1.8 1.5 1.8zm14.6.4c.4 1 .1 1.3-.8.9-.8-.3-1.2-.9-.9-1.4.7-1.2 1.1-1.1 1.7.5zm-193.6.2c-.3.3-1.2.4-1.9.1-.8-.3-.5-.6.6-.6 1.1-.1 1.7.2 1.3.5zm261.6 0c.4.4-.3 2-1.5 3.6-2.5 3.6-4.5 2.4-2.7-1.5 1.2-2.6 2.9-3.4 4.2-2.1zm281.7 4c3.4 1.2 7.4 1.5 16 1.2 6.3-.1 18.7-.2 27.6-.2 15.3.1 16.2.3 20 2.6 5.1 3.3 9 7.8 12.4 14.3 3.9 7.5 4.7 12.8 2.4 17.1-1 1.9-2.1 3.4-2.5 3.4-.4 0-2.5 1.8-4.7 4.1-3.5 3.5-4.4 3.9-6.1 2.9-1.6-.8-2.1-.8-2.1.2 0 .8-.9 2-2 2.8-1.1.8-2 2-2 2.7 0 .6-.9 1.9-2.1 2.7-1.2.8-1.9 1.8-1.6 2.3.3.5-.4 1.8-1.5 2.8-2.4 2-8.8 3.8-8.8 2.4 0-.5-.9-.9-2.1-.9-1.5 0-1.9-.5-1.5-1.6.3-.8.2-1.2-.4-.9-.6.3-1 1.4-1 2.4s-.7 2.4-1.5 3.1c-.8.7-1.5 2.1-1.5 3.1 0 1.2-.7 1.9-2 1.9-1.1 0-2 .4-2 .9s-1.3 1.2-3 1.6c-3.8.8-9.6 9.4-22 32.5-5.1 9.6-11.2 20.6-13.5 24.5-2.3 3.8-5.2 8.8-6.3 11-2.9 5.8-5.6 8.5-9.9 10-3.1 1-5.3 3.3-11.5 11.6-12.1 16.4-13.7 17.9-19.3 17.9-2.5 0-8.5-1.1-13.3-2.4-9.1-2.5-18.5-4.2-16.5-2.9.6.5-.7.9-3 1-2.3.1-5.5.4-7.2.5-2 .2-2.9-.1-2.7-1 .1-.6-.5-1.2-1.4-1.2-.8 0-1.2.4-.9 1 .3.5 0 1-.7 1.1-1 0-1 .2 0 .6 2.1.8 1.3 2.5-.9 1.8-3-1-16.8-2.6-21.9-2.6-2.7 0-3.8-.3-2.8-.7 1-.4-1.8-.7-6.2-.8-4.3 0-8.5-.5-9.2-1.1-.7-.6-2.4-1.4-3.8-1.8-6.2-1.9-14-5.9-12.8-6.6 1.7-1.1-1.8-3.8-5.2-4-3.4-.2-7.3-.7-14.5-1.7l-6-.9 5.5-.2c3-.1 11.5-.6 18.9-1 12.3-.7 13.5-.7 15.2 1 1.2 1.2 3.5 1.9 6.2 2 7.3.2 11.5.7 13.6 1.8 1.1.6 2.9 1.1 4 1.1 1.2 0 2.1.7 2.1 1.5 0 .9.9 1.5 2.4 1.5 2.2 0 2.3-.2 1.3-2.5-1.3-2.7-2.7-3.5-10.6-6.2-5.2-1.7-5.3-1.8-2.5-2.4 4.3-1 38.2-.9 35.9 0-2.3 1 8.6 2 25.3 2.4 7 .2 10.6.7 11.1 1.6.5.8 2.7 1.1 6.4 1 5.9-.2 5.7-.2 8.6-7.2.6-1.7.7-2.7.1-2.7-2.3 0-.9-3.8 1.6-4.4 1.8-.5 2.4-1.2 2-2.2-.3-.8-.1-1.2.4-.9.5.3 1.2-.6 1.6-2.1.8-2.9-1.8-8.9-4.2-9.8-.8-.3-4.3-2.9-7.9-5.7-5.6-4.5-6.5-5.7-6.5-8.5 0-4.6 2.3-9.4 6.5-13.4 5.4-5.2 10.8-12.8 9.9-14.1-.5-.8-.3-.9.6-.4 1 .6 1.2.4.7-.8-.4-1.1-.1-1.7.8-1.7s1.2-.6.8-1.7c-.4-1-.2-1.4.4-1 1.2.8 2.3-1.4 2.3-4.6 0-1.8.2-2 1.1-.7.9 1.2 1 1.1.6-.8-.3-1.2-.1-2.2.3-2.2.5 0 1.5-1.4 2.4-3 .8-1.7 1-2.7.4-2.4-.6.4-.6-.2.1-1.5.7-1.1 1.4-2.1 1.7-2.1.3 0 .2.6-.2 1.2-.5.7.8-.3 2.7-2.2 1.8-2 5.1-5 7.3-6.8 5.9-5.1 3.4-5-3.6.2-3.9 2.8-9.2 8.3-13.9 14.3-4.1 5.4-9.8 11.5-12.6 13.6-3.9 2.9-5.7 5.2-7.8 10-1.5 3.4-3.9 8.7-5.3 11.7-1.5 3-2.5 5.8-2.4 6.2.2.9-9.1-5.5-12.4-8.4-2.1-1.8-2.5-1.9-7.5-.4-4.8 1.5-5.8 1.5-9.9.1-2.9-1-5.4-2.8-7-4.9-1.4-1.9-2.8-3-3.1-2.5-.6 1-1-2.8-1.1-9.1 0-3.2-.6-4-5.6-7.3l-5.6-3.8 6.1.3c5 .2 6 .5 5.5 1.7-.3.9 2.6-2 6.5-6.4 8.6-9.7 17.4-18.3 26.8-26 8.2-6.8 8.3-7 10.1-14.7.8-3.2 2.2-7.5 3.3-9.6 2.3-4.4 12.3-14.2 17.1-16.7 11.8-6.2 25.8-8.1 35-4.9zm-361.8 4.2c-.7.2-1 .8-.6 1.3.3.5 0 .9-.5.9-1.3 0-1.3-.3-.5-2.4.3-.9 1.1-1.3 1.7-.9.8.5.7.8-.1 1.1zm25.7 2.7c1.3 2.5 2 5.3 1.7 6.1-.5 1.4.5 1.5 8.5.9 8.8-.7 13.3-1.6 24.9-5 4.6-1.3 9.1-1.5 27.2-1.1 23.6.5 22.6.3 33.8 7.6 5.1 3.3 19.7 10.9 25 13 6.1 2.5 11.8 7.2 15.6 12.9 2.1 3.1 5.9 7.7 8.5 10.3 2.5 2.6 5.9 6.3 7.3 8.1 2.7 3.4 2.8 3.4 13.3 4 5.8.3 10.8.9 11.2 1.4 1.8 2.7 4.5 3 8.9 1.1 5.9-2.6 13.2-2.1 16.7 1.2 3.1 2.9 3.1 3.7.3 4.6-1.3.4-2.9 1.5-3.6 2.5-.7 1.1-2.1 1.9-3 1.9-1 0-1.3-.3-.6-.8.6-.4 1.3-1.5 1.7-2.5.6-1.5.4-1.6-1.6-.6-1.2.7-3.2 2.3-4.4 3.6-2 2.1-3 2.3-13 2.4-11.8.1-19.1 1-26.8 3.2-4 1.2-6.2 1.2-10.5.4-6.7-1.3-25.5-1.1-32.7.4-6.3 1.3-10.2 5.1-8.1 7.9.7.9 2.7 3.6 4.4 5.8 2 2.6 3.4 6 3.9 8.9.4 2.7 1.7 7.3 3 10.3 1.2 3 2.8 8.1 3.5 11.2 1.1 5.5 2.9 7.4 4.5 4.8 1.2-2 2.5-.9 6.5 5.2 4.3 6.9 5.4 10.7 2 7-1.6-1.7-3.3-2.2-7.8-2.4-5.3-.1-5.4-.1-1.7-.7l4-.6-2.9-2.8c-2.6-2.5-2.8-2.6-2.3-.7.4 1.6-.1 2.4-1.9 3.2-3.9 1.8-2.8 3.3 2.4 3.4 6.6.1 9.2.7 9.2 1.9 0 .7-.6 1.2-1.2 1.2-.7 0-4.9.8-9.3 1.7-10 2.2-13.6 1.5-19.6-3.5-3.7-3-4.7-4.6-4.6-6.6.1-1.4-.4-2.7-1.1-2.9-.7-.1-.8 0-.2.3 1.2.6 1.3 3.3.1 3.3-1.1 0-8.1-6.9-8.1-8.1 0-.4-1.6-2.1-3.5-3.6s-3.5-3.1-3.5-3.5c0-1.4-6.6-9.3-8.1-9.6-2-.5-3.9-2.2-3.9-3.6 0-1.5-4.8-3.6-8.3-3.6-2.4 0-2.8.3-2.2 1.7.3 1 .9 3.1 1.2 4.8.3 1.6 1.8 4.1 3.3 5.5 1.5 1.4 3.7 4.6 4.8 7.3 1.5 3.4 2.6 4.7 4.1 4.7 1.2 0 2.1.4 2.1 1 0 1.6-15.3 1.2-17.6-.5-1.9-1.4-1.9-1.4.1-1.5 1.7 0 1.6-.3-.9-2.4-2.4-1.9-3-3.1-3-6.2 0-3.7-.3-4.5-3.3-7.9-.7-.7-1.3-1.8-1.3-2.3 0-.5-1.4-2-3.1-3.2-2.3-1.8-2.9-2.9-2.4-4.7.3-1.3.2-2.3-.2-2.2-2.4.4-3.3-.5-4.4-4.1-.7-2.2-1.8-4-2.4-4-.7 0-1.6-.8-1.9-1.8-1.3-3.4-3.1-6.2-4-6.2-.5 0-1.5.8-2.2 1.7-1.2 1.6-1.3 1.4-1.4-1.6 0-2.8-.3-3.2-1.7-2.6-1 .4-2.7.7-3.8.7-1.1-.1-2.3.4-2.8 1.1-.5.8-.7.7-.5-.4.4-2-5.3-6.9-8-6.9-1.1 0-3.9-.9-6.2-1.9-3.4-1.5-4.8-1.7-6.7-.8-1.2.5-2.3 1.4-2.3 1.9 0 .4-.9.8-2.1.8-1.1 0-2.9.5-4 1-1.4.8-1.9.7-1.9-.1 0-.9-.3-.9-1.4 0-1.1.9-1.5.7-1.9-.9-.3-1.1-1.7-2.4-3.2-3-1.4-.6-3.3-1.7-4.1-2.5-.9-.8-2.4-1.5-3.5-1.5s-2.3-.8-2.6-1.8c-1.3-3.4-4.8-7.2-6.3-7-1.9.3-9-3.2-9-4.4 0-.5-.8-.8-1.7-.8-.9 0-2.4-.6-3.2-1.4-2-1.8-6.9-2.8-7.6-1.5-.7 1.1-3.6 1.2-3.4.1.4-2.2-.3-3-2.1-2.5-1.1.3-2 .9-2 1.2 0 1.3-4.5.6-5.6-.8-.6-.8-1.8-1.1-2.8-.8-.9.4-1.6.3-1.6-.1 0-.5-3.7-1.3-8.2-1.9-9.3-1.3-12.3-1.9-13.8-2.8-.6-.4-1.8-.1-2.7.7-1.5 1.1-1.6 1.1-1-.4.3-1 .2-2-.3-2.3-.6-.4-1-.1-1 .6s-.2 1-.5.8c-.2-.3.4-4.5 1.4-9.4 1-5 2.5-13 3.2-17.8.7-5.3 1.8-9.1 2.5-9.4 1.2-.4 11.5 1.2 23.4 3.8 2.5.5 5.6.9 7 .9 1.4 0 4.2.3 6.3.6 3 .5 3.7.3 3.7-1 0-.9.5-1.6 1.1-1.6.6 0 .8.9.4 2-.6 1.8-.2 2 3.9 2 2.5 0 4.6-.5 4.6-1 0-.6-.9-1-2-1s-2-.4-2-.9-1-1.1-2.2-1.3c-1.8-.2-2.4-1.1-2.6-3.6-.3-2.7 0-3.2 1.9-3.2 2.2 0 2.2 0 .3 1.5-1.8 1.3-1.7 1.4 1.4 2.1 1.7.3 3.2 1.3 3.2 2 0 1.6 3.5 5.4 5 5.4.6 0 1-.5 1-1 0-.6.8-1 1.8-1 1.4 0 1.5-.2.2-1-.8-.5-1.1-1.2-.8-1.5 1.1-1.1 2.8.5 2.8 2.6 0 1.5.5 1.8 2.3 1.4 2.9-.8 24.5-1.1 32.6-.6l6.4.5.3-3.5c.1-1.9 0-2.7-.4-1.8-.6 1.2-1.1 1.3-3 .3-2-1-2.1-1.3-.7-2.4.8-.7 1.5-1.9 1.5-2.6 0-2.7 1.7-1.3 3.9 3.1zm48.1-2c-.7.8-1.6 1.5-2.1 1.5s-.6-.7-.3-1.5c.4-.8 1.3-1.5 2.1-1.5 1.3 0 1.3.3.3 1.5zM237 741c0 .5-.4 1-1 1-.5 0-1-.5-1-1 0-.6.5-1 1-1 .6 0 1 .4 1 1zm13.7 3.6c-.3.3-1.2.4-1.9.1-.8-.3-.5-.6.6-.6 1.1-.1 1.7.2 1.3.5zm-113.2 24.3c-.6.5-2.5-1-2.5-2 0-.5.6-.4 1.4.3.8.7 1.2 1.5 1.1 1.7zm-24.7 9.8c-1 .2-2.8.2-4 0-1.3-.2-.5-.4 1.7-.4 2.2-.1 3.2.1 2.3.4zm-14.5 1c-.7.2-2.1.2-3 0-1-.3-.4-.5 1.2-.5 1.7 0 2.4.2 1.8.5zM706 783c0 .5-.5 1-1.1 1-.5 0-.7-.5-.4-1 .3-.6.8-1 1.1-1 .2 0 .4.4.4 1zm182.5 1c-1.1.5-3.6.8-5.5.8l-3.5-.1 4-.7c5.7-1 7.4-1 5 0zm-164.5.8c0 1.3-1.2 2.2-2.2 1.6-1-.6-.1-2.4 1.3-2.4.5 0 .9.4.9.8zm163.9 3.6c-.2.2-5.1.6-10.9.9-6.2.3-8.9.2-6.5-.2 4.3-.9 18.1-1.4 17.4-.7zm-165.5 2.5c.3.5-.1 1.1-.9 1.4-.9.4-1.2.1-.8-.9.6-1.6 1-1.7 1.7-.5zM865 798c-4.1.4-10.4.7-14 .7-5.7 0-6-.1-2.5-.7 2.2-.4 8.5-.7 14-.7h10l-7.5.7zm4 3c-19.3 1.7-33.5 2.2-32.5 1.1 1-1 11.3-1.6 30.5-1.8h10.5l-8.5.7zm.4 3c-1.2.5-8.2 1.1-15.5 1.5-7.4.3-16.7.8-20.6 1-4.2.2-7.3 0-7.3-.6 0-.5.3-1 .8-1 .6-.1 28.1-1.2 41.2-1.7 2.9-.1 3.1.1 1.4.8zm10.4-.3c-1.6.2-4 .2-5.5 0-1.6-.2-.3-.4 2.7-.4s4.3.2 2.8.4zm-357.9 1.9c3.3.4 6.1 1 6.1 1.5 0 .4-4.3.9-9.5 1.1-6.4.2-9.5-.1-9.5-.8 0-2.6 2.1-2.9 12.9-1.8zm-498.6 1.1c-.7.2-1.9.2-2.5 0-.7-.3-.2-.5 1.2-.5s1.9.2 1.3.5zm864.4-.1c-.3.3-1.2.4-1.9.1-.8-.3-.5-.6.6-.6 1.1-.1 1.7.2 1.3.5zm-12.6 1.4c-8 1.2-60.8 2.4-59.8 1.4 1-1.1 17.6-1.9 44.7-2 13.7-.1 18.7.1 15.1.6zm-813 1.9c-.8.5-3.7.9-6.5.9-4.3-.1-4.6-.2-2.1-.8 4.5-1.1 10.3-1.2 8.6-.1zm-14.4.7c-.3.3-1.2.4-1.9.1-.8-.3-.5-.6.6-.6 1.1-.1 1.7.2 1.3.5zm451 1c-.3.3-1.2.4-1.9.1-.8-.3-.5-.6.6-.6 1.1-.1 1.7.2 1.3.5zm384.3.4c-3 .4-19.2 1.1-36 1.4-16.8.4-33.8.9-37.7 1.3-5 .3-7.3.2-7.3-.6 0-.6.1-1.2.3-1.2.1-.1 7-.4 15.2-.8 21.9-.9 72-1 65.5-.1zm-830.7 1.7c-2.4.2-6.2.2-8.5 0-2.4-.2-.5-.4 4.2-.4s6.6.2 4.3.4zm16.5 0c-2.1.2-5.7.2-8 0-2.4-.2-.7-.4 3.7-.4s6.3.2 4.3.4zM505 815c1.1.7.3 1-3 .9-3.4 0-4-.2-2.5-.9 2.7-1.2 3.7-1.2 5.5 0zm-441.3 1.6c-.3.3-1.2.4-1.9.1-.8-.3-.5-.6.6-.6 1.1-.1 1.7.2 1.3.5zm10 1.2c-1 1.3-.9 1.5.5.9 1.1-.4 2.8.3 4.5 1.8 1.6 1.3 2.2 2.5 1.6 2.5-.7 0-1.3-.4-1.3-1 0-.5-1.5-.9-3.2-.8-8.2.2-23.1-.3-22.6-.8.3-.3 3.7-.7 7.4-.8 3.8-.2 8-.4 9.4-.5 3.2-.1 1.5-1.8-2.5-2.4-1.6-.2-.6-.4 2.2-.4 4.6 0 5.1.2 4 1.5zM138 820c0 .5-.7 1-1.6 1-.8 0-1.2-.5-.9-1 .3-.6 1-1 1.6-1 .5 0 .9.4.9 1zm351.3 1.7c-1.8.2-4.8.2-6.5 0-1.8-.2-.4-.4 3.2-.4s5 .2 3.3.4zm7.8 1c1.3 1.6 1.2 1.7-.3.4-1.7-1.3-2.2-2.1-1.4-2.1.2 0 1 .8 1.7 1.7zm-462.8 1c-.7.2-2.1.2-3 0-1-.3-.4-.5 1.2-.5 1.7 0 2.4.2 1.8.5zm13.7.3c0 1.3-1.1 1.3-3 0-1.2-.8-1.1-1 .8-1 1.2 0 2.2.4 2.2 1zm36 1.4c1 1.6.9 1.8-.4 1.3-.9-.4-9.1-1-18.1-1.3-9.1-.4-16.5-1-16.5-1.3 0-.3 7.6-.6 16.9-.6 15.5 0 17 .2 18.1 1.9zm376.1 3.8c4.3 1.5 6.4 3.4 4.6 4.1-.6.3-.2.6 1 .6 1.7.1 2.1.6 1.8 2.8-.1 1.5-.7 2.9-1.3 3.1-.6.2-.9.9-.6 1.7.3.7-1.9 3.8-4.8 6.8s-6.3 6.7-7.5 8.1c-1.3 1.4-3.1 2.6-4.1 2.6-2.4 0-5.6-3.5-4.6-5.1.4-.7.3-1-.4-.5-.6.4-2.8-1.8-5.2-5.4-2.2-3.3-3.6-6-3.1-6s1.6.9 2.4 2.1c1.1 1.5 1.7 1.7 2.3.8.4-.7.2-1.5-.4-1.7-.7-.2-1.2-.8-1.2-1.3 0-.6.5-.7 1-.4.6.3 1 .1 1-.6 0-.8-1.3-1-4-.6-3.3.4-4.1.1-5.5-1.9-1.7-2.6-1.9-3.5-.7-3.3 1.4.2 5.2-1.3 5.2-2.1 0-.4 1-1 2.3-1.3 1.2-.3 4-1.2 6.2-2.1 4.8-1.8 11-2 15.6-.4zm-421.8.5c-1.3.2-3.3.2-4.5 0-1.3-.2-.3-.4 2.2-.4s3.5.2 2.3.4zm851.5 0c-1 .2-2.8.2-4 0-1.3-.2-.5-.4 1.7-.4 2.2-.1 3.2.1 2.3.4zm5.9 6.9c-.3.3-1.2.4-1.9.1-.8-.3-.5-.6.6-.6 1.1-.1 1.7.2 1.3.5zm7.6.1c-.7.2-1.9.2-2.5 0-.7-.3-.2-.5 1.2-.5s1.9.2 1.3.5zM556 838c0 .5-.5 1-1.1 1-.5 0-.7-.5-.4-1 .3-.6.8-1 1.1-1 .2 0 .4.4.4 1zm335.3-.3c-.7.2-1.9.2-2.5 0-.7-.3-.2-.5 1.2-.5s1.9.2 1.3.5zM111.5 840c1.9.8 1.9.9-.2.9-1.2.1-2.5-.4-2.8-.9-.7-1.2.2-1.2 3 0zm426.8.7c-.7.2-2.1.2-3 0-1-.3-.4-.5 1.2-.5 1.7 0 2.4.2 1.8.5zm362.5 0c-1 .2-2.6.2-3.5 0-1-.3-.2-.5 1.7-.5s2.7.2 1.8.5zM521.5 842c1.9.8 1.9.9-.2.9-1.2.1-2.5-.4-2.8-.9-.7-1.2.2-1.2 3 0zm-98.1 1.6c.5 1.4.4 1.5-.9.4-1.7-1.4-1.9-2-.6-2 .5 0 1.2.7 1.5 1.6zm92.9-.9c-.7.2-1.9.2-2.5 0-.7-.3-.2-.5 1.2-.5s1.9.2 1.3.5zm43.2-.2c-2.3.8-12.5 1.1-11.3.4.7-.5 3.8-.8 6.8-.8s5.1.2 4.5.4zM163 844c0 .5-.4 1-1 1-.5 0-1-.5-1-1 0-.6.5-1 1-1 .6 0 1 .4 1 1zm259 2.6c0 .7 1.4 3.4 3.1 5.9 1.7 2.5 2.9 4.9 2.6 5.1-.3.3-1.4-.7-2.4-2.3-1-1.5-2.4-3.4-3.1-4.2-2.8-2.9-4.3-9.3-1.7-7.1.8.7 1.5 1.8 1.5 2.6zm58.5-2.6c-.3.5-1.6 1-2.8.9-2-.1-2-.2.3-.9 1.4-.4 2.6-.8 2.8-.9.2-.1 0 .3-.3.9zm9.8 1.7c-.7.2-2.1.2-3 0-1-.3-.4-.5 1.2-.5 1.7 0 2.4.2 1.8.5zm10 0c-1.3.2-3.3.2-4.5 0-1.3-.2-.3-.4 2.2-.4s3.5.2 2.3.4zm33.4.9c-.3.3-1.2.4-1.9.1-.8-.3-.5-.6.6-.6 1.1-.1 1.7.2 1.3.5zm5.6.1c-.7.2-1.9.2-2.5 0-.7-.3-.2-.5 1.2-.5s1.9.2 1.3.5zm-21 1c-.7.2-1.9.2-2.5 0-.7-.3-.2-.5 1.2-.5s1.9.2 1.3.5zm9 0c-.7.2-2.1.2-3 0-1-.3-.4-.5 1.2-.5 1.7 0 2.4.2 1.8.5zm-53.3 3.6c1.3.5 1.3.6-.1.6-.8.1-2.4-.6-3.5-1.5-1.9-1.5-1.9-1.5.1-.6 1.1.5 2.7 1.2 3.5 1.5zm449.3-1.6c-.7.2-1.9.2-2.5 0-.7-.3-.2-.5 1.2-.5s1.9.2 1.3.5zM155 850.9c0 .5-.7 1.1-1.5 1.5-1.5.5-2-.5-.8-1.7.9-1 2.3-.9 2.3.2zm314.5 1.1c.3.6-.1.7-.9.4-1.8-.7-2.1-1.4-.7-1.4.6 0 1.3.4 1.6 1zm75 0c-.3.5-3.2.9-6.3.8l-5.7-.1 6-.7c3.3-.4 6.1-.7 6.3-.8.2-.1 0 .2-.3.8zm17.8-.3c-1.3.2-3.3.2-4.5 0-1.3-.2-.3-.4 2.2-.4s3.5.2 2.3.4zM517 853c0 .5-.7 1-1.6 1-.8 0-1.2-.5-.9-1 .3-.6 1-1 1.6-1 .5 0 .9.4.9 1zm5.5 0c-2.7 1.2-4.3 1.2-2.5 0 .8-.5 2.2-.9 3-.9 1 0 .8.3-.5.9zm-18.1 1.2c-.3.4-1.1.5-1.9.1-2.1-.7-1.9-1.2.4-1 1.1 0 1.8.5 1.5.9zm-344.9.8c-.3.5-1 1-1.6 1-.5 0-.9-.5-.9-1 0-.6.7-1 1.6-1 .8 0 1.2.4.9 1zm337 0c.3.5.1 1-.4 1-.6 0-1.1-.5-1.1-1 0-.6.2-1 .4-1 .3 0 .8.4 1.1 1zm-16 1c-.3.5-2.5.9-4.8.9l-4.2-.2 4-.7c2.2-.4 4.4-.8 4.8-.9.5 0 .5.3.2.9zm8.8-.3c-.7.2-1.9.2-2.5 0-.7-.3-.2-.5 1.2-.5s1.9.2 1.3.5zm429.5 0c-1 .2-2.8.2-4 0-1.3-.2-.5-.4 1.7-.4 2.2-.1 3.2.1 2.3.4zm16 0c-1 .2-2.8.2-4 0-1.3-.2-.5-.4 1.7-.4 2.2-.1 3.2.1 2.3.4zM143 857c0 .5-.5 1-1.1 1-.5 0-.7-.5-.4-1 .3-.6.8-1 1.1-1 .2 0 .4.4.4 1zm315.3.7c-.7.2-1.9.2-2.5 0-.7-.3-.2-.5 1.2-.5s1.9.2 1.3.5zm101.7 5.2c2 .6 1.1 1-4.2 1.6-3.6.4-7.2.5-8 .2-.7-.3-.2-.6 1.2-.6 1.4-.1 3.2-.6 4-1.1 1.7-1.1 3.4-1.1 7-.1zm8.7.7c-.3.3-1.2.4-1.9.1-.8-.3-.5-.6.6-.6 1.1-.1 1.7.2 1.3.5zm370.6 1.1c-.7.2-1.9.2-2.5 0-.7-.3-.2-.5 1.2-.5s1.9.2 1.3.5zm12.4-.1c-.3.3-1.2.4-1.9.1-.8-.3-.5-.6.6-.6 1.1-.1 1.7.2 1.3.5zm4.5.6c-.9.9-1.5.9-2.4 0-.9-.9-.7-1.2 1.2-1.2s2.1.3 1.2 1.2zm-820.5 1.4c-.3.3-1.2.4-1.9.1-.8-.3-.5-.6.6-.6 1.1-.1 1.7.2 1.3.5zm465.3 1.5c0 .5-.7.9-1.5.9-1.5 0-2-1.2-.9-2.3.8-.8 2.4.1 2.4 1.4zm-26.2.6c-1 .2-2.6.2-3.5 0-1-.3-.2-.5 1.7-.5s2.7.2 1.8.5zm-10.8.9c-1.5.3-26.1 2-44.5 3-4.9.3-18.2 1.2-29.4 2-11.2.7-21 1.4-21.8 1.4-.8 0-1.1.4-.8 1 .8 1.3-1.2 1.3-7.5-.1-3.1-.7-4.9-1.5-4.7-2.2.3-.7 1-1.1 1.7-.9.7.2 2.1-.5 3.1-1.4 1.5-1.4 2.3-1.5 4.6-.5 3.2 1.2 29.2.8 56.8-.9 9.4-.6 19.3-1.2 22-1.3 7.1-.5 22.3-.5 20.5-.1zM64 874c0 .5-.2 1-.4 1-.3 0-.8-.5-1.1-1-.3-.6-.1-1 .4-1 .6 0 1.1.4 1.1 1zm863.8.7c-1.6.2-4 .2-5.5 0-1.6-.2-.3-.4 2.7-.4s4.3.2 2.8.4zM587.5 876c-1.1.5-3.8.8-6 .8l-4-.1 3.5-.7c1.9-.4 4.6-.8 6-.8 2.3-.1 2.3 0 .5.8zm7.2-.4c-.3.3-1.2.4-1.9.1-.8-.3-.5-.6.6-.6 1.1-.1 1.7.2 1.3.5zm316.1.1c-1 .2-2.6.2-3.5 0-1-.3-.2-.5 1.7-.5s2.7.2 1.8.5zM576 877c0 1.3-1.1 1.3-3 0-1.2-.8-1.1-1 .8-1 1.2 0 2.2.4 2.2 1zm-12.5 1c-2.7.5-9 .9-14 .9-9.6.1-14.4.9-12.6 2.1.7.3-.3.7-2.1.7-1.8.1-8.9.6-15.8 1.1-6.9.6-19.9 1.6-29 2.2-9.1.6-20.1 1.3-24.4 1.7-5.9.4-7.7.3-7.2-.5.4-.7 2.8-1.3 5.4-1.4l4.7-.1-4.5-.6-4.5-.7 4-.6c9-1.6 29.6-2.1 32-.8 1.7.9 4 1 9.6.2l7.4-1.1-8.5.4c-6.1.3-7.5.2-5-.4 1.9-.5 9.4-1.2 16.5-1.6 26.2-1.5 41.1-2.2 47-2.2h6l-5 .7zm-484.7 9.7c-1 .2-2.6.2-3.5 0-1-.3-.2-.5 1.7-.5s2.7.2 1.8.5zm6.5 0c-.7.2-2.1.2-3 0-1-.3-.4-.5 1.2-.5 1.7 0 2.4.2 1.8.5zm8.5 5c-1.6.2-4 .2-5.5 0-1.6-.2-.3-.4 2.7-.4s4.3.2 2.8.4zm390.2.3c0 .5-.9 1-1.9 1-1.1 0-2.3-.5-2.6-1-.4-.6.5-1 1.9-1s2.6.4 2.6 1zm-382.7 7.7c-1.8.2-4.8.2-6.5 0-1.8-.2-.4-.4 3.2-.4s5 .2 3.3.4zm419.2 7.4c.5.5-.5.4-2.3-.2-1.7-.6-3.2-1.3-3.2-1.6 0-.7 4.3.8 5.5 1.8zm-403.2-.4c-1.8.2-4.8.2-6.5 0-1.8-.2-.4-.4 3.2-.4s5 .2 3.3.4zm24.7 8.7c0 .6-2.2 1.1-5 1.3-4.9.3-7.2-1.3-2.7-1.9 4.2-.6 7.7-.3 7.7.6zm-2 4.5c3.4.6 3.7.9 1.5.9-1.6.1-4.8-.3-7-.7-5.3-1.1-.5-1.2 5.5-.2zm-12.7.8c-.7.2-1.9.2-2.5 0-.7-.3-.2-.5 1.2-.5s1.9.2 1.3.5zm44.2 23.3c-.3.5-1.1 1-1.6 1-.6 0-.7-.5-.4-1 .3-.6 1.1-1 1.6-1 .6 0 .7.4.4 1zm3.3 9.9c-.2 2.1-.9 2.7-3.8 3.1-4.6.7-11 0-11-1.1 0-.4.6-.6 1.3-.3 1.5.5 10-3 9.2-3.8-.3-.3.6-.6 2-.6 2.2 0 2.6.4 2.3 2.7z"/><path d="M147.8 306.7c.7.3 1.6.2 1.9-.1.4-.3-.2-.6-1.3-.5-1.1 0-1.4.3-.6.6zM531.5 425c-2.8.7-2.7.8 1.5 1 2.5.2 5.2.2 6 .1.8-.2 3.8-.6 6.5-1 4.7-.8 4.4-.8-3-.8-4.4-.1-9.3.3-11 .7zM538 430.3c0 1.7 4.8 8.7 6 8.7 1.6 0 2-1.8.5-2.4-.8-.3-2.3-2.1-3.2-4.1-1.7-3.5-3.3-4.6-3.3-2.2zM548.8 438.7c.6.2 1.8.2 2.5 0 .6-.3.1-.5-1.3-.5-1.4 0-1.9.2-1.2.5zM488.8 439.7c.6.2 1.8.2 2.5 0 .6-.3.1-.5-1.3-.5-1.4 0-1.9.2-1.2.5zM477.5 441.1c-.5.7.5.8 3.2.3 5.1-.9 5.4-1.4 1-1.4-2 0-3.9.5-4.2 1.1zM446.3 442.7c2.6.2 6.7.2 9 0s.2-.3-4.8-.3c-4.9 0-6.8.1-4.2.3zM461.6 443c.8.8 2.7.8 6 .2l4.9-1-5.9-.1c-4.2-.1-5.7.2-5 .9zM540.9 443.8c-1.6 1.1-2.4 1.2-2.7.4-.6-1.9-1.9-1.4-2.6 1-.5 2.1 2 19.7 3 20.7.2.2 1.4-.8 2.7-2.2 2.7-3.2 3.4-3.3 4-1 .3 1 .5-3 .6-8.8.1-11.7-.6-13.2-5-10.1zM480 447.5c0 .8-.7 1.5-1.5 1.5-3.5 0-.2 13.4 3.9 16 1.5.9 2.1 1 2.4.1.2-.6 1-1.1 1.8-1.1s1.4-.5 1.4-1.1c0-1.1 2.8-.5 7.4 1.7 2.6 1.2 3 1.2 4.1-.3.7-.9 1.3-3.9 1.3-6.7 0-4-.5-5.4-2.6-7.3-1.4-1.2-3.9-2.4-5.6-2.5-4.9-.2-5.4-.3-6.2-1.1-1.4-1.4-6.4-.8-6.4.8zM460.5 483c-.3.5.3 1 1.4 1 1.2 0 2.1-.5 2.1-1 0-.6-.6-1-1.4-1-.8 0-1.8.4-2.1 1zM501.5 512l-3 .8 3 .2c2.1.2 1.3.5-2.5 1l-5.5.7 5 .1c4.8.1 11.6-1.6 7.2-1.7-1-.1-1.5-.6-1.2-1.1.3-.6.5-.9.3-.9-.2.1-1.6.5-3.3.9zM481.8 514.7c1.2.2 3 .2 4 0 .9-.3-.1-.5-2.3-.4-2.2 0-3 .2-1.7.4zM489.3 514.7c.9.2 2.3.2 3 0 .6-.3-.1-.5-1.8-.5-1.6 0-2.2.2-1.2.5zM289 649.1c0 1.8 2 4.9 3.2 4.9.6 0 .3-.9-.6-1.9-1-1.1-1.5-2.5-1.1-3 .3-.6.1-1.1-.4-1.1-.6 0-1.1.5-1.1 1.1zM282.4 651.8c-1.9 1.2-2.5 4.7-1.1 6.6 1.6 2.2 6.7 1.5 6.7-.8 0-.8.6-1.7 1.3-1.9.6-.3.2-.6-1-.6-1.2-.1-2.5-.5-2.8-1.1-.3-.6.1-.7.9-.4.9.3 1.6.2 1.6-.4 0-1.8-3.7-2.7-5.6-1.4zM276.8 654.7c.7.3 1.6.2 1.9-.1.4-.3-.2-.6-1.3-.5-1.1 0-1.4.3-.6.6zM276.5 657c.3.5.8 1 1.1 1 .2 0 .4-.5.4-1 0-.6-.5-1-1.1-1-.5 0-.7.4-.4 1zM269.5 658c-.3.5-1.8 1.1-3.3 1.1-1.8.1-2.1.3-.9.6 2.4.6 6.7-.5 6.7-1.7 0-1.3-1.7-1.3-2.5 0zM297.7 661.4c-.4 1-.1 1.3.9.9 1.5-.6 1.9-2.3.5-2.3-.5 0-1.1.7-1.4 1.4zM264.8 662.7c.6.2 1.8.2 2.5 0 .6-.3.1-.5-1.3-.5-1.4 0-1.9.2-1.2.5zM297.1 664.6c-1.8.8-3.5 2.4-3.8 3.4-.6 2.1-2.3 2.8-2.3 1 0-1.2-6.1-4.1-7.2-3.4-.9.6.2 6.5 1.5 8.2.7.9.7 1.6-.1 2.4-.7.7-1.2 1.7-1.2 2.3 0 1.4 5.5 4.7 6.4 3.8.3-.3.6.3.6 1.4 0 1.1 1.1 3 2.5 4.3l2.5 2.3.6-3.2c.5-2.1 1.1-3 2-2.7 1.7.7 7.4-1.3 7.4-2.5 0-1.4-3.2-4.5-5.5-5.3-1.5-.6-1.7-.9-.6-1.6 1.3-.8 1.6-3.9.9-9.8-.1-1.2-.2-2.2-.3-2.1 0 0-1.5.7-3.4 1.5zM254.6 665.6c-.4.9-.4 1.9-.1 2.2.2.3.7-.3 1.1-1.2.4-.9.4-1.9.1-2.2-.2-.3-.7.3-1.1 1.2z"/><path d="M289 665.1c0 .5.5.7 1 .4.6-.3 1-.8 1-1.1 0-.2-.4-.4-1-.4-.5 0-1 .5-1 1.1zM259.1 675c-.1 5.3.4 6 2.5 3.2 1.7-2.2 1.8-4.9.2-5.5-1-.4-1-.6 0-.6 1.7-.1.5-2.1-1.2-2.1-.8 0-1.3 1.7-1.5 5zM257.8 682.7c-3.8 1-1.8 2.8 2.9 2.7 3.4-.1 4.8-.6 4.8-1.5 0-1.4-4.5-2.1-7.7-1.2zM94 702c0 .5.5 1 1 1 .6 0 1-.5 1-1 0-.6-.4-1-1-1-.5 0-1 .4-1 1zM136.5 710c.3.5 1 1 1.6 1 .5 0 .9-.5.9-1 0-.6-.7-1-1.6-1-.8 0-1.2.4-.9 1zM154.5 717c-.4.6.7 1 2.4 1s3.1-.5 3.1-1c0-.6-1.1-1-2.4-1-1.4 0-2.8.4-3.1 1zM132.1 717.9c-5.4.4-8.6 1-8.9 1.8-.5 1.6 1.9 1.6 11.3.2 3.9-.6 9.5-1.4 12.5-1.8l5.5-.8h-6c-3.3.1-9.8.3-14.4.6zM172.1 718.4c1 1 8.9 2.3 9.4 1.6.3-.4-.5-1-1.8-1.4-2.6-.7-8.2-.8-7.6-.2zM132.5 722c-.3.5-1.5 1-2.6 1-1.9 0-1.9.1-.5 2.2.9 1.2 1.6 3 1.6 4 0 1.6 1.1 2.3 3.3 1.9.4 0 .7.4.7 1 0 .5 1.5-.1 3.3-1.4 1.7-1.4 3.7-2.3 4.2-2.1.6.3 1.1-.5 1.2-1.6.1-1.6-.9-2.6-4.3-4.1-5.2-2.2-6-2.3-6.9-.9zM123 728.1c0 .5.5.7 1 .4.6-.3 1-.8 1-1.1 0-.2-.4-.4-1-.4-.5 0-1 .5-1 1.1zM133.3 734.2c.3.9.1 1.9-.6 2.2-.9.3-.9.5 0 .5 1.8.1 2.7-1.9 1.3-3.2-1-.9-1.2-.8-.7.5zM813.4 691.4c-1 .8-1.6 1.8-1.2 2.1.4.4 1.5 0 2.4-.9 2.1-2.2 1.3-3-1.2-1.2zM795 700c-1.3.9-1.2 1.2.4 2.5 1.1.8 2.5 1.5 3 1.5.6-.1 0-.7-1.3-1.4-2.3-1.3-2.3-1.4-.5-2.4 1-.6 1.5-1.1.9-1.2-.5 0-1.7.5-2.5 1zM782.5 707c-.3.5-.1 1 .4 1 .6 0 1.1-.5 1.1-1 0-.6-.2-1-.4-1-.3 0-.8.4-1.1 1zM249 721c0 .5.7 1 1.6 1 .8 0 1.2-.5.9-1-.3-.6-1-1-1.6-1-.5 0-.9.4-.9 1zM267.3 728.5c0 .8.6 1.5 1.3 1.5 2 0 2.6-1.7.8-2.4-2.1-.8-2.1-.8-2.1.9zM683 782.5c0 .9.9 1.5 2.5 1.5 2.8 0 3.4-1.5.9-2.4-2.5-1-3.4-.7-3.4.9zM677.8 791.7c.7.3 1.6.2 1.9-.1.4-.3-.2-.6-1.3-.5-1.1 0-1.4.3-.6.6zM584 825c-.9.6-1 1-.3 1 .6 0 1.5-.5 1.8-1 .8-1.2.4-1.2-1.5 0zM536.8 885.7c.7.3 1.6.2 1.9-.1.4-.3-.2-.6-1.3-.5-1.1 0-1.4.3-.6.6zM474.8 889.7c.7.3 1.6.2 1.9-.1.4-.3-.2-.6-1.3-.5-1.1 0-1.4.3-.6.6zM491.5 897c2.7 1.2 4.3 1.2 2.5 0-.8-.5-2.2-.9-3-.9-1 0-.8.3.5.9zM540.4 901.4c3 1.7 10.4 2.3 7.6.7-.8-.5-3.5-1.2-6-1.6l-4.5-.6 2.9 1.5zM551.5 904c-.3.6.1.7.9.4 1.8-.7 2.1-1.4.7-1.4-.6 0-1.3.4-1.6 1zM381.3 770.8c-1.3.2-2.3 1-2.3 1.8 0 1.8 8.6 10.2 11.4 11 2.6.8 6.6 4.4 6.6 5.9s-3.5 4.7-4.3 3.9c-.3-.3-.3.3 0 1.5.8 3.2 1.7 2.6 4.8-3.2 1.5-2.8 2.9-5.3 3-5.5.6-.7 6.7 3.4 11.5 7.8 7.3 6.9 11 9 13.5 8 1.1-.5 1.5-.9.9-.9-.7-.1-1.1-1.4-1-3.1 0-1.6-.1-2.8-.4-2.7-.3.1-2.1-.8-4-1.9-5.5-3.4-8-3.9-8.1-1.7 0 1.4-.2 1.5-.6.3-.3-.8-1.1-2.1-1.7-2.9-.6-.7-1.1-2.1-1.1-2.9 0-.8-.7-1.6-1.7-1.7-1.9-.3-7.8-4.6-7.8-5.7 0-.4-.9-.8-2-.8s-2-.4-2-.8c0-.9-5.8-3.2-8-3.2-.7 0-2-.8-2.9-1.8-.9-.9-2.6-1.6-3.8-1.4zM299 801c0 .5.5 1 1 1 .6 0 1-.5 1-1 0-.6-.4-1-1-1-.5 0-1 .4-1 1zM352 823.3c0 1.4 2 3.7 3.2 3.7 1.6 0 .8-2.5-1.2-3.8-1.6-1-2-1-2 .1zM403.6 872.8c-.5.9.4 2.1 3 3.5.7.4 1.1-.2 1-1.6-.1-2.2-2.9-3.6-4-1.9zm3.4 1.2c0 .5-.4 1-1 1-.5 0-1-.5-1-1 0-.6.5-1 1-1 .6 0 1 .4 1 1zM424.8 876.7c.7.3 1.6.2 1.9-.1.4-.3-.2-.6-1.3-.5-1.1 0-1.4.3-.6.6zM449 840.1c1.1.7.6.9-2 .7-2.6-.2-3.5.1-3.5 1.2 0 .9.8 1.4 2 1.3 4.3-.6 11.1-1.2 13-1.3 2-.1 2-.1.1-1.5-1.1-.8-4-1.5-6.5-1.5-3.5 0-4.2.3-3.1 1.1zM448 854.6c0 .9-.5 1.2-1.2.8-.7-.4-1-.3-.5.1.4.5 1.6.9 2.7 1 1.5.1 1.7-.2.9-1.7-1.2-2.2-1.9-2.3-1.9-.2zM524 881l-3.5.7 3.8.2c2 0 3.7-.4 3.7-.9 0-.6-.1-.9-.2-.9-.2.1-1.9.5-3.8.9zM475.5 884c-3.4.6-3.6.7-1 .8 1.7 0 4.8-.3 7-.7 3.3-.7 3.5-.9 1-.8-1.6 0-4.8.3-7 .7zM490.3 883.7c.9.2 2.3.2 3 0 .6-.3-.1-.5-1.8-.5-1.6 0-2.2.2-1.2.5zM800 826l-16.5.6 16 .1c8.8 0 17.4-.3 19-.7 2.6-.7 2.6-.7.5-.7-1.4.1-9.9.4-19 .7zM811.3 830.7c.9.2 2.3.2 3 0 .6-.3-.1-.5-1.8-.5-1.6 0-2.2.2-1.2.5zM825.8 833.7c1.2.2 3.2.2 4.5 0 1.2-.2.2-.4-2.3-.4s-3.5.2-2.2.4zM92 837c0 .6 1.1.9 2.5.7 3.7-.5 4.2-1.7.7-1.7-1.8 0-3.2.5-3.2 1zM78.8 839.7c1.7.2 4.7.2 6.5 0 1.7-.2.3-.4-3.3-.4-3.6 0-5 .2-3.2.4zM836.3 840.7c.9.2 2.3.2 3 0 .6-.3-.1-.5-1.8-.5-1.6 0-2.2.2-1.2.5zM116.3 855.7c.9.2 2.3.2 3 0 .6-.3-.1-.5-1.8-.5-1.6 0-2.2.2-1.2.5zM804.3 855.7c.9.2 2.3.2 3 0 .6-.3-.1-.5-1.8-.5-1.6 0-2.2.2-1.2.5zM812.3 855.7c.9.2 2.3.2 3 0 .6-.3-.1-.5-1.8-.5-1.6 0-2.2.2-1.2.5zM122 869.4c0 1 2.8 1.3 4.1.5 1-.6.7-.9-1.3-.9-1.6 0-2.8.2-2.8.4zM130.2 878.6c-1.4 1.6-.5 1.8 1.7.5.7-.5.9-1.1.5-1.4-.5-.3-1.5.1-2.2.9zM849.8 877.7c1.2.2 3 .2 4 0 .9-.3-.1-.5-2.3-.4-2.2 0-3 .2-1.7.4zM923.8 880.9c-11.3.3-21 .9-21.4 1.3-.4.5 9 .8 20.9.8 18.6 0 21.7-.2 21.7-1.5 0-.8-.1-1.4-.2-1.3-.2.1-9.6.4-21 .7zM130.8 883.7c.7.3 1.6.2 1.9-.1.4-.3-.2-.6-1.3-.5-1.1 0-1.4.3-.6.6zM893.5 887c-1.6.4 9 .8 23.8.9 17.2.1 26.7-.3 26.7-.9 0-1.2-45.9-1.2-50.5 0zM162.6 887.9c-.5.8 26.4.4 28.9-.4.6-.2-5.6-.4-13.7-.4-8.1-.1-14.9.3-15.2.8zM927 891.1l-10.5.5 12.4.2c6.8.1 12.1-.1 11.7-.5-.9-.9-1.2-.9-13.6-.2zM165.8 896.7c2.3.2 6.1.2 8.5 0 2.3-.2.4-.4-4.3-.4s-6.6.2-4.2.4zM857.8 899.7c1.2.2 3.2.2 4.5 0 1.2-.2.2-.4-2.3-.4s-3.5.2-2.2.4zM935 900c-2.1.7-1.8.8 1.8.9 2.6.1 4.1-.3 3.7-.9-.7-1.1-1.9-1.1-5.5 0zM159.1 904.2c-.1 1.6.4 2.8.9 2.8 1.2 0 1.2-.8 0-3.5-.8-1.8-.9-1.7-.9.7zM191.3 907.7c.9.2 2.3.2 3 0 .6-.3-.1-.5-1.8-.5-1.6 0-2.2.2-1.2.5zM168.8 908.7c.7.3 1.6.2 1.9-.1.4-.3-.2-.6-1.3-.5-1.1 0-1.4.3-.6.6zM166.2 913.4c1.2.9 3.2 1.1 6.3.6 2.5-.4 7.9-.5 12-.2 5.2.3 7.5.1 7.5-.7 0-.8-4.2-1.1-13.7-1.1-11.6.1-13.5.3-12.1 1.4z"/></svg>